M48
INCH
T1C0.0315
T2C0.0374
T3C0.0394
T4C0.0402
T5C0.0591
T6C0.0866
%
G90
G05
T1
X6.1142Y-2.6102
X6.1142Y-2.7087
X6.1142Y-2.8071
X6.9212Y-4.2165
X6.9212Y-4.315
X6.9212Y-4.4134
X8.0701Y-2.5564
X8.0701Y-2.8564
X8.1701Y-2.5564
X8.1701Y-2.8564
X8.2701Y-2.5564
X8.2701Y-2.8564
X8.3701Y-2.5564
X8.3701Y-2.8564
T2
X6.0423Y-4.2165
X6.0423Y-4.315
X6.0423Y-4.4134
X6.3334Y-4.2165
X6.3334Y-4.315
X6.3334Y-4.4134
X6.3504Y-2.6059
X6.3504Y-2.7043
X6.3504Y-2.8028
X6.6244Y-4.2165
X6.6244Y-4.315
X6.6244Y-4.4134
X6.6772Y-2.6059
X6.6772Y-2.7043
X6.6772Y-2.8028
X7.0039Y-2.6059
X7.0039Y-2.7043
X7.0039Y-2.8028
X7.3307Y-2.6059
X7.3307Y-2.7043
X7.3307Y-2.8028
X7.6569Y-2.6059
X7.6569Y-2.7043
X7.6569Y-2.8028
T3
X7.1531Y-4.315
X7.1531Y-4.4134
X7.4442Y-4.315
X7.4442Y-4.4134
X7.7352Y-4.315
X7.7352Y-4.4134
X8.5024Y-3.0563
X8.5024Y-3.1563
X8.5024Y-3.2563
X8.5024Y-3.3563
X8.5024Y-3.4563
X8.5024Y-3.5563
X8.5024Y-3.6563
X8.5024Y-3.7563
X8.5024Y-3.8563
X8.5024Y-3.9563
T4
X5.9953Y-3.0551
X5.9953Y-3.9551
X6.0953Y-3.0551
X6.0953Y-3.9551
X6.1953Y-3.0551
X6.1953Y-3.9551
X6.2953Y-3.0551
X6.2953Y-3.9551
X6.3953Y-3.0551
X6.3953Y-3.9551
X6.4953Y-3.0551
X6.4953Y-3.9551
X6.5953Y-3.0551
X6.5953Y-3.9551
X6.6953Y-3.0551
X6.6953Y-3.9551
X6.7953Y-3.0551
X6.7953Y-3.9551
X6.8953Y-3.0551
X6.8953Y-3.9551
X6.9953Y-3.0551
X6.9953Y-3.9551
X7.0953Y-3.0551
X7.0953Y-3.9551
X7.1953Y-3.0551
X7.1953Y-3.9551
X7.2953Y-3.0551
X7.2953Y-3.9551
X7.3953Y-3.0551
X7.3953Y-3.9551
X7.4953Y-3.0551
X7.4953Y-3.9551
X7.5953Y-3.0551
X7.5953Y-3.9551
X7.6953Y-3.0551
X7.6953Y-3.9551
X7.7953Y-3.0551
X7.7953Y-3.9551
X7.8953Y-3.0551
X7.8953Y-3.9551
X7.9953Y-3.0551
X7.9953Y-3.9551
X8.0953Y-3.0551
X8.0953Y-3.9551
T5
X8.0827Y-4.1142
X8.0827Y-4.4685
X8.6339Y-4.1142
X8.6339Y-4.4685
T6
X5.7843Y-4.372
X5.7843Y-2.6772
X8.737Y-2.6791
M30
