%TF.GenerationSoftware,KiCad,Pcbnew,8.0.2*%
%TF.CreationDate,2024-06-06T18:17:56-04:00*%
%TF.ProjectId,MBARETECHmini,4d424152-4554-4454-9348-6d696e692e6b,rev?*%
%TF.SameCoordinates,Original*%
%TF.FileFunction,Legend,Bot*%
%TF.FilePolarity,Positive*%
%FSLAX46Y46*%
G04 Gerber Fmt 4.6, Leading zero omitted, Abs format (unit mm)*
G04 Created by KiCad (PCBNEW 8.0.2) date 2024-06-06 18:17:56*
%MOMM*%
%LPD*%
G01*
G04 APERTURE LIST*
G04 Aperture macros list*
%AMRoundRect*
0 Rectangle with rounded corners*
0 $1 Rounding radius*
0 $2 $3 $4 $5 $6 $7 $8 $9 X,Y pos of 4 corners*
0 Add a 4 corners polygon primitive as box body*
4,1,4,$2,$3,$4,$5,$6,$7,$8,$9,$2,$3,0*
0 Add four circle primitives for the rounded corners*
1,1,$1+$1,$2,$3*
1,1,$1+$1,$4,$5*
1,1,$1+$1,$6,$7*
1,1,$1+$1,$8,$9*
0 Add four rect primitives between the rounded corners*
20,1,$1+$1,$2,$3,$4,$5,0*
20,1,$1+$1,$4,$5,$6,$7,0*
20,1,$1+$1,$6,$7,$8,$9,0*
20,1,$1+$1,$8,$9,$2,$3,0*%
G04 Aperture macros list end*
%ADD10C,0.120000*%
%ADD11RoundRect,0.566667X-0.300333X0.585333X-0.300333X-0.585333X0.300333X-0.585333X0.300333X0.585333X0*%
%ADD12O,2.000000X1.700000*%
%ADD13RoundRect,0.250000X0.750000X-0.600000X0.750000X0.600000X-0.750000X0.600000X-0.750000X-0.600000X0*%
%ADD14O,1.950000X1.700000*%
%ADD15RoundRect,0.250000X0.725000X-0.600000X0.725000X0.600000X-0.725000X0.600000X-0.725000X-0.600000X0*%
%ADD16O,2.925000X1.700000*%
%ADD17RoundRect,0.250000X1.212500X-0.600000X1.212500X0.600000X-1.212500X0.600000X-1.212500X-0.600000X0*%
%ADD18R,1.600000X1.600000*%
%ADD19O,1.600000X1.600000*%
%ADD20C,4.400000*%
%ADD21R,2.500000X1.500000*%
%ADD22O,2.500000X1.500000*%
%ADD23R,1.700000X1.700000*%
%ADD24O,1.700000X1.700000*%
%ADD25RoundRect,0.688976X-1.851024X-0.361024X1.851024X-0.361024X1.851024X0.361024X-1.851024X0.361024X0*%
%ADD26RoundRect,0.237500X-0.237500X0.250000X-0.237500X-0.250000X0.237500X-0.250000X0.237500X0.250000X0*%
%ADD27RoundRect,0.237500X0.237500X-0.250000X0.237500X0.250000X-0.237500X0.250000X-0.237500X-0.250000X0*%
G04 APERTURE END LIST*
D10*
%TO.C,R7*%
X169477500Y-96648474D02*
X169477500Y-96139026D01*
X170522500Y-96648474D02*
X170522500Y-96139026D01*
%TO.C,R5*%
X161877500Y-96648474D02*
X161877500Y-96139026D01*
X162922500Y-96648474D02*
X162922500Y-96139026D01*
%TO.C,R3*%
X209577500Y-68945276D02*
X209577500Y-69454724D01*
X210622500Y-68945276D02*
X210622500Y-69454724D01*
%TO.C,R1*%
X204477500Y-68945276D02*
X204477500Y-69454724D01*
X205522500Y-68945276D02*
X205522500Y-69454724D01*
%TO.C,R2*%
X206977500Y-68945276D02*
X206977500Y-69454724D01*
X208022500Y-68945276D02*
X208022500Y-69454724D01*
%TO.C,R4*%
X212077500Y-68945276D02*
X212077500Y-69454724D01*
X213122500Y-68945276D02*
X213122500Y-69454724D01*
%TO.C,R6*%
X156777500Y-96654724D02*
X156777500Y-96145276D01*
X157822500Y-96654724D02*
X157822500Y-96145276D01*
%TD*%
%LPC*%
D11*
%TO.C,U1*%
X205620000Y-77600000D03*
X203080000Y-77600000D03*
X200540000Y-77600000D03*
X198000000Y-77600000D03*
X195460000Y-77600000D03*
X192920000Y-77600000D03*
X190380000Y-77600000D03*
X187840000Y-77600000D03*
X185300000Y-77600000D03*
X182760000Y-77600000D03*
X180220000Y-77600000D03*
X177680000Y-77600000D03*
X175140000Y-77600000D03*
X172600000Y-77600000D03*
X170060000Y-77600000D03*
X167520000Y-77600000D03*
X164980000Y-77600000D03*
X162440000Y-77600000D03*
X159900000Y-77600000D03*
X157360000Y-77600000D03*
X154820000Y-77600000D03*
X152280000Y-77600000D03*
X205620000Y-100460000D03*
X203080000Y-100460000D03*
X200540000Y-100460000D03*
X198000000Y-100460000D03*
X195460000Y-100460000D03*
X192920000Y-100460000D03*
X190380000Y-100460000D03*
X187840000Y-100460000D03*
X185300000Y-100460000D03*
X182760000Y-100460000D03*
X180220000Y-100460000D03*
X177680000Y-100460000D03*
X175140000Y-100460000D03*
X172600000Y-100460000D03*
X170060000Y-100460000D03*
X167520000Y-100460000D03*
X164980000Y-100460000D03*
X162440000Y-100460000D03*
X159900000Y-100460000D03*
X157360000Y-100460000D03*
X154820000Y-100460000D03*
X152280000Y-100460000D03*
%TD*%
D12*
%TO.C,Battery1*%
X196475000Y-109600000D03*
D13*
X196475000Y-112100000D03*
%TD*%
D14*
%TO.C,MA1*%
X161300000Y-66190000D03*
X161300000Y-68690000D03*
D15*
X161300000Y-71190000D03*
%TD*%
D16*
%TO.C,LS1*%
X194485000Y-66190000D03*
X194485000Y-68690000D03*
D17*
X194485000Y-71190000D03*
%TD*%
D18*
%TO.C,DIP1*%
X212600000Y-64932500D03*
D19*
X210060000Y-64932500D03*
X207520000Y-64932500D03*
X204980000Y-64932500D03*
X204980000Y-72552500D03*
X207520000Y-72552500D03*
X210060000Y-72552500D03*
X212600000Y-72552500D03*
%TD*%
D20*
%TO.C,*%
X221920000Y-68049999D03*
%TD*%
%TO.C,*%
X146919999Y-111049999D03*
%TD*%
D21*
%TO.C,SW1*%
X155300000Y-71300000D03*
D22*
X155300000Y-68800000D03*
X155300000Y-66300000D03*
%TD*%
D14*
%TO.C,MB1*%
X169600000Y-66190000D03*
X169600000Y-68690000D03*
D15*
X169600000Y-71190000D03*
%TD*%
D12*
%TO.C,MotorA1*%
X181690000Y-109600000D03*
D13*
X181690000Y-112100000D03*
%TD*%
D17*
%TO.C,IR3*%
X168260000Y-112100000D03*
D16*
X168260000Y-109600000D03*
X168260000Y-107100000D03*
%TD*%
D23*
%TO.C,IMU1*%
X215960000Y-77630000D03*
D24*
X215960000Y-80170000D03*
X215960000Y-82710000D03*
X215960000Y-85250000D03*
X215960000Y-87790000D03*
X215960000Y-90330000D03*
X215960000Y-92870000D03*
X215960000Y-95410000D03*
X215960000Y-97950000D03*
X215960000Y-100490000D03*
%TD*%
D25*
%TO.C,BUCK1*%
X204030000Y-113500000D03*
X204030000Y-104500000D03*
X220570000Y-113500000D03*
X220570000Y-104500000D03*
%TD*%
D16*
%TO.C,LS2*%
X186200000Y-66190000D03*
X186200000Y-68690000D03*
D17*
X186200000Y-71190000D03*
%TD*%
D12*
%TO.C,MotorB1*%
X189082500Y-109600000D03*
D13*
X189082500Y-112100000D03*
%TD*%
D16*
%TO.C,IR1*%
X153475000Y-107100000D03*
X153475000Y-109600000D03*
D17*
X153475000Y-112100000D03*
%TD*%
D16*
%TO.C,KS1*%
X177900000Y-66190000D03*
X177900000Y-68690000D03*
D17*
X177900000Y-71190000D03*
%TD*%
%TO.C,IR2*%
X160867500Y-112100000D03*
D16*
X160867500Y-109600000D03*
X160867500Y-107100000D03*
%TD*%
D20*
%TO.C,*%
X146920000Y-68000000D03*
%TD*%
D21*
%TO.C,SW2*%
X175797500Y-112100000D03*
D22*
X175797500Y-109600000D03*
X175797500Y-107100000D03*
%TD*%
D26*
%TO.C,R7*%
X170000000Y-95481250D03*
X170000000Y-97306250D03*
%TD*%
%TO.C,R5*%
X162400000Y-95481250D03*
X162400000Y-97306250D03*
%TD*%
D27*
%TO.C,R3*%
X210100000Y-70112500D03*
X210100000Y-68287500D03*
%TD*%
%TO.C,R1*%
X205000000Y-70112500D03*
X205000000Y-68287500D03*
%TD*%
%TO.C,R2*%
X207500000Y-70112500D03*
X207500000Y-68287500D03*
%TD*%
%TO.C,R4*%
X212600000Y-70112500D03*
X212600000Y-68287500D03*
%TD*%
D26*
%TO.C,R6*%
X157300000Y-95487500D03*
X157300000Y-97312500D03*
%TD*%
%LPD*%
M02*
