%TF.GenerationSoftware,KiCad,Pcbnew,8.0.2*%
%TF.CreationDate,2024-06-06T18:17:56-04:00*%
%TF.ProjectId,MBARETECHmini,4d424152-4554-4454-9348-6d696e692e6b,rev?*%
%TF.SameCoordinates,Original*%
%TF.FileFunction,Copper,L1,Top*%
%TF.FilePolarity,Positive*%
%FSLAX46Y46*%
G04 Gerber Fmt 4.6, Leading zero omitted, Abs format (unit mm)*
G04 Created by KiCad (PCBNEW 8.0.2) date 2024-06-06 18:17:56*
%MOMM*%
%LPD*%
G01*
G04 APERTURE LIST*
G04 Aperture macros list*
%AMRoundRect*
0 Rectangle with rounded corners*
0 $1 Rounding radius*
0 $2 $3 $4 $5 $6 $7 $8 $9 X,Y pos of 4 corners*
0 Add a 4 corners polygon primitive as box body*
4,1,4,$2,$3,$4,$5,$6,$7,$8,$9,$2,$3,0*
0 Add four circle primitives for the rounded corners*
1,1,$1+$1,$2,$3*
1,1,$1+$1,$4,$5*
1,1,$1+$1,$6,$7*
1,1,$1+$1,$8,$9*
0 Add four rect primitives between the rounded corners*
20,1,$1+$1,$2,$3,$4,$5,0*
20,1,$1+$1,$4,$5,$6,$7,0*
20,1,$1+$1,$6,$7,$8,$9,0*
20,1,$1+$1,$8,$9,$2,$3,0*%
G04 Aperture macros list end*
%TA.AperFunction,ComponentPad*%
%ADD10RoundRect,0.500000X-0.265000X0.550000X-0.265000X-0.550000X0.265000X-0.550000X0.265000X0.550000X0*%
%TD*%
%TA.AperFunction,ComponentPad*%
%ADD11O,2.000000X1.700000*%
%TD*%
%TA.AperFunction,ComponentPad*%
%ADD12RoundRect,0.250000X0.750000X-0.600000X0.750000X0.600000X-0.750000X0.600000X-0.750000X-0.600000X0*%
%TD*%
%TA.AperFunction,ComponentPad*%
%ADD13O,1.950000X1.700000*%
%TD*%
%TA.AperFunction,ComponentPad*%
%ADD14RoundRect,0.250000X0.725000X-0.600000X0.725000X0.600000X-0.725000X0.600000X-0.725000X-0.600000X0*%
%TD*%
%TA.AperFunction,ComponentPad*%
%ADD15O,2.925000X1.700000*%
%TD*%
%TA.AperFunction,ComponentPad*%
%ADD16RoundRect,0.250000X1.212500X-0.600000X1.212500X0.600000X-1.212500X0.600000X-1.212500X-0.600000X0*%
%TD*%
%TA.AperFunction,ComponentPad*%
%ADD17R,1.600000X1.600000*%
%TD*%
%TA.AperFunction,ComponentPad*%
%ADD18O,1.600000X1.600000*%
%TD*%
%TA.AperFunction,ComponentPad*%
%ADD19C,4.400000*%
%TD*%
%TA.AperFunction,ComponentPad*%
%ADD20R,2.500000X1.500000*%
%TD*%
%TA.AperFunction,ComponentPad*%
%ADD21O,2.500000X1.500000*%
%TD*%
%TA.AperFunction,ComponentPad*%
%ADD22R,1.700000X1.700000*%
%TD*%
%TA.AperFunction,ComponentPad*%
%ADD23O,1.700000X1.700000*%
%TD*%
%TA.AperFunction,ComponentPad*%
%ADD24RoundRect,0.688976X-1.851024X-0.361024X1.851024X-0.361024X1.851024X0.361024X-1.851024X0.361024X0*%
%TD*%
G04 APERTURE END LIST*
D10*
%TO.P,U1,J1_1,3V3*%
%TO.N,+3V3*%
X205620000Y-77600000D03*
%TO.P,U1,J1_2,3V3*%
X203080000Y-77600000D03*
%TO.P,U1,J1_3,RST*%
%TO.N,unconnected-(U1-RST-PadJ1_3)*%
X200540000Y-77600000D03*
%TO.P,U1,J1_4,GPIO4*%
%TO.N,S1*%
X198000000Y-77600000D03*
%TO.P,U1,J1_5,GPIO5*%
%TO.N,S2*%
X195460000Y-77600000D03*
%TO.P,U1,J1_6,GPIO6*%
%TO.N,S3*%
X192920000Y-77600000D03*
%TO.P,U1,J1_7,GPIO7*%
%TO.N,S4*%
X190380000Y-77600000D03*
%TO.P,U1,J1_8,GPIO15*%
%TO.N,LS1_3V3*%
X187840000Y-77600000D03*
%TO.P,U1,J1_9,GPIO16*%
%TO.N,unconnected-(U1-GPIO16-PadJ1_9)*%
X185300000Y-77600000D03*
%TO.P,U1,J1_10,GPIO17*%
%TO.N,LS2_3V3*%
X182760000Y-77600000D03*
%TO.P,U1,J1_11,GPIO18*%
%TO.N,unconnected-(U1-GPIO18-PadJ1_11)*%
X180220000Y-77600000D03*
%TO.P,U1,J1_12,GPIO8*%
%TO.N,KILLSWITCH*%
X177680000Y-77600000D03*
%TO.P,U1,J1_13,GPIO3*%
%TO.N,unconnected-(U1-GPIO3-PadJ1_13)*%
X175140000Y-77600000D03*
%TO.P,U1,J1_14,GPIO46*%
%TO.N,unconnected-(U1-GPIO46-PadJ1_14)*%
X172600000Y-77600000D03*
%TO.P,U1,J1_15,GPIO9*%
%TO.N,SCL*%
X170060000Y-77600000D03*
%TO.P,U1,J1_16,GPIO10*%
%TO.N,SDA*%
X167520000Y-77600000D03*
%TO.P,U1,J1_17,GPIO11*%
%TO.N,INT*%
X164980000Y-77600000D03*
%TO.P,U1,J1_18,GPIO12*%
%TO.N,PWMB*%
X162440000Y-77600000D03*
%TO.P,U1,J1_19,GPIO13*%
%TO.N,PWMA*%
X159900000Y-77600000D03*
%TO.P,U1,J1_20,GPIO14*%
%TO.N,unconnected-(U1-GPIO14-PadJ1_20)*%
X157360000Y-77600000D03*
%TO.P,U1,J1_21,5V0*%
%TO.N,+5V*%
X154820000Y-77600000D03*
%TO.P,U1,J1_22,GND*%
%TO.N,GND*%
X152280000Y-77600000D03*
%TO.P,U1,J3_1,GND*%
X205620000Y-100460000D03*
%TO.P,U1,J3_2,U0TXD/GPIO43*%
%TO.N,unconnected-(U1-U0TXD{slash}GPIO43-PadJ3_2)*%
X203080000Y-100460000D03*
%TO.P,U1,J3_3,U0RXD/GPIO44*%
%TO.N,unconnected-(U1-U0RXD{slash}GPIO44-PadJ3_3)*%
X200540000Y-100460000D03*
%TO.P,U1,J3_4,GPIO1*%
%TO.N,unconnected-(U1-GPIO1-PadJ3_4)*%
X198000000Y-100460000D03*
%TO.P,U1,J3_5,GPIO2*%
%TO.N,unconnected-(U1-GPIO2-PadJ3_5)*%
X195460000Y-100460000D03*
%TO.P,U1,J3_6,MTMS/GPIO42*%
%TO.N,unconnected-(U1-MTMS{slash}GPIO42-PadJ3_6)*%
X192920000Y-100460000D03*
%TO.P,U1,J3_7,MTDI/GPIO41*%
%TO.N,unconnected-(U1-MTDI{slash}GPIO41-PadJ3_7)*%
X190380000Y-100460000D03*
%TO.P,U1,J3_8,MTDO/GPIO40*%
%TO.N,unconnected-(U1-MTDO{slash}GPIO40-PadJ3_8)*%
X187840000Y-100460000D03*
%TO.P,U1,J3_9,MTCK/GPIO39*%
%TO.N,unconnected-(U1-MTCK{slash}GPIO39-PadJ3_9)*%
X185300000Y-100460000D03*
%TO.P,U1,J3_10,GPIO38*%
%TO.N,unconnected-(U1-GPIO38-PadJ3_10)*%
X182760000Y-100460000D03*
%TO.P,U1,J3_11,GPIO37*%
%TO.N,unconnected-(U1-GPIO37-PadJ3_11)*%
X180220000Y-100460000D03*
%TO.P,U1,J3_12,GPIO36*%
%TO.N,unconnected-(U1-GPIO36-PadJ3_12)*%
X177680000Y-100460000D03*
%TO.P,U1,J3_13,GPIO35*%
%TO.N,unconnected-(U1-GPIO35-PadJ3_13)*%
X175140000Y-100460000D03*
%TO.P,U1,J3_14,GPIO0*%
%TO.N,unconnected-(U1-GPIO0-PadJ3_14)*%
X172600000Y-100460000D03*
%TO.P,U1,J3_15,GPIO45*%
%TO.N,IR3_3V3*%
X170060000Y-100460000D03*
%TO.P,U1,J3_16,GPIO48*%
%TO.N,unconnected-(U1-GPIO48-PadJ3_16)*%
X167520000Y-100460000D03*
%TO.P,U1,J3_17,GPIO47*%
%TO.N,unconnected-(U1-GPIO47-PadJ3_17)*%
X164980000Y-100460000D03*
%TO.P,U1,J3_18,GPIO21*%
%TO.N,IR2_3V3*%
X162440000Y-100460000D03*
%TO.P,U1,J3_19,USB_D+/GPIO20*%
%TO.N,unconnected-(U1-USB_D+{slash}GPIO20-PadJ3_19)*%
X159900000Y-100460000D03*
%TO.P,U1,J3_20,USB_D-/GPIO19*%
%TO.N,IR1_3V3*%
X157360000Y-100460000D03*
%TO.P,U1,J3_21,GND*%
%TO.N,GND*%
X154820000Y-100460000D03*
%TO.P,U1,J3_22,GND*%
X152280000Y-100460000D03*
%TD*%
D11*
%TO.P,Battery1,2,Pin_2*%
%TO.N,GND*%
X196475000Y-109600000D03*
D12*
%TO.P,Battery1,1,Pin_1*%
%TO.N,+BATT*%
X196475000Y-112100000D03*
%TD*%
D13*
%TO.P,MA1,3,Pin_3*%
%TO.N,GND*%
X161300000Y-66190000D03*
%TO.P,MA1,2,Pin_2*%
%TO.N,Net-(MA1-Pin_2)*%
X161300000Y-68690000D03*
D14*
%TO.P,MA1,1,Pin_1*%
%TO.N,PWMA*%
X161300000Y-71190000D03*
%TD*%
D15*
%TO.P,LS1,3,Pin_3*%
%TO.N,+3V3*%
X194485000Y-66190000D03*
%TO.P,LS1,2,Pin_2*%
%TO.N,LS1_3V3*%
X194485000Y-68690000D03*
D16*
%TO.P,LS1,1,Pin_1*%
%TO.N,GND*%
X194485000Y-71190000D03*
%TD*%
D17*
%TO.P,DIP1,1*%
%TO.N,+3V3*%
X212600000Y-64932500D03*
D18*
%TO.P,DIP1,2*%
X210060000Y-64932500D03*
%TO.P,DIP1,3*%
X207520000Y-64932500D03*
%TO.P,DIP1,4*%
X204980000Y-64932500D03*
%TO.P,DIP1,5*%
%TO.N,S4*%
X204980000Y-72552500D03*
%TO.P,DIP1,6*%
%TO.N,S3*%
X207520000Y-72552500D03*
%TO.P,DIP1,7*%
%TO.N,S2*%
X210060000Y-72552500D03*
%TO.P,DIP1,8*%
%TO.N,S1*%
X212600000Y-72552500D03*
%TD*%
D19*
%TO.P,,1*%
%TO.N,N/C*%
X221920000Y-68049999D03*
%TD*%
%TO.P,,1*%
%TO.N,N/C*%
X146919999Y-111049999D03*
%TD*%
D20*
%TO.P,SW1,1,A*%
%TO.N,Net-(MA1-Pin_2)*%
X155300000Y-71300000D03*
D21*
%TO.P,SW1,2,B*%
%TO.N,+5V*%
X155300000Y-68800000D03*
%TO.P,SW1,3,C*%
%TO.N,Net-(MB1-Pin_2)*%
X155300000Y-66300000D03*
%TD*%
D13*
%TO.P,MB1,3,Pin_3*%
%TO.N,GND*%
X169600000Y-66190000D03*
%TO.P,MB1,2,Pin_2*%
%TO.N,Net-(MB1-Pin_2)*%
X169600000Y-68690000D03*
D14*
%TO.P,MB1,1,Pin_1*%
%TO.N,PWMB*%
X169600000Y-71190000D03*
%TD*%
D11*
%TO.P,MotorA1,2,Pin_2*%
%TO.N,GND*%
X181690000Y-109600000D03*
D12*
%TO.P,MotorA1,1,Pin_1*%
%TO.N,+BATT*%
X181690000Y-112100000D03*
%TD*%
D16*
%TO.P,IR3,1,Pin_1*%
%TO.N,+12V*%
X168260000Y-112100000D03*
D15*
%TO.P,IR3,2,Pin_2*%
%TO.N,IR3_3V3*%
X168260000Y-109600000D03*
%TO.P,IR3,3,Pin_3*%
%TO.N,GND*%
X168260000Y-107100000D03*
%TD*%
D22*
%TO.P,IMU1,1,VCC*%
%TO.N,+3V3*%
X215960000Y-77630000D03*
D23*
%TO.P,IMU1,2,GND*%
%TO.N,GND*%
X215960000Y-80170000D03*
%TO.P,IMU1,3,SCL*%
%TO.N,SCL*%
X215960000Y-82710000D03*
%TO.P,IMU1,4,SDA*%
%TO.N,SDA*%
X215960000Y-85250000D03*
%TO.P,IMU1,5,EDA*%
%TO.N,unconnected-(IMU1-EDA-Pad5)*%
X215960000Y-87790000D03*
%TO.P,IMU1,6,ECL*%
%TO.N,unconnected-(IMU1-ECL-Pad6)*%
X215960000Y-90330000D03*
%TO.P,IMU1,7,ADO*%
%TO.N,unconnected-(IMU1-ADO-Pad7)*%
X215960000Y-92870000D03*
%TO.P,IMU1,8,INT*%
%TO.N,INT*%
X215960000Y-95410000D03*
%TO.P,IMU1,9,NCS*%
%TO.N,unconnected-(IMU1-NCS-Pad9)*%
X215960000Y-97950000D03*
%TO.P,IMU1,10,FSYNC*%
%TO.N,unconnected-(IMU1-FSYNC-Pad10)*%
X215960000Y-100490000D03*
%TD*%
D24*
%TO.P,BUCK1,1,VIN*%
%TO.N,+BATT*%
X204030000Y-113500000D03*
%TO.P,BUCK1,2,GND*%
%TO.N,GND*%
X204030000Y-104500000D03*
%TO.P,BUCK1,3,VOUT*%
%TO.N,+3V3S*%
X220570000Y-113500000D03*
%TO.P,BUCK1,4,GND*%
%TO.N,GND*%
X220570000Y-104500000D03*
%TD*%
D15*
%TO.P,LS2,3,Pin_3*%
%TO.N,+3V3*%
X186200000Y-66190000D03*
%TO.P,LS2,2,Pin_2*%
%TO.N,LS2_3V3*%
X186200000Y-68690000D03*
D16*
%TO.P,LS2,1,Pin_1*%
%TO.N,GND*%
X186200000Y-71190000D03*
%TD*%
D11*
%TO.P,MotorB1,2,Pin_2*%
%TO.N,GND*%
X189082500Y-109600000D03*
D12*
%TO.P,MotorB1,1,Pin_1*%
%TO.N,+BATT*%
X189082500Y-112100000D03*
%TD*%
D15*
%TO.P,IR1,3,Pin_3*%
%TO.N,GND*%
X153475000Y-107100000D03*
%TO.P,IR1,2,Pin_2*%
%TO.N,IR1_3V3*%
X153475000Y-109600000D03*
D16*
%TO.P,IR1,1,Pin_1*%
%TO.N,+12V*%
X153475000Y-112100000D03*
%TD*%
D15*
%TO.P,KS1,3,Pin_3*%
%TO.N,+3V3*%
X177900000Y-66190000D03*
%TO.P,KS1,2,Pin_2*%
%TO.N,KILLSWITCH*%
X177900000Y-68690000D03*
D16*
%TO.P,KS1,1,Pin_1*%
%TO.N,GND*%
X177900000Y-71190000D03*
%TD*%
%TO.P,IR2,1,Pin_1*%
%TO.N,+12V*%
X160867500Y-112100000D03*
D15*
%TO.P,IR2,2,Pin_2*%
%TO.N,IR2_3V3*%
X160867500Y-109600000D03*
%TO.P,IR2,3,Pin_3*%
%TO.N,GND*%
X160867500Y-107100000D03*
%TD*%
D19*
%TO.P,,1*%
%TO.N,N/C*%
X146920000Y-68000000D03*
%TD*%
D20*
%TO.P,SW2,1,A*%
%TO.N,+BATT*%
X175797500Y-112100000D03*
D21*
%TO.P,SW2,2,B*%
%TO.N,+12V*%
X175797500Y-109600000D03*
%TO.P,SW2,3,C*%
%TO.N,unconnected-(SW2-C-Pad3)*%
X175797500Y-107100000D03*
%TD*%
%TA.AperFunction,Conductor*%
%TO.N,GND*%
G36*
X148091740Y-64495076D02*
G01*
X203574004Y-64552386D01*
X203641021Y-64572140D01*
X203686722Y-64624991D01*
X203696594Y-64694160D01*
X203695296Y-64700472D01*
X203695306Y-64700474D01*
X203694364Y-64705813D01*
X203674532Y-64932498D01*
X203674532Y-64932501D01*
X203694364Y-65159186D01*
X203694366Y-65159197D01*
X203753258Y-65378988D01*
X203753261Y-65378997D01*
X203849431Y-65585232D01*
X203849432Y-65585234D01*
X203979954Y-65771641D01*
X204140858Y-65932545D01*
X204140861Y-65932547D01*
X204327266Y-66063068D01*
X204533504Y-66159239D01*
X204753308Y-66218135D01*
X204915230Y-66232301D01*
X204979998Y-66237968D01*
X204980000Y-66237968D01*
X204980002Y-66237968D01*
X205036807Y-66232998D01*
X205206692Y-66218135D01*
X205426496Y-66159239D01*
X205632734Y-66063068D01*
X205819139Y-65932547D01*
X205980047Y-65771639D01*
X206110568Y-65585234D01*
X206137618Y-65527224D01*
X206183790Y-65474785D01*
X206250983Y-65455633D01*
X206317865Y-65475848D01*
X206362382Y-65527225D01*
X206389429Y-65585228D01*
X206389432Y-65585234D01*
X206519954Y-65771641D01*
X206680858Y-65932545D01*
X206680861Y-65932547D01*
X206867266Y-66063068D01*
X207073504Y-66159239D01*
X207293308Y-66218135D01*
X207455230Y-66232301D01*
X207519998Y-66237968D01*
X207520000Y-66237968D01*
X207520002Y-66237968D01*
X207576807Y-66232998D01*
X207746692Y-66218135D01*
X207966496Y-66159239D01*
X208172734Y-66063068D01*
X208359139Y-65932547D01*
X208520047Y-65771639D01*
X208650568Y-65585234D01*
X208677618Y-65527224D01*
X208723790Y-65474785D01*
X208790983Y-65455633D01*
X208857865Y-65475848D01*
X208902382Y-65527225D01*
X208929429Y-65585228D01*
X208929432Y-65585234D01*
X209059954Y-65771641D01*
X209220858Y-65932545D01*
X209220861Y-65932547D01*
X209407266Y-66063068D01*
X209613504Y-66159239D01*
X209833308Y-66218135D01*
X209995230Y-66232301D01*
X210059998Y-66237968D01*
X210060000Y-66237968D01*
X210060002Y-66237968D01*
X210116807Y-66232998D01*
X210286692Y-66218135D01*
X210506496Y-66159239D01*
X210712734Y-66063068D01*
X210899139Y-65932547D01*
X211060047Y-65771639D01*
X211077272Y-65747039D01*
X211131848Y-65703413D01*
X211201346Y-65696218D01*
X211263701Y-65727739D01*
X211299116Y-65787968D01*
X211302138Y-65804906D01*
X211305908Y-65839983D01*
X211356202Y-65974828D01*
X211356206Y-65974835D01*
X211442452Y-66090044D01*
X211442455Y-66090047D01*
X211557664Y-66176293D01*
X211557671Y-66176297D01*
X211692517Y-66226591D01*
X211692516Y-66226591D01*
X211699444Y-66227335D01*
X211752127Y-66233000D01*
X213447872Y-66232999D01*
X213507483Y-66226591D01*
X213642331Y-66176296D01*
X213757546Y-66090046D01*
X213843796Y-65974831D01*
X213894091Y-65839983D01*
X213900500Y-65780373D01*
X213900499Y-64687179D01*
X213920184Y-64620142D01*
X213972987Y-64574387D01*
X214024623Y-64563181D01*
X223467108Y-64572935D01*
X223475892Y-64573256D01*
X223672634Y-64587457D01*
X223745792Y-64592738D01*
X223763210Y-64595247D01*
X224023325Y-64651799D01*
X224040200Y-64656745D01*
X224289700Y-64749554D01*
X224305701Y-64756836D01*
X224472154Y-64847371D01*
X224539549Y-64884028D01*
X224554372Y-64893512D01*
X224767848Y-65052517D01*
X224781179Y-65064003D01*
X224970000Y-65251627D01*
X224981572Y-65264886D01*
X225141935Y-65477356D01*
X225151512Y-65492118D01*
X225280179Y-65725139D01*
X225287568Y-65741103D01*
X225381958Y-65990004D01*
X225387014Y-66006859D01*
X225445216Y-66266597D01*
X225447836Y-66283999D01*
X225469030Y-66553769D01*
X225469408Y-66562565D01*
X225814373Y-113266307D01*
X225795184Y-113333490D01*
X225794957Y-113333848D01*
X225608685Y-113626238D01*
X225602480Y-113635100D01*
X225370111Y-113937928D01*
X225363158Y-113946214D01*
X225105279Y-114227641D01*
X225097629Y-114235290D01*
X224816217Y-114493156D01*
X224807930Y-114500110D01*
X224674751Y-114602301D01*
X224626570Y-114624881D01*
X224443947Y-114666107D01*
X224425810Y-114668812D01*
X224144604Y-114689661D01*
X224135436Y-114690000D01*
X223530202Y-114690000D01*
X223463163Y-114670315D01*
X223417408Y-114617511D01*
X223407464Y-114548353D01*
X223427902Y-114495923D01*
X223429798Y-114493155D01*
X223464629Y-114442308D01*
X223553670Y-114240649D01*
X223604141Y-114026062D01*
X223610500Y-113934445D01*
X223610499Y-113065556D01*
X223607291Y-113019336D01*
X223604141Y-112973940D01*
X223604140Y-112973931D01*
X223553672Y-112759359D01*
X223553671Y-112759357D01*
X223553670Y-112759351D01*
X223549542Y-112750001D01*
X223464630Y-112557694D01*
X223464629Y-112557692D01*
X223340049Y-112375827D01*
X223184173Y-112219951D01*
X223002308Y-112095371D01*
X223002307Y-112095370D01*
X223002305Y-112095369D01*
X222800655Y-112006332D01*
X222800640Y-112006327D01*
X222586072Y-111955860D01*
X222586056Y-111955858D01*
X222494448Y-111949500D01*
X218645551Y-111949500D01*
X218553940Y-111955858D01*
X218553931Y-111955859D01*
X218339359Y-112006327D01*
X218339344Y-112006332D01*
X218137694Y-112095369D01*
X217955828Y-112219950D01*
X217955822Y-112219955D01*
X217799955Y-112375822D01*
X217799950Y-112375828D01*
X217675369Y-112557694D01*
X217586332Y-112759344D01*
X217586327Y-112759359D01*
X217535860Y-112973927D01*
X217535858Y-112973943D01*
X217529500Y-113065551D01*
X217529500Y-113934448D01*
X217535858Y-114026059D01*
X217535859Y-114026068D01*
X217586327Y-114240640D01*
X217586332Y-114240655D01*
X217675369Y-114442305D01*
X217712098Y-114495923D01*
X217733744Y-114562355D01*
X217716039Y-114629944D01*
X217664603Y-114677232D01*
X217609798Y-114690000D01*
X206990202Y-114690000D01*
X206923163Y-114670315D01*
X206877408Y-114617511D01*
X206867464Y-114548353D01*
X206887902Y-114495923D01*
X206889798Y-114493155D01*
X206924629Y-114442308D01*
X207013670Y-114240649D01*
X207064141Y-114026062D01*
X207070500Y-113934445D01*
X207070499Y-113065556D01*
X207067291Y-113019336D01*
X207064141Y-112973940D01*
X207064140Y-112973931D01*
X207013672Y-112759359D01*
X207013671Y-112759357D01*
X207013670Y-112759351D01*
X207009542Y-112750001D01*
X206924630Y-112557694D01*
X206924629Y-112557692D01*
X206800049Y-112375827D01*
X206644173Y-112219951D01*
X206462308Y-112095371D01*
X206462307Y-112095370D01*
X206462305Y-112095369D01*
X206260655Y-112006332D01*
X206260640Y-112006327D01*
X206046072Y-111955860D01*
X206046056Y-111955858D01*
X205954448Y-111949500D01*
X202105551Y-111949500D01*
X202013940Y-111955858D01*
X202013931Y-111955859D01*
X201799359Y-112006327D01*
X201799344Y-112006332D01*
X201597694Y-112095369D01*
X201415828Y-112219950D01*
X201415822Y-112219955D01*
X201259955Y-112375822D01*
X201259950Y-112375828D01*
X201135369Y-112557694D01*
X201046332Y-112759344D01*
X201046327Y-112759359D01*
X200995860Y-112973927D01*
X200995858Y-112973943D01*
X200989500Y-113065551D01*
X200989500Y-113934448D01*
X200995858Y-114026059D01*
X200995859Y-114026068D01*
X201046327Y-114240640D01*
X201046332Y-114240655D01*
X201135369Y-114442305D01*
X201172098Y-114495923D01*
X201193744Y-114562355D01*
X201176039Y-114629944D01*
X201124603Y-114677232D01*
X201069798Y-114690000D01*
X144321631Y-114690000D01*
X144254592Y-114670315D01*
X144246160Y-114664387D01*
X144032062Y-114500104D01*
X144023782Y-114493155D01*
X143742364Y-114235283D01*
X143734715Y-114227634D01*
X143476843Y-113946216D01*
X143469889Y-113937929D01*
X143237518Y-113635096D01*
X143231323Y-113626249D01*
X143029418Y-113309323D01*
X143010000Y-113242700D01*
X143010000Y-111049999D01*
X144214563Y-111049999D01*
X144234288Y-111376098D01*
X144293177Y-111697451D01*
X144390365Y-112009341D01*
X144390369Y-112009353D01*
X144390372Y-112009360D01*
X144524454Y-112307278D01*
X144675835Y-112557692D01*
X144693472Y-112586867D01*
X144894953Y-112844038D01*
X145125959Y-113075044D01*
X145383130Y-113276525D01*
X145383133Y-113276527D01*
X145383136Y-113276529D01*
X145662720Y-113445544D01*
X145960638Y-113579626D01*
X145960651Y-113579630D01*
X145960656Y-113579632D01*
X146124881Y-113630806D01*
X146272546Y-113676820D01*
X146593895Y-113735709D01*
X146919999Y-113755435D01*
X147246103Y-113735709D01*
X147567452Y-113676820D01*
X147879360Y-113579626D01*
X148177278Y-113445544D01*
X148456862Y-113276529D01*
X148714035Y-113075047D01*
X148945047Y-112844035D01*
X149146529Y-112586862D01*
X149315544Y-112307278D01*
X149449626Y-112009360D01*
X149546820Y-111697452D01*
X149605709Y-111376103D01*
X149625435Y-111049999D01*
X149605709Y-110723895D01*
X149546820Y-110402546D01*
X149500969Y-110255405D01*
X149449632Y-110090656D01*
X149449630Y-110090651D01*
X149449626Y-110090638D01*
X149315544Y-109792720D01*
X149146529Y-109513136D01*
X149146527Y-109513133D01*
X149146525Y-109513130D01*
X149131313Y-109493713D01*
X151512000Y-109493713D01*
X151512000Y-109706287D01*
X151545254Y-109916243D01*
X151601924Y-110090656D01*
X151610944Y-110118414D01*
X151707451Y-110307820D01*
X151832390Y-110479786D01*
X151971205Y-110618601D01*
X152004690Y-110679924D01*
X151999706Y-110749616D01*
X151957834Y-110805549D01*
X151948621Y-110811821D01*
X151793842Y-110907289D01*
X151669789Y-111031342D01*
X151577687Y-111180663D01*
X151577685Y-111180668D01*
X151549849Y-111264670D01*
X151522501Y-111347203D01*
X151522501Y-111347204D01*
X151522500Y-111347204D01*
X151512000Y-111449983D01*
X151512000Y-112750001D01*
X151512001Y-112750018D01*
X151522500Y-112852796D01*
X151522501Y-112852799D01*
X151562641Y-112973931D01*
X151577686Y-113019334D01*
X151669788Y-113168656D01*
X151793844Y-113292712D01*
X151943166Y-113384814D01*
X152109703Y-113439999D01*
X152212491Y-113450500D01*
X154737508Y-113450499D01*
X154840297Y-113439999D01*
X155006834Y-113384814D01*
X155156156Y-113292712D01*
X155280212Y-113168656D01*
X155372314Y-113019334D01*
X155427499Y-112852797D01*
X155438000Y-112750009D01*
X155437999Y-111449992D01*
X155427499Y-111347203D01*
X155372314Y-111180666D01*
X155280212Y-111031344D01*
X155156156Y-110907288D01*
X155006834Y-110815186D01*
X155006833Y-110815185D01*
X155001378Y-110811821D01*
X154954654Y-110759873D01*
X154943431Y-110690910D01*
X154971275Y-110626828D01*
X154978772Y-110618623D01*
X155117604Y-110479792D01*
X155242551Y-110307816D01*
X155339057Y-110118412D01*
X155404746Y-109916243D01*
X155438000Y-109706287D01*
X155438000Y-109493713D01*
X158904500Y-109493713D01*
X158904500Y-109706287D01*
X158937754Y-109916243D01*
X158994424Y-110090656D01*
X159003444Y-110118414D01*
X159099951Y-110307820D01*
X159224890Y-110479786D01*
X159363705Y-110618601D01*
X159397190Y-110679924D01*
X159392206Y-110749616D01*
X159350334Y-110805549D01*
X159341121Y-110811821D01*
X159186342Y-110907289D01*
X159062289Y-111031342D01*
X158970187Y-111180663D01*
X158970185Y-111180668D01*
X158942349Y-111264670D01*
X158915001Y-111347203D01*
X158915001Y-111347204D01*
X158915000Y-111347204D01*
X158904500Y-111449983D01*
X158904500Y-112750001D01*
X158904501Y-112750018D01*
X158915000Y-112852796D01*
X158915001Y-112852799D01*
X158955141Y-112973931D01*
X158970186Y-113019334D01*
X159062288Y-113168656D01*
X159186344Y-113292712D01*
X159335666Y-113384814D01*
X159502203Y-113439999D01*
X159604991Y-113450500D01*
X162130008Y-113450499D01*
X162232797Y-113439999D01*
X162399334Y-113384814D01*
X162548656Y-113292712D01*
X162672712Y-113168656D01*
X162764814Y-113019334D01*
X162819999Y-112852797D01*
X162830500Y-112750009D01*
X162830499Y-111449992D01*
X162819999Y-111347203D01*
X162764814Y-111180666D01*
X162672712Y-111031344D01*
X162548656Y-110907288D01*
X162399334Y-110815186D01*
X162399333Y-110815185D01*
X162393878Y-110811821D01*
X162347154Y-110759873D01*
X162335931Y-110690910D01*
X162363775Y-110626828D01*
X162371272Y-110618623D01*
X162510104Y-110479792D01*
X162635051Y-110307816D01*
X162731557Y-110118412D01*
X162797246Y-109916243D01*
X162830500Y-109706287D01*
X162830500Y-109493713D01*
X166297000Y-109493713D01*
X166297000Y-109706287D01*
X166330254Y-109916243D01*
X166386924Y-110090656D01*
X166395944Y-110118414D01*
X166492451Y-110307820D01*
X166617390Y-110479786D01*
X166756205Y-110618601D01*
X166789690Y-110679924D01*
X166784706Y-110749616D01*
X166742834Y-110805549D01*
X166733621Y-110811821D01*
X166578842Y-110907289D01*
X166454789Y-111031342D01*
X166362687Y-111180663D01*
X166362685Y-111180668D01*
X166334849Y-111264670D01*
X166307501Y-111347203D01*
X166307501Y-111347204D01*
X166307500Y-111347204D01*
X166297000Y-111449983D01*
X166297000Y-112750001D01*
X166297001Y-112750018D01*
X166307500Y-112852796D01*
X166307501Y-112852799D01*
X166347641Y-112973931D01*
X166362686Y-113019334D01*
X166454788Y-113168656D01*
X166578844Y-113292712D01*
X166728166Y-113384814D01*
X166894703Y-113439999D01*
X166997491Y-113450500D01*
X169522508Y-113450499D01*
X169625297Y-113439999D01*
X169791834Y-113384814D01*
X169941156Y-113292712D01*
X170065212Y-113168656D01*
X170157314Y-113019334D01*
X170212499Y-112852797D01*
X170223000Y-112750009D01*
X170222999Y-111449992D01*
X170212499Y-111347203D01*
X170157314Y-111180666D01*
X170065212Y-111031344D01*
X169941156Y-110907288D01*
X169791834Y-110815186D01*
X169791833Y-110815185D01*
X169786378Y-110811821D01*
X169739654Y-110759873D01*
X169728431Y-110690910D01*
X169756275Y-110626828D01*
X169763772Y-110618623D01*
X169902604Y-110479792D01*
X170027551Y-110307816D01*
X170124057Y-110118412D01*
X170189746Y-109916243D01*
X170223000Y-109706287D01*
X170223000Y-109493713D01*
X170189746Y-109283757D01*
X170124057Y-109081588D01*
X170027551Y-108892184D01*
X170027549Y-108892181D01*
X170027548Y-108892179D01*
X169902609Y-108720213D01*
X169752286Y-108569890D01*
X169580320Y-108444951D01*
X169390914Y-108348444D01*
X169390913Y-108348443D01*
X169390912Y-108348443D01*
X169188743Y-108282754D01*
X169188741Y-108282753D01*
X169188740Y-108282753D01*
X169027457Y-108257208D01*
X168978787Y-108249500D01*
X167541213Y-108249500D01*
X167492542Y-108257208D01*
X167331260Y-108282753D01*
X167331257Y-108282754D01*
X167140639Y-108344690D01*
X167129085Y-108348444D01*
X166939679Y-108444951D01*
X166767713Y-108569890D01*
X166617390Y-108720213D01*
X166492451Y-108892179D01*
X166395944Y-109081585D01*
X166330253Y-109283760D01*
X166326545Y-109307173D01*
X166297000Y-109493713D01*
X162830500Y-109493713D01*
X162797246Y-109283757D01*
X162731557Y-109081588D01*
X162635051Y-108892184D01*
X162635049Y-108892181D01*
X162635048Y-108892179D01*
X162510109Y-108720213D01*
X162359786Y-108569890D01*
X162187820Y-108444951D01*
X161998414Y-108348444D01*
X161998413Y-108348443D01*
X161998412Y-108348443D01*
X161796243Y-108282754D01*
X161796241Y-108282753D01*
X161796240Y-108282753D01*
X161634957Y-108257208D01*
X161586287Y-108249500D01*
X160148713Y-108249500D01*
X160100042Y-108257208D01*
X159938760Y-108282753D01*
X159938757Y-108282754D01*
X159748139Y-108344690D01*
X159736585Y-108348444D01*
X159547179Y-108444951D01*
X159375213Y-108569890D01*
X159224890Y-108720213D01*
X159099951Y-108892179D01*
X159003444Y-109081585D01*
X158937753Y-109283760D01*
X158934045Y-109307173D01*
X158904500Y-109493713D01*
X155438000Y-109493713D01*
X155404746Y-109283757D01*
X155339057Y-109081588D01*
X155242551Y-108892184D01*
X155242549Y-108892181D01*
X155242548Y-108892179D01*
X155117609Y-108720213D01*
X154967286Y-108569890D01*
X154795320Y-108444951D01*
X154605914Y-108348444D01*
X154605913Y-108348443D01*
X154605912Y-108348443D01*
X154403743Y-108282754D01*
X154403741Y-108282753D01*
X154403740Y-108282753D01*
X154242457Y-108257208D01*
X154193787Y-108249500D01*
X152756213Y-108249500D01*
X152707542Y-108257208D01*
X152546260Y-108282753D01*
X152546257Y-108282754D01*
X152355639Y-108344690D01*
X152344085Y-108348444D01*
X152154679Y-108444951D01*
X151982713Y-108569890D01*
X151832390Y-108720213D01*
X151707451Y-108892179D01*
X151610944Y-109081585D01*
X151545253Y-109283760D01*
X151541545Y-109307173D01*
X151512000Y-109493713D01*
X149131313Y-109493713D01*
X148945044Y-109255959D01*
X148714038Y-109024953D01*
X148456867Y-108823472D01*
X148393807Y-108785351D01*
X148177278Y-108654454D01*
X147879360Y-108520372D01*
X147879353Y-108520369D01*
X147879341Y-108520365D01*
X147567451Y-108423177D01*
X147246098Y-108364288D01*
X146919999Y-108344563D01*
X146593899Y-108364288D01*
X146272546Y-108423177D01*
X145960656Y-108520365D01*
X145960640Y-108520371D01*
X145960638Y-108520372D01*
X145770932Y-108605751D01*
X145662724Y-108654452D01*
X145662722Y-108654453D01*
X145383130Y-108823472D01*
X145125959Y-109024953D01*
X144894953Y-109255959D01*
X144693472Y-109513130D01*
X144524453Y-109792722D01*
X144524452Y-109792724D01*
X144390371Y-110090641D01*
X144390365Y-110090656D01*
X144293177Y-110402546D01*
X144234288Y-110723899D01*
X144214563Y-111049999D01*
X143010000Y-111049999D01*
X143010000Y-107001577D01*
X174047000Y-107001577D01*
X174047000Y-107198422D01*
X174077790Y-107392826D01*
X174138617Y-107580029D01*
X174227976Y-107755405D01*
X174343672Y-107914646D01*
X174482854Y-108053828D01*
X174642095Y-108169524D01*
X174711113Y-108204690D01*
X174779460Y-108239515D01*
X174830256Y-108287490D01*
X174847051Y-108355311D01*
X174824514Y-108421446D01*
X174779460Y-108460485D01*
X174642094Y-108530476D01*
X174587838Y-108569896D01*
X174482854Y-108646172D01*
X174482852Y-108646174D01*
X174482851Y-108646174D01*
X174343674Y-108785351D01*
X174343674Y-108785352D01*
X174343672Y-108785354D01*
X174293985Y-108853741D01*
X174227976Y-108944594D01*
X174138617Y-109119970D01*
X174077790Y-109307173D01*
X174047000Y-109501577D01*
X174047000Y-109698422D01*
X174077790Y-109892826D01*
X174138617Y-110080029D01*
X174227976Y-110255405D01*
X174343672Y-110414646D01*
X174482854Y-110553828D01*
X174581066Y-110625183D01*
X174623730Y-110680512D01*
X174629709Y-110750125D01*
X174597103Y-110811920D01*
X174536264Y-110846278D01*
X174508189Y-110849500D01*
X174499635Y-110849500D01*
X174499623Y-110849501D01*
X174440016Y-110855908D01*
X174305171Y-110906202D01*
X174305164Y-110906206D01*
X174189955Y-110992452D01*
X174189952Y-110992455D01*
X174103706Y-111107664D01*
X174103702Y-111107671D01*
X174053408Y-111242517D01*
X174047001Y-111302116D01*
X174047001Y-111302123D01*
X174047000Y-111302135D01*
X174047000Y-112897870D01*
X174047001Y-112897876D01*
X174053408Y-112957483D01*
X174103702Y-113092328D01*
X174103706Y-113092335D01*
X174189952Y-113207544D01*
X174189955Y-113207547D01*
X174305164Y-113293793D01*
X174305171Y-113293797D01*
X174440017Y-113344091D01*
X174440016Y-113344091D01*
X174446944Y-113344835D01*
X174499627Y-113350500D01*
X177095372Y-113350499D01*
X177154983Y-113344091D01*
X177289831Y-113293796D01*
X177405046Y-113207546D01*
X177491296Y-113092331D01*
X177541591Y-112957483D01*
X177548000Y-112897873D01*
X177547999Y-111449983D01*
X180189500Y-111449983D01*
X180189500Y-112750001D01*
X180189501Y-112750018D01*
X180200000Y-112852796D01*
X180200001Y-112852799D01*
X180240141Y-112973931D01*
X180255186Y-113019334D01*
X180347288Y-113168656D01*
X180471344Y-113292712D01*
X180620666Y-113384814D01*
X180787203Y-113439999D01*
X180889991Y-113450500D01*
X182490008Y-113450499D01*
X182592797Y-113439999D01*
X182759334Y-113384814D01*
X182908656Y-113292712D01*
X183032712Y-113168656D01*
X183124814Y-113019334D01*
X183179999Y-112852797D01*
X183190500Y-112750009D01*
X183190499Y-111449992D01*
X183190498Y-111449983D01*
X187582000Y-111449983D01*
X187582000Y-112750001D01*
X187582001Y-112750018D01*
X187592500Y-112852796D01*
X187592501Y-112852799D01*
X187632641Y-112973931D01*
X187647686Y-113019334D01*
X187739788Y-113168656D01*
X187863844Y-113292712D01*
X188013166Y-113384814D01*
X188179703Y-113439999D01*
X188282491Y-113450500D01*
X189882508Y-113450499D01*
X189985297Y-113439999D01*
X190151834Y-113384814D01*
X190301156Y-113292712D01*
X190425212Y-113168656D01*
X190517314Y-113019334D01*
X190572499Y-112852797D01*
X190583000Y-112750009D01*
X190582999Y-111449992D01*
X190582998Y-111449983D01*
X194974500Y-111449983D01*
X194974500Y-112750001D01*
X194974501Y-112750018D01*
X194985000Y-112852796D01*
X194985001Y-112852799D01*
X195025141Y-112973931D01*
X195040186Y-113019334D01*
X195132288Y-113168656D01*
X195256344Y-113292712D01*
X195405666Y-113384814D01*
X195572203Y-113439999D01*
X195674991Y-113450500D01*
X197275008Y-113450499D01*
X197377797Y-113439999D01*
X197544334Y-113384814D01*
X197693656Y-113292712D01*
X197817712Y-113168656D01*
X197909814Y-113019334D01*
X197964999Y-112852797D01*
X197975500Y-112750009D01*
X197975499Y-111449992D01*
X197964999Y-111347203D01*
X197909814Y-111180666D01*
X197817712Y-111031344D01*
X197693656Y-110907288D01*
X197544334Y-110815186D01*
X197377797Y-110760001D01*
X197377795Y-110760000D01*
X197275010Y-110749500D01*
X195674998Y-110749500D01*
X195674981Y-110749501D01*
X195572203Y-110760000D01*
X195572200Y-110760001D01*
X195405668Y-110815185D01*
X195405663Y-110815187D01*
X195256342Y-110907289D01*
X195132289Y-111031342D01*
X195040187Y-111180663D01*
X195040185Y-111180668D01*
X195012349Y-111264670D01*
X194985001Y-111347203D01*
X194985001Y-111347204D01*
X194985000Y-111347204D01*
X194974500Y-111449983D01*
X190582998Y-111449983D01*
X190572499Y-111347203D01*
X190517314Y-111180666D01*
X190425212Y-111031344D01*
X190301156Y-110907288D01*
X190151834Y-110815186D01*
X189985297Y-110760001D01*
X189985295Y-110760000D01*
X189882510Y-110749500D01*
X188282498Y-110749500D01*
X188282481Y-110749501D01*
X188179703Y-110760000D01*
X188179700Y-110760001D01*
X188013168Y-110815185D01*
X188013163Y-110815187D01*
X187863842Y-110907289D01*
X187739789Y-111031342D01*
X187647687Y-111180663D01*
X187647685Y-111180668D01*
X187619849Y-111264670D01*
X187592501Y-111347203D01*
X187592501Y-111347204D01*
X187592500Y-111347204D01*
X187582000Y-111449983D01*
X183190498Y-111449983D01*
X183179999Y-111347203D01*
X183124814Y-111180666D01*
X183032712Y-111031344D01*
X182908656Y-110907288D01*
X182759334Y-110815186D01*
X182592797Y-110760001D01*
X182592795Y-110760000D01*
X182490010Y-110749500D01*
X180889998Y-110749500D01*
X180889981Y-110749501D01*
X180787203Y-110760000D01*
X180787200Y-110760001D01*
X180620668Y-110815185D01*
X180620663Y-110815187D01*
X180471342Y-110907289D01*
X180347289Y-111031342D01*
X180255187Y-111180663D01*
X180255185Y-111180668D01*
X180227349Y-111264670D01*
X180200001Y-111347203D01*
X180200001Y-111347204D01*
X180200000Y-111347204D01*
X180189500Y-111449983D01*
X177547999Y-111449983D01*
X177547999Y-111302128D01*
X177541591Y-111242517D01*
X177491296Y-111107669D01*
X177491295Y-111107668D01*
X177491293Y-111107664D01*
X177405047Y-110992455D01*
X177405044Y-110992452D01*
X177289835Y-110906206D01*
X177289828Y-110906202D01*
X177154982Y-110855908D01*
X177154983Y-110855908D01*
X177095383Y-110849501D01*
X177095381Y-110849500D01*
X177095373Y-110849500D01*
X177095365Y-110849500D01*
X177086822Y-110849500D01*
X177019783Y-110829815D01*
X176974028Y-110777011D01*
X176964084Y-110707853D01*
X176993109Y-110644297D01*
X177013936Y-110625182D01*
X177022995Y-110618600D01*
X177112146Y-110553828D01*
X177251328Y-110414646D01*
X177367024Y-110255405D01*
X177456384Y-110080025D01*
X177517209Y-109892826D01*
X177548000Y-109698422D01*
X177548000Y-109501577D01*
X177517209Y-109307173D01*
X177456382Y-109119970D01*
X177367023Y-108944594D01*
X177251328Y-108785354D01*
X177112146Y-108646172D01*
X176952905Y-108530476D01*
X176815538Y-108460484D01*
X176764743Y-108412511D01*
X176747948Y-108344690D01*
X176770485Y-108278555D01*
X176815539Y-108239515D01*
X176952905Y-108169524D01*
X177112146Y-108053828D01*
X177251328Y-107914646D01*
X177367024Y-107755405D01*
X177456384Y-107580025D01*
X177517209Y-107392826D01*
X177548000Y-107198422D01*
X177548000Y-107001577D01*
X177517209Y-106807173D01*
X177456382Y-106619970D01*
X177367023Y-106444594D01*
X177251328Y-106285354D01*
X177112146Y-106146172D01*
X176952905Y-106030476D01*
X176777529Y-105941117D01*
X176590326Y-105880290D01*
X176395922Y-105849500D01*
X176395917Y-105849500D01*
X175199083Y-105849500D01*
X175199078Y-105849500D01*
X175004673Y-105880290D01*
X174817470Y-105941117D01*
X174642094Y-106030476D01*
X174551241Y-106096485D01*
X174482854Y-106146172D01*
X174482852Y-106146174D01*
X174482851Y-106146174D01*
X174343674Y-106285351D01*
X174343674Y-106285352D01*
X174343672Y-106285354D01*
X174293985Y-106353741D01*
X174227976Y-106444594D01*
X174138617Y-106619970D01*
X174077790Y-106807173D01*
X174047000Y-107001577D01*
X143010000Y-107001577D01*
X143010000Y-99851966D01*
X156094500Y-99851966D01*
X156094500Y-101068028D01*
X156094501Y-101068034D01*
X156105113Y-101187415D01*
X156161089Y-101383045D01*
X156161090Y-101383048D01*
X156161091Y-101383049D01*
X156255302Y-101563407D01*
X156255304Y-101563409D01*
X156383890Y-101721109D01*
X156436376Y-101763905D01*
X156541593Y-101849698D01*
X156721951Y-101943909D01*
X156917582Y-101999886D01*
X157036963Y-102010500D01*
X157683036Y-102010499D01*
X157802418Y-101999886D01*
X157998049Y-101943909D01*
X158178407Y-101849698D01*
X158336109Y-101721109D01*
X158464698Y-101563407D01*
X158520092Y-101457359D01*
X158568578Y-101407053D01*
X158636565Y-101390946D01*
X158702468Y-101414152D01*
X158739907Y-101457358D01*
X158777066Y-101528495D01*
X158795302Y-101563407D01*
X158923890Y-101721109D01*
X158976376Y-101763905D01*
X159081593Y-101849698D01*
X159261951Y-101943909D01*
X159457582Y-101999886D01*
X159576963Y-102010500D01*
X160223036Y-102010499D01*
X160342418Y-101999886D01*
X160538049Y-101943909D01*
X160718407Y-101849698D01*
X160876109Y-101721109D01*
X161004698Y-101563407D01*
X161060092Y-101457359D01*
X161108578Y-101407053D01*
X161176565Y-101390946D01*
X161242468Y-101414152D01*
X161279907Y-101457358D01*
X161317066Y-101528495D01*
X161335302Y-101563407D01*
X161463890Y-101721109D01*
X161516376Y-101763905D01*
X161621593Y-101849698D01*
X161801951Y-101943909D01*
X161997582Y-101999886D01*
X162116963Y-102010500D01*
X162763036Y-102010499D01*
X162882418Y-101999886D01*
X163078049Y-101943909D01*
X163258407Y-101849698D01*
X163416109Y-101721109D01*
X163544698Y-101563407D01*
X163600092Y-101457359D01*
X163648578Y-101407053D01*
X163716565Y-101390946D01*
X163782468Y-101414152D01*
X163819907Y-101457358D01*
X163857066Y-101528495D01*
X163875302Y-101563407D01*
X164003890Y-101721109D01*
X164056376Y-101763905D01*
X164161593Y-101849698D01*
X164341951Y-101943909D01*
X164537582Y-101999886D01*
X164656963Y-102010500D01*
X165303036Y-102010499D01*
X165422418Y-101999886D01*
X165618049Y-101943909D01*
X165798407Y-101849698D01*
X165956109Y-101721109D01*
X166084698Y-101563407D01*
X166140092Y-101457359D01*
X166188578Y-101407053D01*
X166256565Y-101390946D01*
X166322468Y-101414152D01*
X166359907Y-101457358D01*
X166397066Y-101528495D01*
X166415302Y-101563407D01*
X166543890Y-101721109D01*
X166596376Y-101763905D01*
X166701593Y-101849698D01*
X166881951Y-101943909D01*
X167077582Y-101999886D01*
X167196963Y-102010500D01*
X167843036Y-102010499D01*
X167962418Y-101999886D01*
X168158049Y-101943909D01*
X168338407Y-101849698D01*
X168496109Y-101721109D01*
X168624698Y-101563407D01*
X168680092Y-101457359D01*
X168728578Y-101407053D01*
X168796565Y-101390946D01*
X168862468Y-101414152D01*
X168899907Y-101457358D01*
X168937066Y-101528495D01*
X168955302Y-101563407D01*
X169083890Y-101721109D01*
X169136376Y-101763905D01*
X169241593Y-101849698D01*
X169421951Y-101943909D01*
X169617582Y-101999886D01*
X169736963Y-102010500D01*
X170383036Y-102010499D01*
X170502418Y-101999886D01*
X170698049Y-101943909D01*
X170878407Y-101849698D01*
X171036109Y-101721109D01*
X171164698Y-101563407D01*
X171220092Y-101457359D01*
X171268578Y-101407053D01*
X171336565Y-101390946D01*
X171402468Y-101414152D01*
X171439907Y-101457358D01*
X171477066Y-101528495D01*
X171495302Y-101563407D01*
X171623890Y-101721109D01*
X171676376Y-101763905D01*
X171781593Y-101849698D01*
X171961951Y-101943909D01*
X172157582Y-101999886D01*
X172276963Y-102010500D01*
X172923036Y-102010499D01*
X173042418Y-101999886D01*
X173238049Y-101943909D01*
X173418407Y-101849698D01*
X173576109Y-101721109D01*
X173704698Y-101563407D01*
X173760092Y-101457359D01*
X173808578Y-101407053D01*
X173876565Y-101390946D01*
X173942468Y-101414152D01*
X173979907Y-101457358D01*
X174017066Y-101528495D01*
X174035302Y-101563407D01*
X174163890Y-101721109D01*
X174216376Y-101763905D01*
X174321593Y-101849698D01*
X174501951Y-101943909D01*
X174697582Y-101999886D01*
X174816963Y-102010500D01*
X175463036Y-102010499D01*
X175582418Y-101999886D01*
X175778049Y-101943909D01*
X175958407Y-101849698D01*
X176116109Y-101721109D01*
X176244698Y-101563407D01*
X176300092Y-101457359D01*
X176348578Y-101407053D01*
X176416565Y-101390946D01*
X176482468Y-101414152D01*
X176519907Y-101457358D01*
X176557066Y-101528495D01*
X176575302Y-101563407D01*
X176703890Y-101721109D01*
X176756376Y-101763905D01*
X176861593Y-101849698D01*
X177041951Y-101943909D01*
X177237582Y-101999886D01*
X177356963Y-102010500D01*
X178003036Y-102010499D01*
X178122418Y-101999886D01*
X178318049Y-101943909D01*
X178498407Y-101849698D01*
X178656109Y-101721109D01*
X178784698Y-101563407D01*
X178840092Y-101457359D01*
X178888578Y-101407053D01*
X178956565Y-101390946D01*
X179022468Y-101414152D01*
X179059907Y-101457358D01*
X179097066Y-101528495D01*
X179115302Y-101563407D01*
X179243890Y-101721109D01*
X179296376Y-101763905D01*
X179401593Y-101849698D01*
X179581951Y-101943909D01*
X179777582Y-101999886D01*
X179896963Y-102010500D01*
X180543036Y-102010499D01*
X180662418Y-101999886D01*
X180858049Y-101943909D01*
X181038407Y-101849698D01*
X181196109Y-101721109D01*
X181324698Y-101563407D01*
X181380092Y-101457359D01*
X181428578Y-101407053D01*
X181496565Y-101390946D01*
X181562468Y-101414152D01*
X181599907Y-101457358D01*
X181637066Y-101528495D01*
X181655302Y-101563407D01*
X181783890Y-101721109D01*
X181836376Y-101763905D01*
X181941593Y-101849698D01*
X182121951Y-101943909D01*
X182317582Y-101999886D01*
X182436963Y-102010500D01*
X183083036Y-102010499D01*
X183202418Y-101999886D01*
X183398049Y-101943909D01*
X183578407Y-101849698D01*
X183736109Y-101721109D01*
X183864698Y-101563407D01*
X183920092Y-101457359D01*
X183968578Y-101407053D01*
X184036565Y-101390946D01*
X184102468Y-101414152D01*
X184139907Y-101457358D01*
X184177066Y-101528495D01*
X184195302Y-101563407D01*
X184323890Y-101721109D01*
X184376376Y-101763905D01*
X184481593Y-101849698D01*
X184661951Y-101943909D01*
X184857582Y-101999886D01*
X184976963Y-102010500D01*
X185623036Y-102010499D01*
X185742418Y-101999886D01*
X185938049Y-101943909D01*
X186118407Y-101849698D01*
X186276109Y-101721109D01*
X186404698Y-101563407D01*
X186460092Y-101457359D01*
X186508578Y-101407053D01*
X186576565Y-101390946D01*
X186642468Y-101414152D01*
X186679907Y-101457358D01*
X186717066Y-101528495D01*
X186735302Y-101563407D01*
X186863890Y-101721109D01*
X186916376Y-101763905D01*
X187021593Y-101849698D01*
X187201951Y-101943909D01*
X187397582Y-101999886D01*
X187516963Y-102010500D01*
X188163036Y-102010499D01*
X188282418Y-101999886D01*
X188478049Y-101943909D01*
X188658407Y-101849698D01*
X188816109Y-101721109D01*
X188944698Y-101563407D01*
X189000092Y-101457359D01*
X189048578Y-101407053D01*
X189116565Y-101390946D01*
X189182468Y-101414152D01*
X189219907Y-101457358D01*
X189257066Y-101528495D01*
X189275302Y-101563407D01*
X189403890Y-101721109D01*
X189456376Y-101763905D01*
X189561593Y-101849698D01*
X189741951Y-101943909D01*
X189937582Y-101999886D01*
X190056963Y-102010500D01*
X190703036Y-102010499D01*
X190822418Y-101999886D01*
X191018049Y-101943909D01*
X191198407Y-101849698D01*
X191356109Y-101721109D01*
X191484698Y-101563407D01*
X191540092Y-101457359D01*
X191588578Y-101407053D01*
X191656565Y-101390946D01*
X191722468Y-101414152D01*
X191759907Y-101457358D01*
X191797066Y-101528495D01*
X191815302Y-101563407D01*
X191943890Y-101721109D01*
X191996376Y-101763905D01*
X192101593Y-101849698D01*
X192281951Y-101943909D01*
X192477582Y-101999886D01*
X192596963Y-102010500D01*
X193243036Y-102010499D01*
X193362418Y-101999886D01*
X193558049Y-101943909D01*
X193738407Y-101849698D01*
X193896109Y-101721109D01*
X194024698Y-101563407D01*
X194080092Y-101457359D01*
X194128578Y-101407053D01*
X194196565Y-101390946D01*
X194262468Y-101414152D01*
X194299907Y-101457358D01*
X194337066Y-101528495D01*
X194355302Y-101563407D01*
X194483890Y-101721109D01*
X194536376Y-101763905D01*
X194641593Y-101849698D01*
X194821951Y-101943909D01*
X195017582Y-101999886D01*
X195136963Y-102010500D01*
X195783036Y-102010499D01*
X195902418Y-101999886D01*
X196098049Y-101943909D01*
X196278407Y-101849698D01*
X196436109Y-101721109D01*
X196564698Y-101563407D01*
X196620092Y-101457359D01*
X196668578Y-101407053D01*
X196736565Y-101390946D01*
X196802468Y-101414152D01*
X196839907Y-101457358D01*
X196877066Y-101528495D01*
X196895302Y-101563407D01*
X197023890Y-101721109D01*
X197076376Y-101763905D01*
X197181593Y-101849698D01*
X197361951Y-101943909D01*
X197557582Y-101999886D01*
X197676963Y-102010500D01*
X198323036Y-102010499D01*
X198442418Y-101999886D01*
X198638049Y-101943909D01*
X198818407Y-101849698D01*
X198976109Y-101721109D01*
X199104698Y-101563407D01*
X199160092Y-101457359D01*
X199208578Y-101407053D01*
X199276565Y-101390946D01*
X199342468Y-101414152D01*
X199379907Y-101457358D01*
X199417066Y-101528495D01*
X199435302Y-101563407D01*
X199563890Y-101721109D01*
X199616376Y-101763905D01*
X199721593Y-101849698D01*
X199901951Y-101943909D01*
X200097582Y-101999886D01*
X200216963Y-102010500D01*
X200863036Y-102010499D01*
X200982418Y-101999886D01*
X201178049Y-101943909D01*
X201358407Y-101849698D01*
X201516109Y-101721109D01*
X201644698Y-101563407D01*
X201700092Y-101457359D01*
X201748578Y-101407053D01*
X201816565Y-101390946D01*
X201882468Y-101414152D01*
X201919907Y-101457358D01*
X201957066Y-101528495D01*
X201975302Y-101563407D01*
X202103890Y-101721109D01*
X202156376Y-101763905D01*
X202261593Y-101849698D01*
X202441951Y-101943909D01*
X202637582Y-101999886D01*
X202756963Y-102010500D01*
X203403036Y-102010499D01*
X203522418Y-101999886D01*
X203718049Y-101943909D01*
X203898407Y-101849698D01*
X204056109Y-101721109D01*
X204184698Y-101563407D01*
X204278909Y-101383049D01*
X204334886Y-101187418D01*
X204345500Y-101068037D01*
X204345499Y-99851964D01*
X204334886Y-99732582D01*
X204278909Y-99536951D01*
X204184698Y-99356593D01*
X204111643Y-99266998D01*
X204056109Y-99198890D01*
X203898409Y-99070304D01*
X203898410Y-99070304D01*
X203898407Y-99070302D01*
X203718049Y-98976091D01*
X203718048Y-98976090D01*
X203718045Y-98976089D01*
X203600829Y-98942550D01*
X203522418Y-98920114D01*
X203522415Y-98920113D01*
X203522413Y-98920113D01*
X203456102Y-98914217D01*
X203403037Y-98909500D01*
X203403032Y-98909500D01*
X202756971Y-98909500D01*
X202756965Y-98909500D01*
X202756964Y-98909501D01*
X202745316Y-98910536D01*
X202637584Y-98920113D01*
X202441954Y-98976089D01*
X202351772Y-99023196D01*
X202261593Y-99070302D01*
X202261591Y-99070303D01*
X202261590Y-99070304D01*
X202103890Y-99198890D01*
X202003855Y-99321575D01*
X201975302Y-99356593D01*
X201919907Y-99462640D01*
X201871422Y-99512946D01*
X201803434Y-99529053D01*
X201737531Y-99505846D01*
X201700092Y-99462641D01*
X201644698Y-99356593D01*
X201571643Y-99266998D01*
X201516109Y-99198890D01*
X201358409Y-99070304D01*
X201358410Y-99070304D01*
X201358407Y-99070302D01*
X201178049Y-98976091D01*
X201178048Y-98976090D01*
X201178045Y-98976089D01*
X201060829Y-98942550D01*
X200982418Y-98920114D01*
X200982415Y-98920113D01*
X200982413Y-98920113D01*
X200916102Y-98914217D01*
X200863037Y-98909500D01*
X200863032Y-98909500D01*
X200216971Y-98909500D01*
X200216965Y-98909500D01*
X200216964Y-98909501D01*
X200205316Y-98910536D01*
X200097584Y-98920113D01*
X199901954Y-98976089D01*
X199811772Y-99023196D01*
X199721593Y-99070302D01*
X199721591Y-99070303D01*
X199721590Y-99070304D01*
X199563890Y-99198890D01*
X199463855Y-99321575D01*
X199435302Y-99356593D01*
X199379907Y-99462640D01*
X199331422Y-99512946D01*
X199263434Y-99529053D01*
X199197531Y-99505846D01*
X199160092Y-99462641D01*
X199104698Y-99356593D01*
X199031643Y-99266998D01*
X198976109Y-99198890D01*
X198818409Y-99070304D01*
X198818410Y-99070304D01*
X198818407Y-99070302D01*
X198638049Y-98976091D01*
X198638048Y-98976090D01*
X198638045Y-98976089D01*
X198520829Y-98942550D01*
X198442418Y-98920114D01*
X198442415Y-98920113D01*
X198442413Y-98920113D01*
X198376102Y-98914217D01*
X198323037Y-98909500D01*
X198323032Y-98909500D01*
X197676971Y-98909500D01*
X197676965Y-98909500D01*
X197676964Y-98909501D01*
X197665316Y-98910536D01*
X197557584Y-98920113D01*
X197361954Y-98976089D01*
X197271772Y-99023196D01*
X197181593Y-99070302D01*
X197181591Y-99070303D01*
X197181590Y-99070304D01*
X197023890Y-99198890D01*
X196923855Y-99321575D01*
X196895302Y-99356593D01*
X196839907Y-99462640D01*
X196791422Y-99512946D01*
X196723434Y-99529053D01*
X196657531Y-99505846D01*
X196620092Y-99462641D01*
X196564698Y-99356593D01*
X196491643Y-99266998D01*
X196436109Y-99198890D01*
X196278409Y-99070304D01*
X196278410Y-99070304D01*
X196278407Y-99070302D01*
X196098049Y-98976091D01*
X196098048Y-98976090D01*
X196098045Y-98976089D01*
X195980829Y-98942550D01*
X195902418Y-98920114D01*
X195902415Y-98920113D01*
X195902413Y-98920113D01*
X195836102Y-98914217D01*
X195783037Y-98909500D01*
X195783032Y-98909500D01*
X195136971Y-98909500D01*
X195136965Y-98909500D01*
X195136964Y-98909501D01*
X195125316Y-98910536D01*
X195017584Y-98920113D01*
X194821954Y-98976089D01*
X194731772Y-99023196D01*
X194641593Y-99070302D01*
X194641591Y-99070303D01*
X194641590Y-99070304D01*
X194483890Y-99198890D01*
X194383855Y-99321575D01*
X194355302Y-99356593D01*
X194299907Y-99462640D01*
X194251422Y-99512946D01*
X194183434Y-99529053D01*
X194117531Y-99505846D01*
X194080092Y-99462641D01*
X194024698Y-99356593D01*
X193951643Y-99266998D01*
X193896109Y-99198890D01*
X193738409Y-99070304D01*
X193738410Y-99070304D01*
X193738407Y-99070302D01*
X193558049Y-98976091D01*
X193558048Y-98976090D01*
X193558045Y-98976089D01*
X193440829Y-98942550D01*
X193362418Y-98920114D01*
X193362415Y-98920113D01*
X193362413Y-98920113D01*
X193296102Y-98914217D01*
X193243037Y-98909500D01*
X193243032Y-98909500D01*
X192596971Y-98909500D01*
X192596965Y-98909500D01*
X192596964Y-98909501D01*
X192585316Y-98910536D01*
X192477584Y-98920113D01*
X192281954Y-98976089D01*
X192191772Y-99023196D01*
X192101593Y-99070302D01*
X192101591Y-99070303D01*
X192101590Y-99070304D01*
X191943890Y-99198890D01*
X191843855Y-99321575D01*
X191815302Y-99356593D01*
X191759907Y-99462640D01*
X191711422Y-99512946D01*
X191643434Y-99529053D01*
X191577531Y-99505846D01*
X191540092Y-99462641D01*
X191484698Y-99356593D01*
X191411643Y-99266998D01*
X191356109Y-99198890D01*
X191198409Y-99070304D01*
X191198410Y-99070304D01*
X191198407Y-99070302D01*
X191018049Y-98976091D01*
X191018048Y-98976090D01*
X191018045Y-98976089D01*
X190900829Y-98942550D01*
X190822418Y-98920114D01*
X190822415Y-98920113D01*
X190822413Y-98920113D01*
X190756102Y-98914217D01*
X190703037Y-98909500D01*
X190703032Y-98909500D01*
X190056971Y-98909500D01*
X190056965Y-98909500D01*
X190056964Y-98909501D01*
X190045316Y-98910536D01*
X189937584Y-98920113D01*
X189741954Y-98976089D01*
X189651772Y-99023196D01*
X189561593Y-99070302D01*
X189561591Y-99070303D01*
X189561590Y-99070304D01*
X189403890Y-99198890D01*
X189303855Y-99321575D01*
X189275302Y-99356593D01*
X189219907Y-99462640D01*
X189171422Y-99512946D01*
X189103434Y-99529053D01*
X189037531Y-99505846D01*
X189000092Y-99462641D01*
X188944698Y-99356593D01*
X188871643Y-99266998D01*
X188816109Y-99198890D01*
X188658409Y-99070304D01*
X188658410Y-99070304D01*
X188658407Y-99070302D01*
X188478049Y-98976091D01*
X188478048Y-98976090D01*
X188478045Y-98976089D01*
X188360829Y-98942550D01*
X188282418Y-98920114D01*
X188282415Y-98920113D01*
X188282413Y-98920113D01*
X188216102Y-98914217D01*
X188163037Y-98909500D01*
X188163032Y-98909500D01*
X187516971Y-98909500D01*
X187516965Y-98909500D01*
X187516964Y-98909501D01*
X187505316Y-98910536D01*
X187397584Y-98920113D01*
X187201954Y-98976089D01*
X187111772Y-99023196D01*
X187021593Y-99070302D01*
X187021591Y-99070303D01*
X187021590Y-99070304D01*
X186863890Y-99198890D01*
X186763855Y-99321575D01*
X186735302Y-99356593D01*
X186679907Y-99462640D01*
X186631422Y-99512946D01*
X186563434Y-99529053D01*
X186497531Y-99505846D01*
X186460092Y-99462641D01*
X186404698Y-99356593D01*
X186331643Y-99266998D01*
X186276109Y-99198890D01*
X186118409Y-99070304D01*
X186118410Y-99070304D01*
X186118407Y-99070302D01*
X185938049Y-98976091D01*
X185938048Y-98976090D01*
X185938045Y-98976089D01*
X185820829Y-98942550D01*
X185742418Y-98920114D01*
X185742415Y-98920113D01*
X185742413Y-98920113D01*
X185676102Y-98914217D01*
X185623037Y-98909500D01*
X185623032Y-98909500D01*
X184976971Y-98909500D01*
X184976965Y-98909500D01*
X184976964Y-98909501D01*
X184965316Y-98910536D01*
X184857584Y-98920113D01*
X184661954Y-98976089D01*
X184571772Y-99023196D01*
X184481593Y-99070302D01*
X184481591Y-99070303D01*
X184481590Y-99070304D01*
X184323890Y-99198890D01*
X184223855Y-99321575D01*
X184195302Y-99356593D01*
X184139907Y-99462640D01*
X184091422Y-99512946D01*
X184023434Y-99529053D01*
X183957531Y-99505846D01*
X183920092Y-99462641D01*
X183864698Y-99356593D01*
X183791643Y-99266998D01*
X183736109Y-99198890D01*
X183578409Y-99070304D01*
X183578410Y-99070304D01*
X183578407Y-99070302D01*
X183398049Y-98976091D01*
X183398048Y-98976090D01*
X183398045Y-98976089D01*
X183280829Y-98942550D01*
X183202418Y-98920114D01*
X183202415Y-98920113D01*
X183202413Y-98920113D01*
X183136102Y-98914217D01*
X183083037Y-98909500D01*
X183083032Y-98909500D01*
X182436971Y-98909500D01*
X182436965Y-98909500D01*
X182436964Y-98909501D01*
X182425316Y-98910536D01*
X182317584Y-98920113D01*
X182121954Y-98976089D01*
X182031772Y-99023196D01*
X181941593Y-99070302D01*
X181941591Y-99070303D01*
X181941590Y-99070304D01*
X181783890Y-99198890D01*
X181683855Y-99321575D01*
X181655302Y-99356593D01*
X181599907Y-99462640D01*
X181551422Y-99512946D01*
X181483434Y-99529053D01*
X181417531Y-99505846D01*
X181380092Y-99462641D01*
X181324698Y-99356593D01*
X181251643Y-99266998D01*
X181196109Y-99198890D01*
X181038409Y-99070304D01*
X181038410Y-99070304D01*
X181038407Y-99070302D01*
X180858049Y-98976091D01*
X180858048Y-98976090D01*
X180858045Y-98976089D01*
X180740829Y-98942550D01*
X180662418Y-98920114D01*
X180662415Y-98920113D01*
X180662413Y-98920113D01*
X180596102Y-98914217D01*
X180543037Y-98909500D01*
X180543032Y-98909500D01*
X179896971Y-98909500D01*
X179896965Y-98909500D01*
X179896964Y-98909501D01*
X179885316Y-98910536D01*
X179777584Y-98920113D01*
X179581954Y-98976089D01*
X179491772Y-99023196D01*
X179401593Y-99070302D01*
X179401591Y-99070303D01*
X179401590Y-99070304D01*
X179243890Y-99198890D01*
X179143855Y-99321575D01*
X179115302Y-99356593D01*
X179059907Y-99462640D01*
X179011422Y-99512946D01*
X178943434Y-99529053D01*
X178877531Y-99505846D01*
X178840092Y-99462641D01*
X178784698Y-99356593D01*
X178711643Y-99266998D01*
X178656109Y-99198890D01*
X178498409Y-99070304D01*
X178498410Y-99070304D01*
X178498407Y-99070302D01*
X178318049Y-98976091D01*
X178318048Y-98976090D01*
X178318045Y-98976089D01*
X178200829Y-98942550D01*
X178122418Y-98920114D01*
X178122415Y-98920113D01*
X178122413Y-98920113D01*
X178056102Y-98914217D01*
X178003037Y-98909500D01*
X178003032Y-98909500D01*
X177356971Y-98909500D01*
X177356965Y-98909500D01*
X177356964Y-98909501D01*
X177345316Y-98910536D01*
X177237584Y-98920113D01*
X177041954Y-98976089D01*
X176951772Y-99023196D01*
X176861593Y-99070302D01*
X176861591Y-99070303D01*
X176861590Y-99070304D01*
X176703890Y-99198890D01*
X176603855Y-99321575D01*
X176575302Y-99356593D01*
X176519907Y-99462640D01*
X176471422Y-99512946D01*
X176403434Y-99529053D01*
X176337531Y-99505846D01*
X176300092Y-99462641D01*
X176244698Y-99356593D01*
X176171643Y-99266998D01*
X176116109Y-99198890D01*
X175958409Y-99070304D01*
X175958410Y-99070304D01*
X175958407Y-99070302D01*
X175778049Y-98976091D01*
X175778048Y-98976090D01*
X175778045Y-98976089D01*
X175660829Y-98942550D01*
X175582418Y-98920114D01*
X175582415Y-98920113D01*
X175582413Y-98920113D01*
X175516102Y-98914217D01*
X175463037Y-98909500D01*
X175463032Y-98909500D01*
X174816971Y-98909500D01*
X174816965Y-98909500D01*
X174816964Y-98909501D01*
X174805316Y-98910536D01*
X174697584Y-98920113D01*
X174501954Y-98976089D01*
X174411772Y-99023196D01*
X174321593Y-99070302D01*
X174321591Y-99070303D01*
X174321590Y-99070304D01*
X174163890Y-99198890D01*
X174063855Y-99321575D01*
X174035302Y-99356593D01*
X173979907Y-99462640D01*
X173931422Y-99512946D01*
X173863434Y-99529053D01*
X173797531Y-99505846D01*
X173760092Y-99462641D01*
X173704698Y-99356593D01*
X173631643Y-99266998D01*
X173576109Y-99198890D01*
X173418409Y-99070304D01*
X173418410Y-99070304D01*
X173418407Y-99070302D01*
X173238049Y-98976091D01*
X173238048Y-98976090D01*
X173238045Y-98976089D01*
X173120829Y-98942550D01*
X173042418Y-98920114D01*
X173042415Y-98920113D01*
X173042413Y-98920113D01*
X172976102Y-98914217D01*
X172923037Y-98909500D01*
X172923032Y-98909500D01*
X172276971Y-98909500D01*
X172276965Y-98909500D01*
X172276964Y-98909501D01*
X172265316Y-98910536D01*
X172157584Y-98920113D01*
X171961954Y-98976089D01*
X171871772Y-99023196D01*
X171781593Y-99070302D01*
X171781591Y-99070303D01*
X171781590Y-99070304D01*
X171623890Y-99198890D01*
X171523855Y-99321575D01*
X171495302Y-99356593D01*
X171439907Y-99462640D01*
X171391422Y-99512946D01*
X171323434Y-99529053D01*
X171257531Y-99505846D01*
X171220092Y-99462641D01*
X171164698Y-99356593D01*
X171091643Y-99266998D01*
X171036109Y-99198890D01*
X170878409Y-99070304D01*
X170878410Y-99070304D01*
X170878407Y-99070302D01*
X170698049Y-98976091D01*
X170698048Y-98976090D01*
X170698045Y-98976089D01*
X170580829Y-98942550D01*
X170502418Y-98920114D01*
X170502415Y-98920113D01*
X170502413Y-98920113D01*
X170436102Y-98914217D01*
X170383037Y-98909500D01*
X170383032Y-98909500D01*
X169736971Y-98909500D01*
X169736965Y-98909500D01*
X169736964Y-98909501D01*
X169725316Y-98910536D01*
X169617584Y-98920113D01*
X169421954Y-98976089D01*
X169331772Y-99023196D01*
X169241593Y-99070302D01*
X169241591Y-99070303D01*
X169241590Y-99070304D01*
X169083890Y-99198890D01*
X168983855Y-99321575D01*
X168955302Y-99356593D01*
X168899907Y-99462640D01*
X168851422Y-99512946D01*
X168783434Y-99529053D01*
X168717531Y-99505846D01*
X168680092Y-99462641D01*
X168624698Y-99356593D01*
X168551643Y-99266998D01*
X168496109Y-99198890D01*
X168338409Y-99070304D01*
X168338410Y-99070304D01*
X168338407Y-99070302D01*
X168158049Y-98976091D01*
X168158048Y-98976090D01*
X168158045Y-98976089D01*
X168040829Y-98942550D01*
X167962418Y-98920114D01*
X167962415Y-98920113D01*
X167962413Y-98920113D01*
X167896102Y-98914217D01*
X167843037Y-98909500D01*
X167843032Y-98909500D01*
X167196971Y-98909500D01*
X167196965Y-98909500D01*
X167196964Y-98909501D01*
X167185316Y-98910536D01*
X167077584Y-98920113D01*
X166881954Y-98976089D01*
X166791772Y-99023196D01*
X166701593Y-99070302D01*
X166701591Y-99070303D01*
X166701590Y-99070304D01*
X166543890Y-99198890D01*
X166443855Y-99321575D01*
X166415302Y-99356593D01*
X166359907Y-99462640D01*
X166311422Y-99512946D01*
X166243434Y-99529053D01*
X166177531Y-99505846D01*
X166140092Y-99462641D01*
X166084698Y-99356593D01*
X166011643Y-99266998D01*
X165956109Y-99198890D01*
X165798409Y-99070304D01*
X165798410Y-99070304D01*
X165798407Y-99070302D01*
X165618049Y-98976091D01*
X165618048Y-98976090D01*
X165618045Y-98976089D01*
X165500829Y-98942550D01*
X165422418Y-98920114D01*
X165422415Y-98920113D01*
X165422413Y-98920113D01*
X165356102Y-98914217D01*
X165303037Y-98909500D01*
X165303032Y-98909500D01*
X164656971Y-98909500D01*
X164656965Y-98909500D01*
X164656964Y-98909501D01*
X164645316Y-98910536D01*
X164537584Y-98920113D01*
X164341954Y-98976089D01*
X164251772Y-99023196D01*
X164161593Y-99070302D01*
X164161591Y-99070303D01*
X164161590Y-99070304D01*
X164003890Y-99198890D01*
X163903855Y-99321575D01*
X163875302Y-99356593D01*
X163819907Y-99462640D01*
X163771422Y-99512946D01*
X163703434Y-99529053D01*
X163637531Y-99505846D01*
X163600092Y-99462641D01*
X163544698Y-99356593D01*
X163471643Y-99266998D01*
X163416109Y-99198890D01*
X163258409Y-99070304D01*
X163258410Y-99070304D01*
X163258407Y-99070302D01*
X163078049Y-98976091D01*
X163078048Y-98976090D01*
X163078045Y-98976089D01*
X162960829Y-98942550D01*
X162882418Y-98920114D01*
X162882415Y-98920113D01*
X162882413Y-98920113D01*
X162816102Y-98914217D01*
X162763037Y-98909500D01*
X162763032Y-98909500D01*
X162116971Y-98909500D01*
X162116965Y-98909500D01*
X162116964Y-98909501D01*
X162105316Y-98910536D01*
X161997584Y-98920113D01*
X161801954Y-98976089D01*
X161711772Y-99023196D01*
X161621593Y-99070302D01*
X161621591Y-99070303D01*
X161621590Y-99070304D01*
X161463890Y-99198890D01*
X161363855Y-99321575D01*
X161335302Y-99356593D01*
X161279907Y-99462640D01*
X161231422Y-99512946D01*
X161163434Y-99529053D01*
X161097531Y-99505846D01*
X161060092Y-99462641D01*
X161004698Y-99356593D01*
X160931643Y-99266998D01*
X160876109Y-99198890D01*
X160718409Y-99070304D01*
X160718410Y-99070304D01*
X160718407Y-99070302D01*
X160538049Y-98976091D01*
X160538048Y-98976090D01*
X160538045Y-98976089D01*
X160420829Y-98942550D01*
X160342418Y-98920114D01*
X160342415Y-98920113D01*
X160342413Y-98920113D01*
X160276102Y-98914217D01*
X160223037Y-98909500D01*
X160223032Y-98909500D01*
X159576971Y-98909500D01*
X159576965Y-98909500D01*
X159576964Y-98909501D01*
X159565316Y-98910536D01*
X159457584Y-98920113D01*
X159261954Y-98976089D01*
X159171772Y-99023196D01*
X159081593Y-99070302D01*
X159081591Y-99070303D01*
X159081590Y-99070304D01*
X158923890Y-99198890D01*
X158823855Y-99321575D01*
X158795302Y-99356593D01*
X158739907Y-99462640D01*
X158691422Y-99512946D01*
X158623434Y-99529053D01*
X158557531Y-99505846D01*
X158520092Y-99462641D01*
X158464698Y-99356593D01*
X158391643Y-99266998D01*
X158336109Y-99198890D01*
X158178409Y-99070304D01*
X158178410Y-99070304D01*
X158178407Y-99070302D01*
X157998049Y-98976091D01*
X157998048Y-98976090D01*
X157998045Y-98976089D01*
X157880829Y-98942550D01*
X157802418Y-98920114D01*
X157802415Y-98920113D01*
X157802413Y-98920113D01*
X157736102Y-98914217D01*
X157683037Y-98909500D01*
X157683032Y-98909500D01*
X157036971Y-98909500D01*
X157036965Y-98909500D01*
X157036964Y-98909501D01*
X157025316Y-98910536D01*
X156917584Y-98920113D01*
X156721954Y-98976089D01*
X156631772Y-99023196D01*
X156541593Y-99070302D01*
X156541591Y-99070303D01*
X156541590Y-99070304D01*
X156383890Y-99198890D01*
X156255304Y-99356590D01*
X156161089Y-99536954D01*
X156105114Y-99732583D01*
X156105113Y-99732586D01*
X156094500Y-99851966D01*
X143010000Y-99851966D01*
X143010000Y-82709999D01*
X214604341Y-82709999D01*
X214604341Y-82710000D01*
X214624936Y-82945403D01*
X214624938Y-82945413D01*
X214686094Y-83173655D01*
X214686096Y-83173659D01*
X214686097Y-83173663D01*
X214785965Y-83387830D01*
X214785967Y-83387834D01*
X214921501Y-83581395D01*
X214921506Y-83581402D01*
X215088597Y-83748493D01*
X215088603Y-83748498D01*
X215274158Y-83878425D01*
X215317783Y-83933002D01*
X215324977Y-84002500D01*
X215293454Y-84064855D01*
X215274158Y-84081575D01*
X215088597Y-84211505D01*
X214921505Y-84378597D01*
X214785965Y-84572169D01*
X214785964Y-84572171D01*
X214686098Y-84786335D01*
X214686094Y-84786344D01*
X214624938Y-85014586D01*
X214624936Y-85014596D01*
X214604341Y-85249999D01*
X214604341Y-85250000D01*
X214624936Y-85485403D01*
X214624938Y-85485413D01*
X214686094Y-85713655D01*
X214686096Y-85713659D01*
X214686097Y-85713663D01*
X214785965Y-85927830D01*
X214785967Y-85927834D01*
X214921501Y-86121395D01*
X214921506Y-86121402D01*
X215088597Y-86288493D01*
X215088603Y-86288498D01*
X215274158Y-86418425D01*
X215317783Y-86473002D01*
X215324977Y-86542500D01*
X215293454Y-86604855D01*
X215274158Y-86621575D01*
X215088597Y-86751505D01*
X214921505Y-86918597D01*
X214785965Y-87112169D01*
X214785964Y-87112171D01*
X214686098Y-87326335D01*
X214686094Y-87326344D01*
X214624938Y-87554586D01*
X214624936Y-87554596D01*
X214604341Y-87789999D01*
X214604341Y-87790000D01*
X214624936Y-88025403D01*
X214624938Y-88025413D01*
X214686094Y-88253655D01*
X214686096Y-88253659D01*
X214686097Y-88253663D01*
X214785965Y-88467830D01*
X214785967Y-88467834D01*
X214921501Y-88661395D01*
X214921506Y-88661402D01*
X215088597Y-88828493D01*
X215088603Y-88828498D01*
X215274158Y-88958425D01*
X215317783Y-89013002D01*
X215324977Y-89082500D01*
X215293454Y-89144855D01*
X215274158Y-89161575D01*
X215088597Y-89291505D01*
X214921505Y-89458597D01*
X214785965Y-89652169D01*
X214785964Y-89652171D01*
X214686098Y-89866335D01*
X214686094Y-89866344D01*
X214624938Y-90094586D01*
X214624936Y-90094596D01*
X214604341Y-90329999D01*
X214604341Y-90330000D01*
X214624936Y-90565403D01*
X214624938Y-90565413D01*
X214686094Y-90793655D01*
X214686096Y-90793659D01*
X214686097Y-90793663D01*
X214785965Y-91007830D01*
X214785967Y-91007834D01*
X214921501Y-91201395D01*
X214921506Y-91201402D01*
X215088597Y-91368493D01*
X215088603Y-91368498D01*
X215274158Y-91498425D01*
X215317783Y-91553002D01*
X215324977Y-91622500D01*
X215293454Y-91684855D01*
X215274158Y-91701575D01*
X215088597Y-91831505D01*
X214921505Y-91998597D01*
X214785965Y-92192169D01*
X214785964Y-92192171D01*
X214686098Y-92406335D01*
X214686094Y-92406344D01*
X214624938Y-92634586D01*
X214624936Y-92634596D01*
X214604341Y-92869999D01*
X214604341Y-92870000D01*
X214624936Y-93105403D01*
X214624938Y-93105413D01*
X214686094Y-93333655D01*
X214686096Y-93333659D01*
X214686097Y-93333663D01*
X214785965Y-93547830D01*
X214785967Y-93547834D01*
X214921501Y-93741395D01*
X214921506Y-93741402D01*
X215088597Y-93908493D01*
X215088603Y-93908498D01*
X215274158Y-94038425D01*
X215317783Y-94093002D01*
X215324977Y-94162500D01*
X215293454Y-94224855D01*
X215274158Y-94241575D01*
X215088597Y-94371505D01*
X214921505Y-94538597D01*
X214785965Y-94732169D01*
X214785964Y-94732171D01*
X214686098Y-94946335D01*
X214686094Y-94946344D01*
X214624938Y-95174586D01*
X214624936Y-95174596D01*
X214604341Y-95409999D01*
X214604341Y-95410000D01*
X214624936Y-95645403D01*
X214624938Y-95645413D01*
X214686094Y-95873655D01*
X214686096Y-95873659D01*
X214686097Y-95873663D01*
X214785965Y-96087830D01*
X214785967Y-96087834D01*
X214921501Y-96281395D01*
X214921506Y-96281402D01*
X215088597Y-96448493D01*
X215088603Y-96448498D01*
X215274158Y-96578425D01*
X215317783Y-96633002D01*
X215324977Y-96702500D01*
X215293454Y-96764855D01*
X215274158Y-96781575D01*
X215088597Y-96911505D01*
X214921505Y-97078597D01*
X214785965Y-97272169D01*
X214785964Y-97272171D01*
X214686098Y-97486335D01*
X214686094Y-97486344D01*
X214624938Y-97714586D01*
X214624936Y-97714596D01*
X214604341Y-97949999D01*
X214604341Y-97950000D01*
X214624936Y-98185403D01*
X214624938Y-98185413D01*
X214686094Y-98413655D01*
X214686096Y-98413659D01*
X214686097Y-98413663D01*
X214785965Y-98627830D01*
X214785967Y-98627834D01*
X214921501Y-98821395D01*
X214921506Y-98821402D01*
X215088597Y-98988493D01*
X215088603Y-98988498D01*
X215274158Y-99118425D01*
X215317783Y-99173002D01*
X215324977Y-99242500D01*
X215293454Y-99304855D01*
X215274158Y-99321575D01*
X215088597Y-99451505D01*
X214921505Y-99618597D01*
X214785965Y-99812169D01*
X214785964Y-99812171D01*
X214686098Y-100026335D01*
X214686094Y-100026344D01*
X214624938Y-100254586D01*
X214624936Y-100254596D01*
X214604341Y-100489999D01*
X214604341Y-100490000D01*
X214624936Y-100725403D01*
X214624938Y-100725413D01*
X214686094Y-100953655D01*
X214686096Y-100953659D01*
X214686097Y-100953663D01*
X214739429Y-101068033D01*
X214785965Y-101167830D01*
X214785967Y-101167834D01*
X214894281Y-101322521D01*
X214921505Y-101361401D01*
X215088599Y-101528495D01*
X215185384Y-101596265D01*
X215282165Y-101664032D01*
X215282167Y-101664033D01*
X215282170Y-101664035D01*
X215496337Y-101763903D01*
X215724592Y-101825063D01*
X215912918Y-101841539D01*
X215959999Y-101845659D01*
X215960000Y-101845659D01*
X215960001Y-101845659D01*
X215999234Y-101842226D01*
X216195408Y-101825063D01*
X216423663Y-101763903D01*
X216637830Y-101664035D01*
X216831401Y-101528495D01*
X216998495Y-101361401D01*
X217134035Y-101167830D01*
X217233903Y-100953663D01*
X217295063Y-100725408D01*
X217315659Y-100490000D01*
X217295063Y-100254592D01*
X217233903Y-100026337D01*
X217134035Y-99812171D01*
X217078310Y-99732586D01*
X216998494Y-99618597D01*
X216831402Y-99451506D01*
X216831396Y-99451501D01*
X216645842Y-99321575D01*
X216602217Y-99266998D01*
X216595023Y-99197500D01*
X216626546Y-99135145D01*
X216645842Y-99118425D01*
X216714566Y-99070304D01*
X216831401Y-98988495D01*
X216998495Y-98821401D01*
X217134035Y-98627830D01*
X217233903Y-98413663D01*
X217295063Y-98185408D01*
X217315659Y-97950000D01*
X217295063Y-97714592D01*
X217233903Y-97486337D01*
X217134035Y-97272171D01*
X216998495Y-97078599D01*
X216998494Y-97078597D01*
X216831402Y-96911506D01*
X216831396Y-96911501D01*
X216645842Y-96781575D01*
X216602217Y-96726998D01*
X216595023Y-96657500D01*
X216626546Y-96595145D01*
X216645842Y-96578425D01*
X216668026Y-96562891D01*
X216831401Y-96448495D01*
X216998495Y-96281401D01*
X217134035Y-96087830D01*
X217233903Y-95873663D01*
X217295063Y-95645408D01*
X217315659Y-95410000D01*
X217295063Y-95174592D01*
X217233903Y-94946337D01*
X217134035Y-94732171D01*
X216998495Y-94538599D01*
X216998494Y-94538597D01*
X216831402Y-94371506D01*
X216831396Y-94371501D01*
X216645842Y-94241575D01*
X216602217Y-94186998D01*
X216595023Y-94117500D01*
X216626546Y-94055145D01*
X216645842Y-94038425D01*
X216668026Y-94022891D01*
X216831401Y-93908495D01*
X216998495Y-93741401D01*
X217134035Y-93547830D01*
X217233903Y-93333663D01*
X217295063Y-93105408D01*
X217315659Y-92870000D01*
X217295063Y-92634592D01*
X217233903Y-92406337D01*
X217134035Y-92192171D01*
X216998495Y-91998599D01*
X216998494Y-91998597D01*
X216831402Y-91831506D01*
X216831396Y-91831501D01*
X216645842Y-91701575D01*
X216602217Y-91646998D01*
X216595023Y-91577500D01*
X216626546Y-91515145D01*
X216645842Y-91498425D01*
X216668026Y-91482891D01*
X216831401Y-91368495D01*
X216998495Y-91201401D01*
X217134035Y-91007830D01*
X217233903Y-90793663D01*
X217295063Y-90565408D01*
X217315659Y-90330000D01*
X217295063Y-90094592D01*
X217233903Y-89866337D01*
X217134035Y-89652171D01*
X216998495Y-89458599D01*
X216998494Y-89458597D01*
X216831402Y-89291506D01*
X216831396Y-89291501D01*
X216645842Y-89161575D01*
X216602217Y-89106998D01*
X216595023Y-89037500D01*
X216626546Y-88975145D01*
X216645842Y-88958425D01*
X216668026Y-88942891D01*
X216831401Y-88828495D01*
X216998495Y-88661401D01*
X217134035Y-88467830D01*
X217233903Y-88253663D01*
X217295063Y-88025408D01*
X217315659Y-87790000D01*
X217295063Y-87554592D01*
X217233903Y-87326337D01*
X217134035Y-87112171D01*
X216998495Y-86918599D01*
X216998494Y-86918597D01*
X216831402Y-86751506D01*
X216831396Y-86751501D01*
X216645842Y-86621575D01*
X216602217Y-86566998D01*
X216595023Y-86497500D01*
X216626546Y-86435145D01*
X216645842Y-86418425D01*
X216668026Y-86402891D01*
X216831401Y-86288495D01*
X216998495Y-86121401D01*
X217134035Y-85927830D01*
X217233903Y-85713663D01*
X217295063Y-85485408D01*
X217315659Y-85250000D01*
X217295063Y-85014592D01*
X217233903Y-84786337D01*
X217134035Y-84572171D01*
X216998495Y-84378599D01*
X216998494Y-84378597D01*
X216831402Y-84211506D01*
X216831396Y-84211501D01*
X216645842Y-84081575D01*
X216602217Y-84026998D01*
X216595023Y-83957500D01*
X216626546Y-83895145D01*
X216645842Y-83878425D01*
X216668026Y-83862891D01*
X216831401Y-83748495D01*
X216998495Y-83581401D01*
X217134035Y-83387830D01*
X217233903Y-83173663D01*
X217295063Y-82945408D01*
X217315659Y-82710000D01*
X217295063Y-82474592D01*
X217233903Y-82246337D01*
X217134035Y-82032171D01*
X216998495Y-81838599D01*
X216998494Y-81838597D01*
X216831402Y-81671506D01*
X216831395Y-81671501D01*
X216637834Y-81535967D01*
X216637830Y-81535965D01*
X216637828Y-81535964D01*
X216423663Y-81436097D01*
X216423659Y-81436096D01*
X216423655Y-81436094D01*
X216195413Y-81374938D01*
X216195403Y-81374936D01*
X215960001Y-81354341D01*
X215959999Y-81354341D01*
X215724596Y-81374936D01*
X215724586Y-81374938D01*
X215496344Y-81436094D01*
X215496335Y-81436098D01*
X215282171Y-81535964D01*
X215282169Y-81535965D01*
X215088597Y-81671505D01*
X214921505Y-81838597D01*
X214785965Y-82032169D01*
X214785964Y-82032171D01*
X214686098Y-82246335D01*
X214686094Y-82246344D01*
X214624938Y-82474586D01*
X214624936Y-82474596D01*
X214604341Y-82709999D01*
X143010000Y-82709999D01*
X143010000Y-76991966D01*
X153554500Y-76991966D01*
X153554500Y-78208028D01*
X153554501Y-78208034D01*
X153565113Y-78327415D01*
X153621089Y-78523045D01*
X153621090Y-78523048D01*
X153621091Y-78523049D01*
X153715302Y-78703407D01*
X153730736Y-78722335D01*
X153843890Y-78861109D01*
X153920772Y-78923797D01*
X154001593Y-78989698D01*
X154181951Y-79083909D01*
X154377582Y-79139886D01*
X154496963Y-79150500D01*
X155143036Y-79150499D01*
X155262418Y-79139886D01*
X155458049Y-79083909D01*
X155638407Y-78989698D01*
X155796109Y-78861109D01*
X155924698Y-78703407D01*
X155980092Y-78597359D01*
X156028578Y-78547053D01*
X156096565Y-78530946D01*
X156162468Y-78554152D01*
X156199907Y-78597358D01*
X156255302Y-78703407D01*
X156383890Y-78861109D01*
X156460772Y-78923797D01*
X156541593Y-78989698D01*
X156721951Y-79083909D01*
X156917582Y-79139886D01*
X157036963Y-79150500D01*
X157683036Y-79150499D01*
X157802418Y-79139886D01*
X157998049Y-79083909D01*
X158178407Y-78989698D01*
X158336109Y-78861109D01*
X158464698Y-78703407D01*
X158520092Y-78597359D01*
X158568578Y-78547053D01*
X158636565Y-78530946D01*
X158702468Y-78554152D01*
X158739907Y-78597358D01*
X158795302Y-78703407D01*
X158923890Y-78861109D01*
X159000772Y-78923797D01*
X159081593Y-78989698D01*
X159261951Y-79083909D01*
X159457582Y-79139886D01*
X159576963Y-79150500D01*
X160223036Y-79150499D01*
X160342418Y-79139886D01*
X160538049Y-79083909D01*
X160718407Y-78989698D01*
X160876109Y-78861109D01*
X161004698Y-78703407D01*
X161060092Y-78597359D01*
X161108578Y-78547053D01*
X161176565Y-78530946D01*
X161242468Y-78554152D01*
X161279907Y-78597358D01*
X161335302Y-78703407D01*
X161463890Y-78861109D01*
X161540772Y-78923797D01*
X161621593Y-78989698D01*
X161801951Y-79083909D01*
X161997582Y-79139886D01*
X162116963Y-79150500D01*
X162763036Y-79150499D01*
X162882418Y-79139886D01*
X163078049Y-79083909D01*
X163258407Y-78989698D01*
X163416109Y-78861109D01*
X163544698Y-78703407D01*
X163600092Y-78597359D01*
X163648578Y-78547053D01*
X163716565Y-78530946D01*
X163782468Y-78554152D01*
X163819907Y-78597358D01*
X163875302Y-78703407D01*
X164003890Y-78861109D01*
X164080772Y-78923797D01*
X164161593Y-78989698D01*
X164341951Y-79083909D01*
X164537582Y-79139886D01*
X164656963Y-79150500D01*
X165303036Y-79150499D01*
X165422418Y-79139886D01*
X165618049Y-79083909D01*
X165798407Y-78989698D01*
X165956109Y-78861109D01*
X166084698Y-78703407D01*
X166140092Y-78597359D01*
X166188578Y-78547053D01*
X166256565Y-78530946D01*
X166322468Y-78554152D01*
X166359907Y-78597358D01*
X166415302Y-78703407D01*
X166543890Y-78861109D01*
X166620772Y-78923797D01*
X166701593Y-78989698D01*
X166881951Y-79083909D01*
X167077582Y-79139886D01*
X167196963Y-79150500D01*
X167843036Y-79150499D01*
X167962418Y-79139886D01*
X168158049Y-79083909D01*
X168338407Y-78989698D01*
X168496109Y-78861109D01*
X168624698Y-78703407D01*
X168680092Y-78597359D01*
X168728578Y-78547053D01*
X168796565Y-78530946D01*
X168862468Y-78554152D01*
X168899907Y-78597358D01*
X168955302Y-78703407D01*
X169083890Y-78861109D01*
X169160772Y-78923797D01*
X169241593Y-78989698D01*
X169421951Y-79083909D01*
X169617582Y-79139886D01*
X169736963Y-79150500D01*
X170383036Y-79150499D01*
X170502418Y-79139886D01*
X170698049Y-79083909D01*
X170878407Y-78989698D01*
X171036109Y-78861109D01*
X171164698Y-78703407D01*
X171220092Y-78597359D01*
X171268578Y-78547053D01*
X171336565Y-78530946D01*
X171402468Y-78554152D01*
X171439907Y-78597358D01*
X171495302Y-78703407D01*
X171623890Y-78861109D01*
X171700772Y-78923797D01*
X171781593Y-78989698D01*
X171961951Y-79083909D01*
X172157582Y-79139886D01*
X172276963Y-79150500D01*
X172923036Y-79150499D01*
X173042418Y-79139886D01*
X173238049Y-79083909D01*
X173418407Y-78989698D01*
X173576109Y-78861109D01*
X173704698Y-78703407D01*
X173760092Y-78597359D01*
X173808578Y-78547053D01*
X173876565Y-78530946D01*
X173942468Y-78554152D01*
X173979907Y-78597358D01*
X174035302Y-78703407D01*
X174163890Y-78861109D01*
X174240772Y-78923797D01*
X174321593Y-78989698D01*
X174501951Y-79083909D01*
X174697582Y-79139886D01*
X174816963Y-79150500D01*
X175463036Y-79150499D01*
X175582418Y-79139886D01*
X175778049Y-79083909D01*
X175958407Y-78989698D01*
X176116109Y-78861109D01*
X176244698Y-78703407D01*
X176300092Y-78597359D01*
X176348578Y-78547053D01*
X176416565Y-78530946D01*
X176482468Y-78554152D01*
X176519907Y-78597358D01*
X176575302Y-78703407D01*
X176703890Y-78861109D01*
X176780772Y-78923797D01*
X176861593Y-78989698D01*
X177041951Y-79083909D01*
X177237582Y-79139886D01*
X177356963Y-79150500D01*
X178003036Y-79150499D01*
X178122418Y-79139886D01*
X178318049Y-79083909D01*
X178498407Y-78989698D01*
X178656109Y-78861109D01*
X178784698Y-78703407D01*
X178840092Y-78597359D01*
X178888578Y-78547053D01*
X178956565Y-78530946D01*
X179022468Y-78554152D01*
X179059907Y-78597358D01*
X179115302Y-78703407D01*
X179243890Y-78861109D01*
X179320772Y-78923797D01*
X179401593Y-78989698D01*
X179581951Y-79083909D01*
X179777582Y-79139886D01*
X179896963Y-79150500D01*
X180543036Y-79150499D01*
X180662418Y-79139886D01*
X180858049Y-79083909D01*
X181038407Y-78989698D01*
X181196109Y-78861109D01*
X181324698Y-78703407D01*
X181380092Y-78597359D01*
X181428578Y-78547053D01*
X181496565Y-78530946D01*
X181562468Y-78554152D01*
X181599907Y-78597358D01*
X181655302Y-78703407D01*
X181783890Y-78861109D01*
X181860772Y-78923797D01*
X181941593Y-78989698D01*
X182121951Y-79083909D01*
X182317582Y-79139886D01*
X182436963Y-79150500D01*
X183083036Y-79150499D01*
X183202418Y-79139886D01*
X183398049Y-79083909D01*
X183578407Y-78989698D01*
X183736109Y-78861109D01*
X183864698Y-78703407D01*
X183920092Y-78597359D01*
X183968578Y-78547053D01*
X184036565Y-78530946D01*
X184102468Y-78554152D01*
X184139907Y-78597358D01*
X184195302Y-78703407D01*
X184323890Y-78861109D01*
X184400772Y-78923797D01*
X184481593Y-78989698D01*
X184661951Y-79083909D01*
X184857582Y-79139886D01*
X184976963Y-79150500D01*
X185623036Y-79150499D01*
X185742418Y-79139886D01*
X185938049Y-79083909D01*
X186118407Y-78989698D01*
X186276109Y-78861109D01*
X186404698Y-78703407D01*
X186460092Y-78597359D01*
X186508578Y-78547053D01*
X186576565Y-78530946D01*
X186642468Y-78554152D01*
X186679907Y-78597358D01*
X186735302Y-78703407D01*
X186863890Y-78861109D01*
X186940772Y-78923797D01*
X187021593Y-78989698D01*
X187201951Y-79083909D01*
X187397582Y-79139886D01*
X187516963Y-79150500D01*
X188163036Y-79150499D01*
X188282418Y-79139886D01*
X188478049Y-79083909D01*
X188658407Y-78989698D01*
X188816109Y-78861109D01*
X188944698Y-78703407D01*
X189000092Y-78597359D01*
X189048578Y-78547053D01*
X189116565Y-78530946D01*
X189182468Y-78554152D01*
X189219907Y-78597358D01*
X189275302Y-78703407D01*
X189403890Y-78861109D01*
X189480772Y-78923797D01*
X189561593Y-78989698D01*
X189741951Y-79083909D01*
X189937582Y-79139886D01*
X190056963Y-79150500D01*
X190703036Y-79150499D01*
X190822418Y-79139886D01*
X191018049Y-79083909D01*
X191198407Y-78989698D01*
X191356109Y-78861109D01*
X191484698Y-78703407D01*
X191540092Y-78597359D01*
X191588578Y-78547053D01*
X191656565Y-78530946D01*
X191722468Y-78554152D01*
X191759907Y-78597358D01*
X191815302Y-78703407D01*
X191943890Y-78861109D01*
X192020772Y-78923797D01*
X192101593Y-78989698D01*
X192281951Y-79083909D01*
X192477582Y-79139886D01*
X192596963Y-79150500D01*
X193243036Y-79150499D01*
X193362418Y-79139886D01*
X193558049Y-79083909D01*
X193738407Y-78989698D01*
X193896109Y-78861109D01*
X194024698Y-78703407D01*
X194080092Y-78597359D01*
X194128578Y-78547053D01*
X194196565Y-78530946D01*
X194262468Y-78554152D01*
X194299907Y-78597358D01*
X194355302Y-78703407D01*
X194483890Y-78861109D01*
X194560772Y-78923797D01*
X194641593Y-78989698D01*
X194821951Y-79083909D01*
X195017582Y-79139886D01*
X195136963Y-79150500D01*
X195783036Y-79150499D01*
X195902418Y-79139886D01*
X196098049Y-79083909D01*
X196278407Y-78989698D01*
X196436109Y-78861109D01*
X196564698Y-78703407D01*
X196620092Y-78597359D01*
X196668578Y-78547053D01*
X196736565Y-78530946D01*
X196802468Y-78554152D01*
X196839907Y-78597358D01*
X196895302Y-78703407D01*
X197023890Y-78861109D01*
X197100772Y-78923797D01*
X197181593Y-78989698D01*
X197361951Y-79083909D01*
X197557582Y-79139886D01*
X197676963Y-79150500D01*
X198323036Y-79150499D01*
X198442418Y-79139886D01*
X198638049Y-79083909D01*
X198818407Y-78989698D01*
X198976109Y-78861109D01*
X199104698Y-78703407D01*
X199160092Y-78597359D01*
X199208578Y-78547053D01*
X199276565Y-78530946D01*
X199342468Y-78554152D01*
X199379907Y-78597358D01*
X199435302Y-78703407D01*
X199563890Y-78861109D01*
X199640772Y-78923797D01*
X199721593Y-78989698D01*
X199901951Y-79083909D01*
X200097582Y-79139886D01*
X200216963Y-79150500D01*
X200863036Y-79150499D01*
X200982418Y-79139886D01*
X201178049Y-79083909D01*
X201358407Y-78989698D01*
X201516109Y-78861109D01*
X201644698Y-78703407D01*
X201700092Y-78597359D01*
X201748578Y-78547053D01*
X201816565Y-78530946D01*
X201882468Y-78554152D01*
X201919907Y-78597358D01*
X201975302Y-78703407D01*
X202103890Y-78861109D01*
X202180772Y-78923797D01*
X202261593Y-78989698D01*
X202441951Y-79083909D01*
X202637582Y-79139886D01*
X202756963Y-79150500D01*
X203403036Y-79150499D01*
X203522418Y-79139886D01*
X203718049Y-79083909D01*
X203898407Y-78989698D01*
X204056109Y-78861109D01*
X204184698Y-78703407D01*
X204240092Y-78597359D01*
X204288578Y-78547053D01*
X204356565Y-78530946D01*
X204422468Y-78554152D01*
X204459907Y-78597358D01*
X204515302Y-78703407D01*
X204643890Y-78861109D01*
X204720772Y-78923797D01*
X204801593Y-78989698D01*
X204981951Y-79083909D01*
X205177582Y-79139886D01*
X205296963Y-79150500D01*
X205943036Y-79150499D01*
X206062418Y-79139886D01*
X206258049Y-79083909D01*
X206438407Y-78989698D01*
X206596109Y-78861109D01*
X206724698Y-78703407D01*
X206818909Y-78523049D01*
X206874886Y-78327418D01*
X206885500Y-78208037D01*
X206885499Y-76991964D01*
X206874886Y-76872582D01*
X206834699Y-76732135D01*
X214609500Y-76732135D01*
X214609500Y-78527870D01*
X214609501Y-78527876D01*
X214615908Y-78587483D01*
X214666202Y-78722328D01*
X214666206Y-78722335D01*
X214752452Y-78837544D01*
X214752455Y-78837547D01*
X214867664Y-78923793D01*
X214867671Y-78923797D01*
X215002517Y-78974091D01*
X215002516Y-78974091D01*
X215009444Y-78974835D01*
X215062127Y-78980500D01*
X216857872Y-78980499D01*
X216917483Y-78974091D01*
X217052331Y-78923796D01*
X217167546Y-78837546D01*
X217253796Y-78722331D01*
X217304091Y-78587483D01*
X217310500Y-78527873D01*
X217310499Y-76732128D01*
X217304091Y-76672517D01*
X217296791Y-76652946D01*
X217253797Y-76537671D01*
X217253793Y-76537664D01*
X217167547Y-76422455D01*
X217167544Y-76422452D01*
X217052335Y-76336206D01*
X217052328Y-76336202D01*
X216917482Y-76285908D01*
X216917483Y-76285908D01*
X216857883Y-76279501D01*
X216857881Y-76279500D01*
X216857873Y-76279500D01*
X216857864Y-76279500D01*
X215062129Y-76279500D01*
X215062123Y-76279501D01*
X215002516Y-76285908D01*
X214867671Y-76336202D01*
X214867664Y-76336206D01*
X214752455Y-76422452D01*
X214752452Y-76422455D01*
X214666206Y-76537664D01*
X214666202Y-76537671D01*
X214615908Y-76672517D01*
X214609501Y-76732116D01*
X214609501Y-76732123D01*
X214609500Y-76732135D01*
X206834699Y-76732135D01*
X206818909Y-76676951D01*
X206724698Y-76496593D01*
X206672684Y-76432803D01*
X206596109Y-76338890D01*
X206438409Y-76210304D01*
X206438410Y-76210304D01*
X206438407Y-76210302D01*
X206258049Y-76116091D01*
X206258048Y-76116090D01*
X206258045Y-76116089D01*
X206140829Y-76082550D01*
X206062418Y-76060114D01*
X206062415Y-76060113D01*
X206062413Y-76060113D01*
X205996102Y-76054217D01*
X205943037Y-76049500D01*
X205943032Y-76049500D01*
X205296971Y-76049500D01*
X205296965Y-76049500D01*
X205296964Y-76049501D01*
X205285316Y-76050536D01*
X205177584Y-76060113D01*
X204981954Y-76116089D01*
X204891772Y-76163196D01*
X204801593Y-76210302D01*
X204801591Y-76210303D01*
X204801590Y-76210304D01*
X204643890Y-76338890D01*
X204515304Y-76496590D01*
X204515302Y-76496593D01*
X204459907Y-76602640D01*
X204411422Y-76652946D01*
X204343434Y-76669053D01*
X204277531Y-76645846D01*
X204240092Y-76602641D01*
X204184698Y-76496593D01*
X204132684Y-76432803D01*
X204056109Y-76338890D01*
X203898409Y-76210304D01*
X203898410Y-76210304D01*
X203898407Y-76210302D01*
X203718049Y-76116091D01*
X203718048Y-76116090D01*
X203718045Y-76116089D01*
X203600829Y-76082550D01*
X203522418Y-76060114D01*
X203522415Y-76060113D01*
X203522413Y-76060113D01*
X203456102Y-76054217D01*
X203403037Y-76049500D01*
X203403032Y-76049500D01*
X202756971Y-76049500D01*
X202756965Y-76049500D01*
X202756964Y-76049501D01*
X202745316Y-76050536D01*
X202637584Y-76060113D01*
X202441954Y-76116089D01*
X202351772Y-76163196D01*
X202261593Y-76210302D01*
X202261591Y-76210303D01*
X202261590Y-76210304D01*
X202103890Y-76338890D01*
X201975304Y-76496590D01*
X201975302Y-76496593D01*
X201919907Y-76602640D01*
X201871422Y-76652946D01*
X201803434Y-76669053D01*
X201737531Y-76645846D01*
X201700092Y-76602641D01*
X201644698Y-76496593D01*
X201592684Y-76432803D01*
X201516109Y-76338890D01*
X201358409Y-76210304D01*
X201358410Y-76210304D01*
X201358407Y-76210302D01*
X201178049Y-76116091D01*
X201178048Y-76116090D01*
X201178045Y-76116089D01*
X201060829Y-76082550D01*
X200982418Y-76060114D01*
X200982415Y-76060113D01*
X200982413Y-76060113D01*
X200916102Y-76054217D01*
X200863037Y-76049500D01*
X200863032Y-76049500D01*
X200216971Y-76049500D01*
X200216965Y-76049500D01*
X200216964Y-76049501D01*
X200205316Y-76050536D01*
X200097584Y-76060113D01*
X199901954Y-76116089D01*
X199811772Y-76163196D01*
X199721593Y-76210302D01*
X199721591Y-76210303D01*
X199721590Y-76210304D01*
X199563890Y-76338890D01*
X199435304Y-76496590D01*
X199435302Y-76496593D01*
X199379907Y-76602640D01*
X199331422Y-76652946D01*
X199263434Y-76669053D01*
X199197531Y-76645846D01*
X199160092Y-76602641D01*
X199104698Y-76496593D01*
X199052684Y-76432803D01*
X198976109Y-76338890D01*
X198818409Y-76210304D01*
X198818410Y-76210304D01*
X198818407Y-76210302D01*
X198638049Y-76116091D01*
X198638048Y-76116090D01*
X198638045Y-76116089D01*
X198520829Y-76082550D01*
X198442418Y-76060114D01*
X198442415Y-76060113D01*
X198442413Y-76060113D01*
X198376102Y-76054217D01*
X198323037Y-76049500D01*
X198323032Y-76049500D01*
X197676971Y-76049500D01*
X197676965Y-76049500D01*
X197676964Y-76049501D01*
X197665316Y-76050536D01*
X197557584Y-76060113D01*
X197361954Y-76116089D01*
X197271772Y-76163196D01*
X197181593Y-76210302D01*
X197181591Y-76210303D01*
X197181590Y-76210304D01*
X197023890Y-76338890D01*
X196895304Y-76496590D01*
X196895302Y-76496593D01*
X196839907Y-76602640D01*
X196791422Y-76652946D01*
X196723434Y-76669053D01*
X196657531Y-76645846D01*
X196620092Y-76602641D01*
X196564698Y-76496593D01*
X196512684Y-76432803D01*
X196436109Y-76338890D01*
X196278409Y-76210304D01*
X196278410Y-76210304D01*
X196278407Y-76210302D01*
X196098049Y-76116091D01*
X196098048Y-76116090D01*
X196098045Y-76116089D01*
X195980829Y-76082550D01*
X195902418Y-76060114D01*
X195902415Y-76060113D01*
X195902413Y-76060113D01*
X195836102Y-76054217D01*
X195783037Y-76049500D01*
X195783032Y-76049500D01*
X195136971Y-76049500D01*
X195136965Y-76049500D01*
X195136964Y-76049501D01*
X195125316Y-76050536D01*
X195017584Y-76060113D01*
X194821954Y-76116089D01*
X194731772Y-76163196D01*
X194641593Y-76210302D01*
X194641591Y-76210303D01*
X194641590Y-76210304D01*
X194483890Y-76338890D01*
X194355304Y-76496590D01*
X194355302Y-76496593D01*
X194299907Y-76602640D01*
X194251422Y-76652946D01*
X194183434Y-76669053D01*
X194117531Y-76645846D01*
X194080092Y-76602641D01*
X194024698Y-76496593D01*
X193972684Y-76432803D01*
X193896109Y-76338890D01*
X193738409Y-76210304D01*
X193738410Y-76210304D01*
X193738407Y-76210302D01*
X193558049Y-76116091D01*
X193558048Y-76116090D01*
X193558045Y-76116089D01*
X193440829Y-76082550D01*
X193362418Y-76060114D01*
X193362415Y-76060113D01*
X193362413Y-76060113D01*
X193296102Y-76054217D01*
X193243037Y-76049500D01*
X193243032Y-76049500D01*
X192596971Y-76049500D01*
X192596965Y-76049500D01*
X192596964Y-76049501D01*
X192585316Y-76050536D01*
X192477584Y-76060113D01*
X192281954Y-76116089D01*
X192191772Y-76163196D01*
X192101593Y-76210302D01*
X192101591Y-76210303D01*
X192101590Y-76210304D01*
X191943890Y-76338890D01*
X191815304Y-76496590D01*
X191815302Y-76496593D01*
X191759907Y-76602640D01*
X191711422Y-76652946D01*
X191643434Y-76669053D01*
X191577531Y-76645846D01*
X191540092Y-76602641D01*
X191484698Y-76496593D01*
X191432684Y-76432803D01*
X191356109Y-76338890D01*
X191198409Y-76210304D01*
X191198410Y-76210304D01*
X191198407Y-76210302D01*
X191018049Y-76116091D01*
X191018048Y-76116090D01*
X191018045Y-76116089D01*
X190900829Y-76082550D01*
X190822418Y-76060114D01*
X190822415Y-76060113D01*
X190822413Y-76060113D01*
X190756102Y-76054217D01*
X190703037Y-76049500D01*
X190703032Y-76049500D01*
X190056971Y-76049500D01*
X190056965Y-76049500D01*
X190056964Y-76049501D01*
X190045316Y-76050536D01*
X189937584Y-76060113D01*
X189741954Y-76116089D01*
X189651772Y-76163196D01*
X189561593Y-76210302D01*
X189561591Y-76210303D01*
X189561590Y-76210304D01*
X189403890Y-76338890D01*
X189275304Y-76496590D01*
X189275302Y-76496593D01*
X189219907Y-76602640D01*
X189171422Y-76652946D01*
X189103434Y-76669053D01*
X189037531Y-76645846D01*
X189000092Y-76602641D01*
X188944698Y-76496593D01*
X188892684Y-76432803D01*
X188816109Y-76338890D01*
X188658409Y-76210304D01*
X188658410Y-76210304D01*
X188658407Y-76210302D01*
X188478049Y-76116091D01*
X188478048Y-76116090D01*
X188478045Y-76116089D01*
X188360829Y-76082550D01*
X188282418Y-76060114D01*
X188282415Y-76060113D01*
X188282413Y-76060113D01*
X188216102Y-76054217D01*
X188163037Y-76049500D01*
X188163032Y-76049500D01*
X187516971Y-76049500D01*
X187516965Y-76049500D01*
X187516964Y-76049501D01*
X187505316Y-76050536D01*
X187397584Y-76060113D01*
X187201954Y-76116089D01*
X187111772Y-76163196D01*
X187021593Y-76210302D01*
X187021591Y-76210303D01*
X187021590Y-76210304D01*
X186863890Y-76338890D01*
X186735304Y-76496590D01*
X186735302Y-76496593D01*
X186679907Y-76602640D01*
X186631422Y-76652946D01*
X186563434Y-76669053D01*
X186497531Y-76645846D01*
X186460092Y-76602641D01*
X186404698Y-76496593D01*
X186352684Y-76432803D01*
X186276109Y-76338890D01*
X186118409Y-76210304D01*
X186118410Y-76210304D01*
X186118407Y-76210302D01*
X185938049Y-76116091D01*
X185938048Y-76116090D01*
X185938045Y-76116089D01*
X185820829Y-76082550D01*
X185742418Y-76060114D01*
X185742415Y-76060113D01*
X185742413Y-76060113D01*
X185676102Y-76054217D01*
X185623037Y-76049500D01*
X185623032Y-76049500D01*
X184976971Y-76049500D01*
X184976965Y-76049500D01*
X184976964Y-76049501D01*
X184965316Y-76050536D01*
X184857584Y-76060113D01*
X184661954Y-76116089D01*
X184571772Y-76163196D01*
X184481593Y-76210302D01*
X184481591Y-76210303D01*
X184481590Y-76210304D01*
X184323890Y-76338890D01*
X184195304Y-76496590D01*
X184195302Y-76496593D01*
X184139907Y-76602640D01*
X184091422Y-76652946D01*
X184023434Y-76669053D01*
X183957531Y-76645846D01*
X183920092Y-76602641D01*
X183864698Y-76496593D01*
X183812684Y-76432803D01*
X183736109Y-76338890D01*
X183578409Y-76210304D01*
X183578410Y-76210304D01*
X183578407Y-76210302D01*
X183398049Y-76116091D01*
X183398048Y-76116090D01*
X183398045Y-76116089D01*
X183280829Y-76082550D01*
X183202418Y-76060114D01*
X183202415Y-76060113D01*
X183202413Y-76060113D01*
X183136102Y-76054217D01*
X183083037Y-76049500D01*
X183083032Y-76049500D01*
X182436971Y-76049500D01*
X182436965Y-76049500D01*
X182436964Y-76049501D01*
X182425316Y-76050536D01*
X182317584Y-76060113D01*
X182121954Y-76116089D01*
X182031772Y-76163196D01*
X181941593Y-76210302D01*
X181941591Y-76210303D01*
X181941590Y-76210304D01*
X181783890Y-76338890D01*
X181655304Y-76496590D01*
X181655302Y-76496593D01*
X181599907Y-76602640D01*
X181551422Y-76652946D01*
X181483434Y-76669053D01*
X181417531Y-76645846D01*
X181380092Y-76602641D01*
X181324698Y-76496593D01*
X181272684Y-76432803D01*
X181196109Y-76338890D01*
X181038409Y-76210304D01*
X181038410Y-76210304D01*
X181038407Y-76210302D01*
X180858049Y-76116091D01*
X180858048Y-76116090D01*
X180858045Y-76116089D01*
X180740829Y-76082550D01*
X180662418Y-76060114D01*
X180662415Y-76060113D01*
X180662413Y-76060113D01*
X180596102Y-76054217D01*
X180543037Y-76049500D01*
X180543032Y-76049500D01*
X179896971Y-76049500D01*
X179896965Y-76049500D01*
X179896964Y-76049501D01*
X179885316Y-76050536D01*
X179777584Y-76060113D01*
X179581954Y-76116089D01*
X179491772Y-76163196D01*
X179401593Y-76210302D01*
X179401591Y-76210303D01*
X179401590Y-76210304D01*
X179243890Y-76338890D01*
X179115304Y-76496590D01*
X179115302Y-76496593D01*
X179059907Y-76602640D01*
X179011422Y-76652946D01*
X178943434Y-76669053D01*
X178877531Y-76645846D01*
X178840092Y-76602641D01*
X178784698Y-76496593D01*
X178732684Y-76432803D01*
X178656109Y-76338890D01*
X178498409Y-76210304D01*
X178498410Y-76210304D01*
X178498407Y-76210302D01*
X178318049Y-76116091D01*
X178318048Y-76116090D01*
X178318045Y-76116089D01*
X178200829Y-76082550D01*
X178122418Y-76060114D01*
X178122415Y-76060113D01*
X178122413Y-76060113D01*
X178056102Y-76054217D01*
X178003037Y-76049500D01*
X178003032Y-76049500D01*
X177356971Y-76049500D01*
X177356965Y-76049500D01*
X177356964Y-76049501D01*
X177345316Y-76050536D01*
X177237584Y-76060113D01*
X177041954Y-76116089D01*
X176951772Y-76163196D01*
X176861593Y-76210302D01*
X176861591Y-76210303D01*
X176861590Y-76210304D01*
X176703890Y-76338890D01*
X176575304Y-76496590D01*
X176575302Y-76496593D01*
X176519907Y-76602640D01*
X176471422Y-76652946D01*
X176403434Y-76669053D01*
X176337531Y-76645846D01*
X176300092Y-76602641D01*
X176244698Y-76496593D01*
X176192684Y-76432803D01*
X176116109Y-76338890D01*
X175958409Y-76210304D01*
X175958410Y-76210304D01*
X175958407Y-76210302D01*
X175778049Y-76116091D01*
X175778048Y-76116090D01*
X175778045Y-76116089D01*
X175660829Y-76082550D01*
X175582418Y-76060114D01*
X175582415Y-76060113D01*
X175582413Y-76060113D01*
X175516102Y-76054217D01*
X175463037Y-76049500D01*
X175463032Y-76049500D01*
X174816971Y-76049500D01*
X174816965Y-76049500D01*
X174816964Y-76049501D01*
X174805316Y-76050536D01*
X174697584Y-76060113D01*
X174501954Y-76116089D01*
X174411772Y-76163196D01*
X174321593Y-76210302D01*
X174321591Y-76210303D01*
X174321590Y-76210304D01*
X174163890Y-76338890D01*
X174035304Y-76496590D01*
X174035302Y-76496593D01*
X173979907Y-76602640D01*
X173931422Y-76652946D01*
X173863434Y-76669053D01*
X173797531Y-76645846D01*
X173760092Y-76602641D01*
X173704698Y-76496593D01*
X173652684Y-76432803D01*
X173576109Y-76338890D01*
X173418409Y-76210304D01*
X173418410Y-76210304D01*
X173418407Y-76210302D01*
X173238049Y-76116091D01*
X173238048Y-76116090D01*
X173238045Y-76116089D01*
X173120829Y-76082550D01*
X173042418Y-76060114D01*
X173042415Y-76060113D01*
X173042413Y-76060113D01*
X172976102Y-76054217D01*
X172923037Y-76049500D01*
X172923032Y-76049500D01*
X172276971Y-76049500D01*
X172276965Y-76049500D01*
X172276964Y-76049501D01*
X172265316Y-76050536D01*
X172157584Y-76060113D01*
X171961954Y-76116089D01*
X171871772Y-76163196D01*
X171781593Y-76210302D01*
X171781591Y-76210303D01*
X171781590Y-76210304D01*
X171623890Y-76338890D01*
X171495304Y-76496590D01*
X171495302Y-76496593D01*
X171439907Y-76602640D01*
X171391422Y-76652946D01*
X171323434Y-76669053D01*
X171257531Y-76645846D01*
X171220092Y-76602641D01*
X171164698Y-76496593D01*
X171112684Y-76432803D01*
X171036109Y-76338890D01*
X170878409Y-76210304D01*
X170878410Y-76210304D01*
X170878407Y-76210302D01*
X170698049Y-76116091D01*
X170698048Y-76116090D01*
X170698045Y-76116089D01*
X170580829Y-76082550D01*
X170502418Y-76060114D01*
X170502415Y-76060113D01*
X170502413Y-76060113D01*
X170436102Y-76054217D01*
X170383037Y-76049500D01*
X170383032Y-76049500D01*
X169736971Y-76049500D01*
X169736965Y-76049500D01*
X169736964Y-76049501D01*
X169725316Y-76050536D01*
X169617584Y-76060113D01*
X169421954Y-76116089D01*
X169331772Y-76163196D01*
X169241593Y-76210302D01*
X169241591Y-76210303D01*
X169241590Y-76210304D01*
X169083890Y-76338890D01*
X168955304Y-76496590D01*
X168955302Y-76496593D01*
X168899907Y-76602640D01*
X168851422Y-76652946D01*
X168783434Y-76669053D01*
X168717531Y-76645846D01*
X168680092Y-76602641D01*
X168624698Y-76496593D01*
X168572684Y-76432803D01*
X168496109Y-76338890D01*
X168338409Y-76210304D01*
X168338410Y-76210304D01*
X168338407Y-76210302D01*
X168158049Y-76116091D01*
X168158048Y-76116090D01*
X168158045Y-76116089D01*
X168040829Y-76082550D01*
X167962418Y-76060114D01*
X167962415Y-76060113D01*
X167962413Y-76060113D01*
X167896102Y-76054217D01*
X167843037Y-76049500D01*
X167843032Y-76049500D01*
X167196971Y-76049500D01*
X167196965Y-76049500D01*
X167196964Y-76049501D01*
X167185316Y-76050536D01*
X167077584Y-76060113D01*
X166881954Y-76116089D01*
X166791772Y-76163196D01*
X166701593Y-76210302D01*
X166701591Y-76210303D01*
X166701590Y-76210304D01*
X166543890Y-76338890D01*
X166415304Y-76496590D01*
X166415302Y-76496593D01*
X166359907Y-76602640D01*
X166311422Y-76652946D01*
X166243434Y-76669053D01*
X166177531Y-76645846D01*
X166140092Y-76602641D01*
X166084698Y-76496593D01*
X166032684Y-76432803D01*
X165956109Y-76338890D01*
X165798409Y-76210304D01*
X165798410Y-76210304D01*
X165798407Y-76210302D01*
X165618049Y-76116091D01*
X165618048Y-76116090D01*
X165618045Y-76116089D01*
X165500829Y-76082550D01*
X165422418Y-76060114D01*
X165422415Y-76060113D01*
X165422413Y-76060113D01*
X165356102Y-76054217D01*
X165303037Y-76049500D01*
X165303032Y-76049500D01*
X164656971Y-76049500D01*
X164656965Y-76049500D01*
X164656964Y-76049501D01*
X164645316Y-76050536D01*
X164537584Y-76060113D01*
X164341954Y-76116089D01*
X164251772Y-76163196D01*
X164161593Y-76210302D01*
X164161591Y-76210303D01*
X164161590Y-76210304D01*
X164003890Y-76338890D01*
X163875304Y-76496590D01*
X163875302Y-76496593D01*
X163819907Y-76602640D01*
X163771422Y-76652946D01*
X163703434Y-76669053D01*
X163637531Y-76645846D01*
X163600092Y-76602641D01*
X163544698Y-76496593D01*
X163492684Y-76432803D01*
X163416109Y-76338890D01*
X163258409Y-76210304D01*
X163258410Y-76210304D01*
X163258407Y-76210302D01*
X163078049Y-76116091D01*
X163078048Y-76116090D01*
X163078045Y-76116089D01*
X162960829Y-76082550D01*
X162882418Y-76060114D01*
X162882415Y-76060113D01*
X162882413Y-76060113D01*
X162816102Y-76054217D01*
X162763037Y-76049500D01*
X162763032Y-76049500D01*
X162116971Y-76049500D01*
X162116965Y-76049500D01*
X162116964Y-76049501D01*
X162105316Y-76050536D01*
X161997584Y-76060113D01*
X161801954Y-76116089D01*
X161711772Y-76163196D01*
X161621593Y-76210302D01*
X161621591Y-76210303D01*
X161621590Y-76210304D01*
X161463890Y-76338890D01*
X161335304Y-76496590D01*
X161335302Y-76496593D01*
X161279907Y-76602640D01*
X161231422Y-76652946D01*
X161163434Y-76669053D01*
X161097531Y-76645846D01*
X161060092Y-76602641D01*
X161004698Y-76496593D01*
X160952684Y-76432803D01*
X160876109Y-76338890D01*
X160718409Y-76210304D01*
X160718410Y-76210304D01*
X160718407Y-76210302D01*
X160538049Y-76116091D01*
X160538048Y-76116090D01*
X160538045Y-76116089D01*
X160420829Y-76082550D01*
X160342418Y-76060114D01*
X160342415Y-76060113D01*
X160342413Y-76060113D01*
X160276102Y-76054217D01*
X160223037Y-76049500D01*
X160223032Y-76049500D01*
X159576971Y-76049500D01*
X159576965Y-76049500D01*
X159576964Y-76049501D01*
X159565316Y-76050536D01*
X159457584Y-76060113D01*
X159261954Y-76116089D01*
X159171772Y-76163196D01*
X159081593Y-76210302D01*
X159081591Y-76210303D01*
X159081590Y-76210304D01*
X158923890Y-76338890D01*
X158795304Y-76496590D01*
X158795302Y-76496593D01*
X158739907Y-76602640D01*
X158691422Y-76652946D01*
X158623434Y-76669053D01*
X158557531Y-76645846D01*
X158520092Y-76602641D01*
X158464698Y-76496593D01*
X158412684Y-76432803D01*
X158336109Y-76338890D01*
X158178409Y-76210304D01*
X158178410Y-76210304D01*
X158178407Y-76210302D01*
X157998049Y-76116091D01*
X157998048Y-76116090D01*
X157998045Y-76116089D01*
X157880829Y-76082550D01*
X157802418Y-76060114D01*
X157802415Y-76060113D01*
X157802413Y-76060113D01*
X157736102Y-76054217D01*
X157683037Y-76049500D01*
X157683032Y-76049500D01*
X157036971Y-76049500D01*
X157036965Y-76049500D01*
X157036964Y-76049501D01*
X157025316Y-76050536D01*
X156917584Y-76060113D01*
X156721954Y-76116089D01*
X156631772Y-76163196D01*
X156541593Y-76210302D01*
X156541591Y-76210303D01*
X156541590Y-76210304D01*
X156383890Y-76338890D01*
X156255304Y-76496590D01*
X156255302Y-76496593D01*
X156199907Y-76602640D01*
X156151422Y-76652946D01*
X156083434Y-76669053D01*
X156017531Y-76645846D01*
X155980092Y-76602641D01*
X155924698Y-76496593D01*
X155872684Y-76432803D01*
X155796109Y-76338890D01*
X155638409Y-76210304D01*
X155638410Y-76210304D01*
X155638407Y-76210302D01*
X155458049Y-76116091D01*
X155458048Y-76116090D01*
X155458045Y-76116089D01*
X155340829Y-76082550D01*
X155262418Y-76060114D01*
X155262415Y-76060113D01*
X155262413Y-76060113D01*
X155196102Y-76054217D01*
X155143037Y-76049500D01*
X155143032Y-76049500D01*
X154496971Y-76049500D01*
X154496965Y-76049500D01*
X154496964Y-76049501D01*
X154485316Y-76050536D01*
X154377584Y-76060113D01*
X154181954Y-76116089D01*
X154091772Y-76163196D01*
X154001593Y-76210302D01*
X154001591Y-76210303D01*
X154001590Y-76210304D01*
X153843890Y-76338890D01*
X153715304Y-76496590D01*
X153715302Y-76496593D01*
X153693846Y-76537669D01*
X153621089Y-76676954D01*
X153565114Y-76872583D01*
X153565113Y-76872586D01*
X153554500Y-76991966D01*
X143010000Y-76991966D01*
X143010000Y-72552498D01*
X203674532Y-72552498D01*
X203674532Y-72552501D01*
X203694364Y-72779186D01*
X203694366Y-72779197D01*
X203753258Y-72998988D01*
X203753261Y-72998997D01*
X203849431Y-73205232D01*
X203849432Y-73205234D01*
X203979954Y-73391641D01*
X204140858Y-73552545D01*
X204140861Y-73552547D01*
X204327266Y-73683068D01*
X204533504Y-73779239D01*
X204753308Y-73838135D01*
X204915230Y-73852301D01*
X204979998Y-73857968D01*
X204980000Y-73857968D01*
X204980002Y-73857968D01*
X205036673Y-73853009D01*
X205206692Y-73838135D01*
X205426496Y-73779239D01*
X205632734Y-73683068D01*
X205819139Y-73552547D01*
X205980047Y-73391639D01*
X206110568Y-73205234D01*
X206137618Y-73147224D01*
X206183790Y-73094785D01*
X206250983Y-73075633D01*
X206317865Y-73095848D01*
X206362382Y-73147225D01*
X206389429Y-73205228D01*
X206389432Y-73205234D01*
X206519954Y-73391641D01*
X206680858Y-73552545D01*
X206680861Y-73552547D01*
X206867266Y-73683068D01*
X207073504Y-73779239D01*
X207293308Y-73838135D01*
X207455230Y-73852301D01*
X207519998Y-73857968D01*
X207520000Y-73857968D01*
X207520002Y-73857968D01*
X207576673Y-73853009D01*
X207746692Y-73838135D01*
X207966496Y-73779239D01*
X208172734Y-73683068D01*
X208359139Y-73552547D01*
X208520047Y-73391639D01*
X208650568Y-73205234D01*
X208677618Y-73147224D01*
X208723790Y-73094785D01*
X208790983Y-73075633D01*
X208857865Y-73095848D01*
X208902382Y-73147225D01*
X208929429Y-73205228D01*
X208929432Y-73205234D01*
X209059954Y-73391641D01*
X209220858Y-73552545D01*
X209220861Y-73552547D01*
X209407266Y-73683068D01*
X209613504Y-73779239D01*
X209833308Y-73838135D01*
X209995230Y-73852301D01*
X210059998Y-73857968D01*
X210060000Y-73857968D01*
X210060002Y-73857968D01*
X210116673Y-73853009D01*
X210286692Y-73838135D01*
X210506496Y-73779239D01*
X210712734Y-73683068D01*
X210899139Y-73552547D01*
X211060047Y-73391639D01*
X211190568Y-73205234D01*
X211217618Y-73147224D01*
X211263790Y-73094785D01*
X211330983Y-73075633D01*
X211397865Y-73095848D01*
X211442382Y-73147225D01*
X211469429Y-73205228D01*
X211469432Y-73205234D01*
X211599954Y-73391641D01*
X211760858Y-73552545D01*
X211760861Y-73552547D01*
X211947266Y-73683068D01*
X212153504Y-73779239D01*
X212373308Y-73838135D01*
X212535230Y-73852301D01*
X212599998Y-73857968D01*
X212600000Y-73857968D01*
X212600002Y-73857968D01*
X212656673Y-73853009D01*
X212826692Y-73838135D01*
X213046496Y-73779239D01*
X213252734Y-73683068D01*
X213439139Y-73552547D01*
X213600047Y-73391639D01*
X213730568Y-73205234D01*
X213826739Y-72998996D01*
X213885635Y-72779192D01*
X213905468Y-72552500D01*
X213903499Y-72529999D01*
X213885635Y-72325813D01*
X213885635Y-72325808D01*
X213827631Y-72109334D01*
X213826741Y-72106011D01*
X213826738Y-72106002D01*
X213757618Y-71957775D01*
X213730568Y-71899766D01*
X213600047Y-71713361D01*
X213600045Y-71713358D01*
X213439141Y-71552454D01*
X213252734Y-71421932D01*
X213252732Y-71421931D01*
X213046497Y-71325761D01*
X213046488Y-71325758D01*
X212826697Y-71266866D01*
X212826693Y-71266865D01*
X212826692Y-71266865D01*
X212826691Y-71266864D01*
X212826686Y-71266864D01*
X212600002Y-71247032D01*
X212599998Y-71247032D01*
X212373313Y-71266864D01*
X212373302Y-71266866D01*
X212153511Y-71325758D01*
X212153502Y-71325761D01*
X211947267Y-71421931D01*
X211947265Y-71421932D01*
X211760858Y-71552454D01*
X211599954Y-71713358D01*
X211469432Y-71899765D01*
X211469431Y-71899767D01*
X211442382Y-71957775D01*
X211396209Y-72010214D01*
X211329016Y-72029366D01*
X211262135Y-72009150D01*
X211217618Y-71957775D01*
X211190568Y-71899766D01*
X211060047Y-71713361D01*
X211060045Y-71713358D01*
X210899141Y-71552454D01*
X210712734Y-71421932D01*
X210712732Y-71421931D01*
X210506497Y-71325761D01*
X210506488Y-71325758D01*
X210286697Y-71266866D01*
X210286693Y-71266865D01*
X210286692Y-71266865D01*
X210286691Y-71266864D01*
X210286686Y-71266864D01*
X210060002Y-71247032D01*
X210059998Y-71247032D01*
X209833313Y-71266864D01*
X209833302Y-71266866D01*
X209613511Y-71325758D01*
X209613502Y-71325761D01*
X209407267Y-71421931D01*
X209407265Y-71421932D01*
X209220858Y-71552454D01*
X209059954Y-71713358D01*
X208929432Y-71899765D01*
X208929431Y-71899767D01*
X208902382Y-71957775D01*
X208856209Y-72010214D01*
X208789016Y-72029366D01*
X208722135Y-72009150D01*
X208677618Y-71957775D01*
X208650568Y-71899766D01*
X208520047Y-71713361D01*
X208520045Y-71713358D01*
X208359141Y-71552454D01*
X208172734Y-71421932D01*
X208172732Y-71421931D01*
X207966497Y-71325761D01*
X207966488Y-71325758D01*
X207746697Y-71266866D01*
X207746693Y-71266865D01*
X207746692Y-71266865D01*
X207746691Y-71266864D01*
X207746686Y-71266864D01*
X207520002Y-71247032D01*
X207519998Y-71247032D01*
X207293313Y-71266864D01*
X207293302Y-71266866D01*
X207073511Y-71325758D01*
X207073502Y-71325761D01*
X206867267Y-71421931D01*
X206867265Y-71421932D01*
X206680858Y-71552454D01*
X206519954Y-71713358D01*
X206389432Y-71899765D01*
X206389431Y-71899767D01*
X206362382Y-71957775D01*
X206316209Y-72010214D01*
X206249016Y-72029366D01*
X206182135Y-72009150D01*
X206137618Y-71957775D01*
X206110568Y-71899766D01*
X205980047Y-71713361D01*
X205980045Y-71713358D01*
X205819141Y-71552454D01*
X205632734Y-71421932D01*
X205632732Y-71421931D01*
X205426497Y-71325761D01*
X205426488Y-71325758D01*
X205206697Y-71266866D01*
X205206693Y-71266865D01*
X205206692Y-71266865D01*
X205206691Y-71266864D01*
X205206686Y-71266864D01*
X204980002Y-71247032D01*
X204979998Y-71247032D01*
X204753313Y-71266864D01*
X204753302Y-71266866D01*
X204533511Y-71325758D01*
X204533502Y-71325761D01*
X204327267Y-71421931D01*
X204327265Y-71421932D01*
X204140858Y-71552454D01*
X203979954Y-71713358D01*
X203849432Y-71899765D01*
X203849431Y-71899767D01*
X203753261Y-72106002D01*
X203753258Y-72106011D01*
X203694366Y-72325802D01*
X203694364Y-72325813D01*
X203674532Y-72552498D01*
X143010000Y-72552498D01*
X143010000Y-68000000D01*
X144214564Y-68000000D01*
X144234289Y-68326099D01*
X144293178Y-68647452D01*
X144390366Y-68959342D01*
X144390370Y-68959354D01*
X144390373Y-68959361D01*
X144524455Y-69257279D01*
X144644227Y-69455405D01*
X144693473Y-69536868D01*
X144894954Y-69794039D01*
X145125960Y-70025045D01*
X145383131Y-70226526D01*
X145383134Y-70226528D01*
X145383137Y-70226530D01*
X145662721Y-70395545D01*
X145960639Y-70529627D01*
X145960652Y-70529631D01*
X145960657Y-70529633D01*
X146121092Y-70579626D01*
X146272547Y-70626821D01*
X146593896Y-70685710D01*
X146920000Y-70705436D01*
X147246104Y-70685710D01*
X147567453Y-70626821D01*
X147846079Y-70539998D01*
X147879342Y-70529633D01*
X147879342Y-70529632D01*
X147879361Y-70529627D01*
X148177279Y-70395545D01*
X148456863Y-70226530D01*
X148714036Y-70025048D01*
X148945048Y-69794036D01*
X149146530Y-69536863D01*
X149315545Y-69257279D01*
X149449627Y-68959361D01*
X149546821Y-68647453D01*
X149605710Y-68326104D01*
X149625436Y-68000000D01*
X149605710Y-67673896D01*
X149546821Y-67352547D01*
X149472689Y-67114647D01*
X149449633Y-67040657D01*
X149449631Y-67040652D01*
X149449627Y-67040639D01*
X149315545Y-66742721D01*
X149146530Y-66463137D01*
X149146528Y-66463134D01*
X149146526Y-66463131D01*
X148945045Y-66205960D01*
X148940662Y-66201577D01*
X153549500Y-66201577D01*
X153549500Y-66398422D01*
X153580290Y-66592826D01*
X153641117Y-66780029D01*
X153701133Y-66897816D01*
X153730476Y-66955405D01*
X153846172Y-67114646D01*
X153985354Y-67253828D01*
X154144595Y-67369524D01*
X154209405Y-67402546D01*
X154281960Y-67439515D01*
X154332756Y-67487490D01*
X154349551Y-67555311D01*
X154327014Y-67621446D01*
X154281960Y-67660485D01*
X154144594Y-67730476D01*
X154053741Y-67796485D01*
X153985354Y-67846172D01*
X153985352Y-67846174D01*
X153985351Y-67846174D01*
X153846174Y-67985351D01*
X153846174Y-67985352D01*
X153846172Y-67985354D01*
X153835531Y-68000000D01*
X153730476Y-68144594D01*
X153641117Y-68319970D01*
X153580290Y-68507173D01*
X153549500Y-68701577D01*
X153549500Y-68898422D01*
X153580290Y-69092826D01*
X153641117Y-69280029D01*
X153701133Y-69397816D01*
X153730476Y-69455405D01*
X153846172Y-69614646D01*
X153985354Y-69753828D01*
X154083566Y-69825183D01*
X154126230Y-69880512D01*
X154132209Y-69950125D01*
X154099603Y-70011920D01*
X154038764Y-70046278D01*
X154010689Y-70049500D01*
X154002135Y-70049500D01*
X154002123Y-70049501D01*
X153942516Y-70055908D01*
X153807671Y-70106202D01*
X153807664Y-70106206D01*
X153692455Y-70192452D01*
X153692452Y-70192455D01*
X153606206Y-70307664D01*
X153606202Y-70307671D01*
X153555908Y-70442517D01*
X153549501Y-70502116D01*
X153549501Y-70502123D01*
X153549500Y-70502135D01*
X153549500Y-72097870D01*
X153549501Y-72097876D01*
X153555908Y-72157483D01*
X153606202Y-72292328D01*
X153606206Y-72292335D01*
X153692452Y-72407544D01*
X153692455Y-72407547D01*
X153807664Y-72493793D01*
X153807671Y-72493797D01*
X153942517Y-72544091D01*
X153942516Y-72544091D01*
X153949444Y-72544835D01*
X154002127Y-72550500D01*
X156597872Y-72550499D01*
X156657483Y-72544091D01*
X156792331Y-72493796D01*
X156907546Y-72407546D01*
X156993796Y-72292331D01*
X157044091Y-72157483D01*
X157050500Y-72097873D01*
X157050499Y-70502128D01*
X157044091Y-70442517D01*
X157042109Y-70437204D01*
X156993797Y-70307671D01*
X156993793Y-70307664D01*
X156907547Y-70192455D01*
X156907544Y-70192452D01*
X156792335Y-70106206D01*
X156792328Y-70106202D01*
X156657482Y-70055908D01*
X156657483Y-70055908D01*
X156597883Y-70049501D01*
X156597881Y-70049500D01*
X156597873Y-70049500D01*
X156597865Y-70049500D01*
X156589322Y-70049500D01*
X156522283Y-70029815D01*
X156476528Y-69977011D01*
X156466584Y-69907853D01*
X156495609Y-69844297D01*
X156516436Y-69825182D01*
X156614646Y-69753828D01*
X156753828Y-69614646D01*
X156869524Y-69455405D01*
X156958884Y-69280025D01*
X157019709Y-69092826D01*
X157032929Y-69009360D01*
X157050500Y-68898422D01*
X157050500Y-68701577D01*
X157031832Y-68583713D01*
X159824500Y-68583713D01*
X159824500Y-68796286D01*
X159850328Y-68959361D01*
X159857754Y-69006243D01*
X159858765Y-69009356D01*
X159923444Y-69208414D01*
X160019951Y-69397820D01*
X160144890Y-69569786D01*
X160283705Y-69708601D01*
X160317190Y-69769924D01*
X160312206Y-69839616D01*
X160270334Y-69895549D01*
X160261121Y-69901821D01*
X160106342Y-69997289D01*
X159982289Y-70121342D01*
X159890187Y-70270663D01*
X159890185Y-70270668D01*
X159888243Y-70276529D01*
X159835001Y-70437203D01*
X159835001Y-70437204D01*
X159835000Y-70437204D01*
X159824500Y-70539983D01*
X159824500Y-71840001D01*
X159824501Y-71840018D01*
X159835000Y-71942796D01*
X159835001Y-71942799D01*
X159889082Y-72106002D01*
X159890186Y-72109334D01*
X159982288Y-72258656D01*
X160106344Y-72382712D01*
X160255666Y-72474814D01*
X160422203Y-72529999D01*
X160524991Y-72540500D01*
X162075008Y-72540499D01*
X162177797Y-72529999D01*
X162344334Y-72474814D01*
X162493656Y-72382712D01*
X162617712Y-72258656D01*
X162709814Y-72109334D01*
X162764999Y-71942797D01*
X162775500Y-71840009D01*
X162775499Y-70539992D01*
X162764999Y-70437203D01*
X162709814Y-70270666D01*
X162617712Y-70121344D01*
X162493656Y-69997288D01*
X162344334Y-69905186D01*
X162344333Y-69905185D01*
X162338878Y-69901821D01*
X162292154Y-69849873D01*
X162280931Y-69780910D01*
X162308775Y-69716828D01*
X162316272Y-69708623D01*
X162455104Y-69569792D01*
X162580051Y-69397816D01*
X162676557Y-69208412D01*
X162742246Y-69006243D01*
X162775500Y-68796287D01*
X162775500Y-68583713D01*
X168124500Y-68583713D01*
X168124500Y-68796286D01*
X168150328Y-68959361D01*
X168157754Y-69006243D01*
X168158765Y-69009356D01*
X168223444Y-69208414D01*
X168319951Y-69397820D01*
X168444890Y-69569786D01*
X168583705Y-69708601D01*
X168617190Y-69769924D01*
X168612206Y-69839616D01*
X168570334Y-69895549D01*
X168561121Y-69901821D01*
X168406342Y-69997289D01*
X168282289Y-70121342D01*
X168190187Y-70270663D01*
X168190185Y-70270668D01*
X168188243Y-70276529D01*
X168135001Y-70437203D01*
X168135001Y-70437204D01*
X168135000Y-70437204D01*
X168124500Y-70539983D01*
X168124500Y-71840001D01*
X168124501Y-71840018D01*
X168135000Y-71942796D01*
X168135001Y-71942799D01*
X168189082Y-72106002D01*
X168190186Y-72109334D01*
X168282288Y-72258656D01*
X168406344Y-72382712D01*
X168555666Y-72474814D01*
X168722203Y-72529999D01*
X168824991Y-72540500D01*
X170375008Y-72540499D01*
X170477797Y-72529999D01*
X170644334Y-72474814D01*
X170793656Y-72382712D01*
X170917712Y-72258656D01*
X171009814Y-72109334D01*
X171064999Y-71942797D01*
X171075500Y-71840009D01*
X171075499Y-70539992D01*
X171064999Y-70437203D01*
X171009814Y-70270666D01*
X170917712Y-70121344D01*
X170793656Y-69997288D01*
X170644334Y-69905186D01*
X170644333Y-69905185D01*
X170638878Y-69901821D01*
X170592154Y-69849873D01*
X170580931Y-69780910D01*
X170608775Y-69716828D01*
X170616272Y-69708623D01*
X170755104Y-69569792D01*
X170880051Y-69397816D01*
X170976557Y-69208412D01*
X171042246Y-69006243D01*
X171075500Y-68796287D01*
X171075500Y-68583713D01*
X171042246Y-68373757D01*
X170976557Y-68171588D01*
X170880051Y-67982184D01*
X170880049Y-67982181D01*
X170880048Y-67982179D01*
X170755109Y-67810213D01*
X170604786Y-67659890D01*
X170432820Y-67534951D01*
X170243414Y-67438444D01*
X170243413Y-67438443D01*
X170243412Y-67438443D01*
X170041243Y-67372754D01*
X170041241Y-67372753D01*
X170041240Y-67372753D01*
X169866334Y-67345051D01*
X169831287Y-67339500D01*
X169368713Y-67339500D01*
X169333666Y-67345051D01*
X169158760Y-67372753D01*
X168956585Y-67438444D01*
X168767179Y-67534951D01*
X168595213Y-67659890D01*
X168444890Y-67810213D01*
X168319951Y-67982179D01*
X168223444Y-68171585D01*
X168157753Y-68373760D01*
X168124500Y-68583713D01*
X162775500Y-68583713D01*
X162742246Y-68373757D01*
X162676557Y-68171588D01*
X162580051Y-67982184D01*
X162580049Y-67982181D01*
X162580048Y-67982179D01*
X162455109Y-67810213D01*
X162304786Y-67659890D01*
X162132820Y-67534951D01*
X161943414Y-67438444D01*
X161943413Y-67438443D01*
X161943412Y-67438443D01*
X161741243Y-67372754D01*
X161741241Y-67372753D01*
X161741240Y-67372753D01*
X161566334Y-67345051D01*
X161531287Y-67339500D01*
X161068713Y-67339500D01*
X161033666Y-67345051D01*
X160858760Y-67372753D01*
X160656585Y-67438444D01*
X160467179Y-67534951D01*
X160295213Y-67659890D01*
X160144890Y-67810213D01*
X160019951Y-67982179D01*
X159923444Y-68171585D01*
X159857753Y-68373760D01*
X159824500Y-68583713D01*
X157031832Y-68583713D01*
X157019709Y-68507173D01*
X156977121Y-68376103D01*
X156958884Y-68319975D01*
X156958882Y-68319972D01*
X156958882Y-68319970D01*
X156911743Y-68227455D01*
X156869524Y-68144595D01*
X156753828Y-67985354D01*
X156614646Y-67846172D01*
X156455405Y-67730476D01*
X156318038Y-67660484D01*
X156267243Y-67612511D01*
X156250448Y-67544690D01*
X156272985Y-67478555D01*
X156318039Y-67439515D01*
X156320143Y-67438443D01*
X156455405Y-67369524D01*
X156614646Y-67253828D01*
X156753828Y-67114646D01*
X156869524Y-66955405D01*
X156958884Y-66780025D01*
X157019709Y-66592826D01*
X157032331Y-66513136D01*
X157050500Y-66398422D01*
X157050500Y-66201577D01*
X157031832Y-66083713D01*
X175937000Y-66083713D01*
X175937000Y-66296286D01*
X175963426Y-66463137D01*
X175970254Y-66506243D01*
X175988554Y-66562565D01*
X176035944Y-66708414D01*
X176132451Y-66897820D01*
X176257390Y-67069786D01*
X176407709Y-67220105D01*
X176407714Y-67220109D01*
X176572293Y-67339682D01*
X176614959Y-67395011D01*
X176620938Y-67464625D01*
X176588333Y-67526420D01*
X176572293Y-67540318D01*
X176407714Y-67659890D01*
X176407709Y-67659894D01*
X176257390Y-67810213D01*
X176132451Y-67982179D01*
X176035944Y-68171585D01*
X175970253Y-68373760D01*
X175937000Y-68583713D01*
X175937000Y-68796286D01*
X175962828Y-68959361D01*
X175970254Y-69006243D01*
X175971265Y-69009356D01*
X176035944Y-69208414D01*
X176132451Y-69397820D01*
X176257390Y-69569786D01*
X176407713Y-69720109D01*
X176579679Y-69845048D01*
X176579681Y-69845049D01*
X176579684Y-69845051D01*
X176769088Y-69941557D01*
X176971257Y-70007246D01*
X177181213Y-70040500D01*
X177181214Y-70040500D01*
X178618786Y-70040500D01*
X178618787Y-70040500D01*
X178828743Y-70007246D01*
X179030912Y-69941557D01*
X179220316Y-69845051D01*
X179247664Y-69825182D01*
X179392286Y-69720109D01*
X179392288Y-69720106D01*
X179392292Y-69720104D01*
X179542604Y-69569792D01*
X179542606Y-69569788D01*
X179542609Y-69569786D01*
X179667548Y-69397820D01*
X179667547Y-69397820D01*
X179667551Y-69397816D01*
X179764057Y-69208412D01*
X179829746Y-69006243D01*
X179863000Y-68796287D01*
X179863000Y-68583713D01*
X179829746Y-68373757D01*
X179764057Y-68171588D01*
X179667551Y-67982184D01*
X179667549Y-67982181D01*
X179667548Y-67982179D01*
X179542609Y-67810213D01*
X179392292Y-67659896D01*
X179389465Y-67657842D01*
X179227704Y-67540316D01*
X179185040Y-67484989D01*
X179179061Y-67415376D01*
X179211666Y-67353580D01*
X179227699Y-67339686D01*
X179392292Y-67220104D01*
X179542604Y-67069792D01*
X179542606Y-67069788D01*
X179542609Y-67069786D01*
X179667548Y-66897820D01*
X179667547Y-66897820D01*
X179667551Y-66897816D01*
X179764057Y-66708412D01*
X179829746Y-66506243D01*
X179863000Y-66296287D01*
X179863000Y-66083713D01*
X184237000Y-66083713D01*
X184237000Y-66296286D01*
X184263426Y-66463137D01*
X184270254Y-66506243D01*
X184288554Y-66562565D01*
X184335944Y-66708414D01*
X184432451Y-66897820D01*
X184557390Y-67069786D01*
X184707709Y-67220105D01*
X184707714Y-67220109D01*
X184872293Y-67339682D01*
X184914959Y-67395011D01*
X184920938Y-67464625D01*
X184888333Y-67526420D01*
X184872293Y-67540318D01*
X184707714Y-67659890D01*
X184707709Y-67659894D01*
X184557390Y-67810213D01*
X184432451Y-67982179D01*
X184335944Y-68171585D01*
X184270253Y-68373760D01*
X184237000Y-68583713D01*
X184237000Y-68796286D01*
X184262828Y-68959361D01*
X184270254Y-69006243D01*
X184271265Y-69009356D01*
X184335944Y-69208414D01*
X184432451Y-69397820D01*
X184557390Y-69569786D01*
X184707713Y-69720109D01*
X184879679Y-69845048D01*
X184879681Y-69845049D01*
X184879684Y-69845051D01*
X185069088Y-69941557D01*
X185271257Y-70007246D01*
X185481213Y-70040500D01*
X185481214Y-70040500D01*
X186918786Y-70040500D01*
X186918787Y-70040500D01*
X187128743Y-70007246D01*
X187330912Y-69941557D01*
X187520316Y-69845051D01*
X187547664Y-69825182D01*
X187692286Y-69720109D01*
X187692288Y-69720106D01*
X187692292Y-69720104D01*
X187842604Y-69569792D01*
X187842606Y-69569788D01*
X187842609Y-69569786D01*
X187967548Y-69397820D01*
X187967547Y-69397820D01*
X187967551Y-69397816D01*
X188064057Y-69208412D01*
X188129746Y-69006243D01*
X188163000Y-68796287D01*
X188163000Y-68583713D01*
X188129746Y-68373757D01*
X188064057Y-68171588D01*
X187967551Y-67982184D01*
X187967549Y-67982181D01*
X187967548Y-67982179D01*
X187842609Y-67810213D01*
X187692292Y-67659896D01*
X187689465Y-67657842D01*
X187527704Y-67540316D01*
X187485040Y-67484989D01*
X187479061Y-67415376D01*
X187511666Y-67353580D01*
X187527699Y-67339686D01*
X187692292Y-67220104D01*
X187842604Y-67069792D01*
X187842606Y-67069788D01*
X187842609Y-67069786D01*
X187967548Y-66897820D01*
X187967547Y-66897820D01*
X187967551Y-66897816D01*
X188064057Y-66708412D01*
X188129746Y-66506243D01*
X188163000Y-66296287D01*
X188163000Y-66083713D01*
X192522000Y-66083713D01*
X192522000Y-66296286D01*
X192548426Y-66463137D01*
X192555254Y-66506243D01*
X192573554Y-66562565D01*
X192620944Y-66708414D01*
X192717451Y-66897820D01*
X192842390Y-67069786D01*
X192992709Y-67220105D01*
X192992714Y-67220109D01*
X193157293Y-67339682D01*
X193199959Y-67395011D01*
X193205938Y-67464625D01*
X193173333Y-67526420D01*
X193157293Y-67540318D01*
X192992714Y-67659890D01*
X192992709Y-67659894D01*
X192842390Y-67810213D01*
X192717451Y-67982179D01*
X192620944Y-68171585D01*
X192555253Y-68373760D01*
X192522000Y-68583713D01*
X192522000Y-68796286D01*
X192547828Y-68959361D01*
X192555254Y-69006243D01*
X192556265Y-69009356D01*
X192620944Y-69208414D01*
X192717451Y-69397820D01*
X192842390Y-69569786D01*
X192992713Y-69720109D01*
X193164679Y-69845048D01*
X193164681Y-69845049D01*
X193164684Y-69845051D01*
X193354088Y-69941557D01*
X193556257Y-70007246D01*
X193766213Y-70040500D01*
X193766214Y-70040500D01*
X195203786Y-70040500D01*
X195203787Y-70040500D01*
X195413743Y-70007246D01*
X195615912Y-69941557D01*
X195805316Y-69845051D01*
X195832664Y-69825182D01*
X195977286Y-69720109D01*
X195977288Y-69720106D01*
X195977292Y-69720104D01*
X196127604Y-69569792D01*
X196127606Y-69569788D01*
X196127609Y-69569786D01*
X196252548Y-69397820D01*
X196252547Y-69397820D01*
X196252551Y-69397816D01*
X196349057Y-69208412D01*
X196414746Y-69006243D01*
X196448000Y-68796287D01*
X196448000Y-68583713D01*
X196414746Y-68373757D01*
X196349057Y-68171588D01*
X196287104Y-68049999D01*
X219214564Y-68049999D01*
X219234289Y-68376098D01*
X219293178Y-68697451D01*
X219390366Y-69009341D01*
X219390370Y-69009353D01*
X219390373Y-69009360D01*
X219524455Y-69307278D01*
X219683146Y-69569784D01*
X219693473Y-69586867D01*
X219894954Y-69844038D01*
X220125960Y-70075044D01*
X220383131Y-70276525D01*
X220383134Y-70276527D01*
X220383137Y-70276529D01*
X220662721Y-70445544D01*
X220960639Y-70579626D01*
X220960652Y-70579630D01*
X220960657Y-70579632D01*
X221272547Y-70676820D01*
X221593896Y-70735709D01*
X221920000Y-70755435D01*
X222246104Y-70735709D01*
X222567453Y-70676820D01*
X222879361Y-70579626D01*
X223177279Y-70445544D01*
X223456863Y-70276529D01*
X223714036Y-70075047D01*
X223945048Y-69844035D01*
X224146530Y-69586862D01*
X224315545Y-69307278D01*
X224449627Y-69009360D01*
X224465209Y-68959357D01*
X224469366Y-68946014D01*
X224546821Y-68697452D01*
X224605710Y-68376103D01*
X224625436Y-68049999D01*
X224605710Y-67723895D01*
X224546821Y-67402546D01*
X224544473Y-67395011D01*
X224449633Y-67090656D01*
X224449631Y-67090651D01*
X224449627Y-67090638D01*
X224315545Y-66792720D01*
X224146530Y-66513136D01*
X224146528Y-66513133D01*
X224146526Y-66513130D01*
X223945045Y-66255959D01*
X223714039Y-66024953D01*
X223456868Y-65823472D01*
X223426156Y-65804906D01*
X223177279Y-65654454D01*
X222879361Y-65520372D01*
X222879354Y-65520369D01*
X222879342Y-65520365D01*
X222567452Y-65423177D01*
X222246099Y-65364288D01*
X221920000Y-65344563D01*
X221593900Y-65364288D01*
X221272547Y-65423177D01*
X220960657Y-65520365D01*
X220960641Y-65520371D01*
X220960639Y-65520372D01*
X220816535Y-65585228D01*
X220662725Y-65654452D01*
X220662723Y-65654453D01*
X220383131Y-65823472D01*
X220125960Y-66024953D01*
X219894954Y-66255959D01*
X219693473Y-66513130D01*
X219575421Y-66708412D01*
X219524455Y-66792720D01*
X219412875Y-67040642D01*
X219390372Y-67090641D01*
X219390366Y-67090656D01*
X219293178Y-67402546D01*
X219234289Y-67723899D01*
X219214564Y-68049999D01*
X196287104Y-68049999D01*
X196252551Y-67982184D01*
X196252549Y-67982181D01*
X196252548Y-67982179D01*
X196127609Y-67810213D01*
X195977292Y-67659896D01*
X195974465Y-67657842D01*
X195812704Y-67540316D01*
X195770040Y-67484989D01*
X195764061Y-67415376D01*
X195796666Y-67353580D01*
X195812699Y-67339686D01*
X195977292Y-67220104D01*
X196127604Y-67069792D01*
X196127606Y-67069788D01*
X196127609Y-67069786D01*
X196252548Y-66897820D01*
X196252547Y-66897820D01*
X196252551Y-66897816D01*
X196349057Y-66708412D01*
X196414746Y-66506243D01*
X196448000Y-66296287D01*
X196448000Y-66083713D01*
X196414746Y-65873757D01*
X196349057Y-65671588D01*
X196252551Y-65482184D01*
X196252549Y-65482181D01*
X196252548Y-65482179D01*
X196127609Y-65310213D01*
X195977286Y-65159890D01*
X195805320Y-65034951D01*
X195615914Y-64938444D01*
X195615913Y-64938443D01*
X195615912Y-64938443D01*
X195413743Y-64872754D01*
X195413741Y-64872753D01*
X195413740Y-64872753D01*
X195252457Y-64847208D01*
X195203787Y-64839500D01*
X193766213Y-64839500D01*
X193717542Y-64847208D01*
X193556260Y-64872753D01*
X193354085Y-64938444D01*
X193164679Y-65034951D01*
X192992713Y-65159890D01*
X192842390Y-65310213D01*
X192717451Y-65482179D01*
X192620944Y-65671585D01*
X192555253Y-65873760D01*
X192522000Y-66083713D01*
X188163000Y-66083713D01*
X188129746Y-65873757D01*
X188064057Y-65671588D01*
X187967551Y-65482184D01*
X187967549Y-65482181D01*
X187967548Y-65482179D01*
X187842609Y-65310213D01*
X187692286Y-65159890D01*
X187520320Y-65034951D01*
X187330914Y-64938444D01*
X187330913Y-64938443D01*
X187330912Y-64938443D01*
X187128743Y-64872754D01*
X187128741Y-64872753D01*
X187128740Y-64872753D01*
X186967457Y-64847208D01*
X186918787Y-64839500D01*
X185481213Y-64839500D01*
X185432542Y-64847208D01*
X185271260Y-64872753D01*
X185069085Y-64938444D01*
X184879679Y-65034951D01*
X184707713Y-65159890D01*
X184557390Y-65310213D01*
X184432451Y-65482179D01*
X184335944Y-65671585D01*
X184270253Y-65873760D01*
X184237000Y-66083713D01*
X179863000Y-66083713D01*
X179829746Y-65873757D01*
X179764057Y-65671588D01*
X179667551Y-65482184D01*
X179667549Y-65482181D01*
X179667548Y-65482179D01*
X179542609Y-65310213D01*
X179392286Y-65159890D01*
X179220320Y-65034951D01*
X179030914Y-64938444D01*
X179030913Y-64938443D01*
X179030912Y-64938443D01*
X178828743Y-64872754D01*
X178828741Y-64872753D01*
X178828740Y-64872753D01*
X178667457Y-64847208D01*
X178618787Y-64839500D01*
X177181213Y-64839500D01*
X177132542Y-64847208D01*
X176971260Y-64872753D01*
X176769085Y-64938444D01*
X176579679Y-65034951D01*
X176407713Y-65159890D01*
X176257390Y-65310213D01*
X176132451Y-65482179D01*
X176035944Y-65671585D01*
X175970253Y-65873760D01*
X175937000Y-66083713D01*
X157031832Y-66083713D01*
X157019709Y-66007173D01*
X156976359Y-65873757D01*
X156958884Y-65819975D01*
X156958882Y-65819972D01*
X156958882Y-65819970D01*
X156895827Y-65696218D01*
X156869524Y-65644595D01*
X156753828Y-65485354D01*
X156614646Y-65346172D01*
X156455405Y-65230476D01*
X156280029Y-65141117D01*
X156092826Y-65080290D01*
X155898422Y-65049500D01*
X155898417Y-65049500D01*
X154701583Y-65049500D01*
X154701578Y-65049500D01*
X154507173Y-65080290D01*
X154319970Y-65141117D01*
X154144594Y-65230476D01*
X154056386Y-65294564D01*
X153985354Y-65346172D01*
X153985352Y-65346174D01*
X153985351Y-65346174D01*
X153846174Y-65485351D01*
X153846174Y-65485352D01*
X153846172Y-65485354D01*
X153841258Y-65492118D01*
X153730476Y-65644594D01*
X153641117Y-65819970D01*
X153580290Y-66007173D01*
X153549500Y-66201577D01*
X148940662Y-66201577D01*
X148714039Y-65974954D01*
X148456868Y-65773473D01*
X148413141Y-65747039D01*
X148177279Y-65604455D01*
X147879361Y-65470373D01*
X147879354Y-65470370D01*
X147879342Y-65470366D01*
X147567452Y-65373178D01*
X147246099Y-65314289D01*
X146920000Y-65294564D01*
X146593900Y-65314289D01*
X146272547Y-65373178D01*
X145960657Y-65470366D01*
X145960641Y-65470372D01*
X145960639Y-65470373D01*
X145849548Y-65520371D01*
X145662725Y-65604453D01*
X145662723Y-65604454D01*
X145383131Y-65773473D01*
X145125960Y-65974954D01*
X144894954Y-66205960D01*
X144693473Y-66463131D01*
X144663248Y-66513130D01*
X144524455Y-66742721D01*
X144444558Y-66920246D01*
X144390372Y-67040642D01*
X144390366Y-67040657D01*
X144293178Y-67352547D01*
X144234289Y-67673900D01*
X144214564Y-68000000D01*
X143010000Y-68000000D01*
X143010000Y-65857297D01*
X143029417Y-65790675D01*
X143231330Y-65473736D01*
X143237511Y-65464909D01*
X143469897Y-65162059D01*
X143476835Y-65153790D01*
X143734727Y-64872351D01*
X143742341Y-64864736D01*
X144023798Y-64606829D01*
X144032071Y-64599888D01*
X144140490Y-64516695D01*
X144205655Y-64491502D01*
X144216072Y-64491073D01*
X148091740Y-64495076D01*
G37*
%TD.AperFunction*%
%TD*%
M02*
