%TF.GenerationSoftware,KiCad,Pcbnew,8.0.2*%
%TF.CreationDate,2024-06-06T18:17:56-04:00*%
%TF.ProjectId,MBARETECHmini,4d424152-4554-4454-9348-6d696e692e6b,rev?*%
%TF.SameCoordinates,Original*%
%TF.FileFunction,Copper,L2,Bot*%
%TF.FilePolarity,Positive*%
%FSLAX46Y46*%
G04 Gerber Fmt 4.6, Leading zero omitted, Abs format (unit mm)*
G04 Created by KiCad (PCBNEW 8.0.2) date 2024-06-06 18:17:56*
%MOMM*%
%LPD*%
G01*
G04 APERTURE LIST*
G04 Aperture macros list*
%AMRoundRect*
0 Rectangle with rounded corners*
0 $1 Rounding radius*
0 $2 $3 $4 $5 $6 $7 $8 $9 X,Y pos of 4 corners*
0 Add a 4 corners polygon primitive as box body*
4,1,4,$2,$3,$4,$5,$6,$7,$8,$9,$2,$3,0*
0 Add four circle primitives for the rounded corners*
1,1,$1+$1,$2,$3*
1,1,$1+$1,$4,$5*
1,1,$1+$1,$6,$7*
1,1,$1+$1,$8,$9*
0 Add four rect primitives between the rounded corners*
20,1,$1+$1,$2,$3,$4,$5,0*
20,1,$1+$1,$4,$5,$6,$7,0*
20,1,$1+$1,$6,$7,$8,$9,0*
20,1,$1+$1,$8,$9,$2,$3,0*%
G04 Aperture macros list end*
%TA.AperFunction,ComponentPad*%
%ADD10RoundRect,0.500000X-0.265000X0.550000X-0.265000X-0.550000X0.265000X-0.550000X0.265000X0.550000X0*%
%TD*%
%TA.AperFunction,ComponentPad*%
%ADD11O,2.000000X1.700000*%
%TD*%
%TA.AperFunction,ComponentPad*%
%ADD12RoundRect,0.250000X0.750000X-0.600000X0.750000X0.600000X-0.750000X0.600000X-0.750000X-0.600000X0*%
%TD*%
%TA.AperFunction,ComponentPad*%
%ADD13O,1.950000X1.700000*%
%TD*%
%TA.AperFunction,ComponentPad*%
%ADD14RoundRect,0.250000X0.725000X-0.600000X0.725000X0.600000X-0.725000X0.600000X-0.725000X-0.600000X0*%
%TD*%
%TA.AperFunction,ComponentPad*%
%ADD15O,2.925000X1.700000*%
%TD*%
%TA.AperFunction,ComponentPad*%
%ADD16RoundRect,0.250000X1.212500X-0.600000X1.212500X0.600000X-1.212500X0.600000X-1.212500X-0.600000X0*%
%TD*%
%TA.AperFunction,ComponentPad*%
%ADD17R,1.600000X1.600000*%
%TD*%
%TA.AperFunction,ComponentPad*%
%ADD18O,1.600000X1.600000*%
%TD*%
%TA.AperFunction,ComponentPad*%
%ADD19C,4.400000*%
%TD*%
%TA.AperFunction,ComponentPad*%
%ADD20R,2.500000X1.500000*%
%TD*%
%TA.AperFunction,ComponentPad*%
%ADD21O,2.500000X1.500000*%
%TD*%
%TA.AperFunction,ComponentPad*%
%ADD22R,1.700000X1.700000*%
%TD*%
%TA.AperFunction,ComponentPad*%
%ADD23O,1.700000X1.700000*%
%TD*%
%TA.AperFunction,ComponentPad*%
%ADD24RoundRect,0.688976X-1.851024X-0.361024X1.851024X-0.361024X1.851024X0.361024X-1.851024X0.361024X0*%
%TD*%
%TA.AperFunction,SMDPad,CuDef*%
%ADD25RoundRect,0.237500X-0.237500X0.250000X-0.237500X-0.250000X0.237500X-0.250000X0.237500X0.250000X0*%
%TD*%
%TA.AperFunction,SMDPad,CuDef*%
%ADD26RoundRect,0.237500X0.237500X-0.250000X0.237500X0.250000X-0.237500X0.250000X-0.237500X-0.250000X0*%
%TD*%
%TA.AperFunction,Conductor*%
%ADD27C,1.500000*%
%TD*%
%TA.AperFunction,Conductor*%
%ADD28C,0.500000*%
%TD*%
%TA.AperFunction,Conductor*%
%ADD29C,1.000000*%
%TD*%
G04 APERTURE END LIST*
D10*
%TO.P,U1,J1_1,3V3*%
%TO.N,+3V3*%
X205620000Y-77600000D03*
%TO.P,U1,J1_2,3V3*%
X203080000Y-77600000D03*
%TO.P,U1,J1_3,RST*%
%TO.N,unconnected-(U1-RST-PadJ1_3)*%
X200540000Y-77600000D03*
%TO.P,U1,J1_4,GPIO4*%
%TO.N,S1*%
X198000000Y-77600000D03*
%TO.P,U1,J1_5,GPIO5*%
%TO.N,S2*%
X195460000Y-77600000D03*
%TO.P,U1,J1_6,GPIO6*%
%TO.N,S3*%
X192920000Y-77600000D03*
%TO.P,U1,J1_7,GPIO7*%
%TO.N,S4*%
X190380000Y-77600000D03*
%TO.P,U1,J1_8,GPIO15*%
%TO.N,LS1_3V3*%
X187840000Y-77600000D03*
%TO.P,U1,J1_9,GPIO16*%
%TO.N,unconnected-(U1-GPIO16-PadJ1_9)*%
X185300000Y-77600000D03*
%TO.P,U1,J1_10,GPIO17*%
%TO.N,LS2_3V3*%
X182760000Y-77600000D03*
%TO.P,U1,J1_11,GPIO18*%
%TO.N,unconnected-(U1-GPIO18-PadJ1_11)*%
X180220000Y-77600000D03*
%TO.P,U1,J1_12,GPIO8*%
%TO.N,KILLSWITCH*%
X177680000Y-77600000D03*
%TO.P,U1,J1_13,GPIO3*%
%TO.N,unconnected-(U1-GPIO3-PadJ1_13)*%
X175140000Y-77600000D03*
%TO.P,U1,J1_14,GPIO46*%
%TO.N,unconnected-(U1-GPIO46-PadJ1_14)*%
X172600000Y-77600000D03*
%TO.P,U1,J1_15,GPIO9*%
%TO.N,SCL*%
X170060000Y-77600000D03*
%TO.P,U1,J1_16,GPIO10*%
%TO.N,SDA*%
X167520000Y-77600000D03*
%TO.P,U1,J1_17,GPIO11*%
%TO.N,INT*%
X164980000Y-77600000D03*
%TO.P,U1,J1_18,GPIO12*%
%TO.N,PWMB*%
X162440000Y-77600000D03*
%TO.P,U1,J1_19,GPIO13*%
%TO.N,PWMA*%
X159900000Y-77600000D03*
%TO.P,U1,J1_20,GPIO14*%
%TO.N,unconnected-(U1-GPIO14-PadJ1_20)*%
X157360000Y-77600000D03*
%TO.P,U1,J1_21,5V0*%
%TO.N,+5V*%
X154820000Y-77600000D03*
%TO.P,U1,J1_22,GND*%
%TO.N,GND*%
X152280000Y-77600000D03*
%TO.P,U1,J3_1,GND*%
X205620000Y-100460000D03*
%TO.P,U1,J3_2,U0TXD/GPIO43*%
%TO.N,unconnected-(U1-U0TXD{slash}GPIO43-PadJ3_2)*%
X203080000Y-100460000D03*
%TO.P,U1,J3_3,U0RXD/GPIO44*%
%TO.N,unconnected-(U1-U0RXD{slash}GPIO44-PadJ3_3)*%
X200540000Y-100460000D03*
%TO.P,U1,J3_4,GPIO1*%
%TO.N,unconnected-(U1-GPIO1-PadJ3_4)*%
X198000000Y-100460000D03*
%TO.P,U1,J3_5,GPIO2*%
%TO.N,unconnected-(U1-GPIO2-PadJ3_5)*%
X195460000Y-100460000D03*
%TO.P,U1,J3_6,MTMS/GPIO42*%
%TO.N,unconnected-(U1-MTMS{slash}GPIO42-PadJ3_6)*%
X192920000Y-100460000D03*
%TO.P,U1,J3_7,MTDI/GPIO41*%
%TO.N,unconnected-(U1-MTDI{slash}GPIO41-PadJ3_7)*%
X190380000Y-100460000D03*
%TO.P,U1,J3_8,MTDO/GPIO40*%
%TO.N,unconnected-(U1-MTDO{slash}GPIO40-PadJ3_8)*%
X187840000Y-100460000D03*
%TO.P,U1,J3_9,MTCK/GPIO39*%
%TO.N,unconnected-(U1-MTCK{slash}GPIO39-PadJ3_9)*%
X185300000Y-100460000D03*
%TO.P,U1,J3_10,GPIO38*%
%TO.N,unconnected-(U1-GPIO38-PadJ3_10)*%
X182760000Y-100460000D03*
%TO.P,U1,J3_11,GPIO37*%
%TO.N,unconnected-(U1-GPIO37-PadJ3_11)*%
X180220000Y-100460000D03*
%TO.P,U1,J3_12,GPIO36*%
%TO.N,unconnected-(U1-GPIO36-PadJ3_12)*%
X177680000Y-100460000D03*
%TO.P,U1,J3_13,GPIO35*%
%TO.N,unconnected-(U1-GPIO35-PadJ3_13)*%
X175140000Y-100460000D03*
%TO.P,U1,J3_14,GPIO0*%
%TO.N,unconnected-(U1-GPIO0-PadJ3_14)*%
X172600000Y-100460000D03*
%TO.P,U1,J3_15,GPIO45*%
%TO.N,IR3_3V3*%
X170060000Y-100460000D03*
%TO.P,U1,J3_16,GPIO48*%
%TO.N,unconnected-(U1-GPIO48-PadJ3_16)*%
X167520000Y-100460000D03*
%TO.P,U1,J3_17,GPIO47*%
%TO.N,unconnected-(U1-GPIO47-PadJ3_17)*%
X164980000Y-100460000D03*
%TO.P,U1,J3_18,GPIO21*%
%TO.N,IR2_3V3*%
X162440000Y-100460000D03*
%TO.P,U1,J3_19,USB_D+/GPIO20*%
%TO.N,unconnected-(U1-USB_D+{slash}GPIO20-PadJ3_19)*%
X159900000Y-100460000D03*
%TO.P,U1,J3_20,USB_D-/GPIO19*%
%TO.N,IR1_3V3*%
X157360000Y-100460000D03*
%TO.P,U1,J3_21,GND*%
%TO.N,GND*%
X154820000Y-100460000D03*
%TO.P,U1,J3_22,GND*%
X152280000Y-100460000D03*
%TD*%
D11*
%TO.P,Battery1,2,Pin_2*%
%TO.N,GND*%
X196475000Y-109600000D03*
D12*
%TO.P,Battery1,1,Pin_1*%
%TO.N,+BATT*%
X196475000Y-112100000D03*
%TD*%
D13*
%TO.P,MA1,3,Pin_3*%
%TO.N,GND*%
X161300000Y-66190000D03*
%TO.P,MA1,2,Pin_2*%
%TO.N,Net-(MA1-Pin_2)*%
X161300000Y-68690000D03*
D14*
%TO.P,MA1,1,Pin_1*%
%TO.N,PWMA*%
X161300000Y-71190000D03*
%TD*%
D15*
%TO.P,LS1,3,Pin_3*%
%TO.N,+3V3*%
X194485000Y-66190000D03*
%TO.P,LS1,2,Pin_2*%
%TO.N,LS1_3V3*%
X194485000Y-68690000D03*
D16*
%TO.P,LS1,1,Pin_1*%
%TO.N,GND*%
X194485000Y-71190000D03*
%TD*%
D17*
%TO.P,DIP1,1*%
%TO.N,+3V3*%
X212600000Y-64932500D03*
D18*
%TO.P,DIP1,2*%
X210060000Y-64932500D03*
%TO.P,DIP1,3*%
X207520000Y-64932500D03*
%TO.P,DIP1,4*%
X204980000Y-64932500D03*
%TO.P,DIP1,5*%
%TO.N,S4*%
X204980000Y-72552500D03*
%TO.P,DIP1,6*%
%TO.N,S3*%
X207520000Y-72552500D03*
%TO.P,DIP1,7*%
%TO.N,S2*%
X210060000Y-72552500D03*
%TO.P,DIP1,8*%
%TO.N,S1*%
X212600000Y-72552500D03*
%TD*%
D19*
%TO.P,,1*%
%TO.N,N/C*%
X221920000Y-68049999D03*
%TD*%
%TO.P,,1*%
%TO.N,N/C*%
X146919999Y-111049999D03*
%TD*%
D20*
%TO.P,SW1,1,A*%
%TO.N,Net-(MA1-Pin_2)*%
X155300000Y-71300000D03*
D21*
%TO.P,SW1,2,B*%
%TO.N,+5V*%
X155300000Y-68800000D03*
%TO.P,SW1,3,C*%
%TO.N,Net-(MB1-Pin_2)*%
X155300000Y-66300000D03*
%TD*%
D13*
%TO.P,MB1,3,Pin_3*%
%TO.N,GND*%
X169600000Y-66190000D03*
%TO.P,MB1,2,Pin_2*%
%TO.N,Net-(MB1-Pin_2)*%
X169600000Y-68690000D03*
D14*
%TO.P,MB1,1,Pin_1*%
%TO.N,PWMB*%
X169600000Y-71190000D03*
%TD*%
D11*
%TO.P,MotorA1,2,Pin_2*%
%TO.N,GND*%
X181690000Y-109600000D03*
D12*
%TO.P,MotorA1,1,Pin_1*%
%TO.N,+BATT*%
X181690000Y-112100000D03*
%TD*%
D16*
%TO.P,IR3,1,Pin_1*%
%TO.N,+12V*%
X168260000Y-112100000D03*
D15*
%TO.P,IR3,2,Pin_2*%
%TO.N,IR3_3V3*%
X168260000Y-109600000D03*
%TO.P,IR3,3,Pin_3*%
%TO.N,GND*%
X168260000Y-107100000D03*
%TD*%
D22*
%TO.P,IMU1,1,VCC*%
%TO.N,+3V3*%
X215960000Y-77630000D03*
D23*
%TO.P,IMU1,2,GND*%
%TO.N,GND*%
X215960000Y-80170000D03*
%TO.P,IMU1,3,SCL*%
%TO.N,SCL*%
X215960000Y-82710000D03*
%TO.P,IMU1,4,SDA*%
%TO.N,SDA*%
X215960000Y-85250000D03*
%TO.P,IMU1,5,EDA*%
%TO.N,unconnected-(IMU1-EDA-Pad5)*%
X215960000Y-87790000D03*
%TO.P,IMU1,6,ECL*%
%TO.N,unconnected-(IMU1-ECL-Pad6)*%
X215960000Y-90330000D03*
%TO.P,IMU1,7,ADO*%
%TO.N,unconnected-(IMU1-ADO-Pad7)*%
X215960000Y-92870000D03*
%TO.P,IMU1,8,INT*%
%TO.N,INT*%
X215960000Y-95410000D03*
%TO.P,IMU1,9,NCS*%
%TO.N,unconnected-(IMU1-NCS-Pad9)*%
X215960000Y-97950000D03*
%TO.P,IMU1,10,FSYNC*%
%TO.N,unconnected-(IMU1-FSYNC-Pad10)*%
X215960000Y-100490000D03*
%TD*%
D24*
%TO.P,BUCK1,1,VIN*%
%TO.N,+BATT*%
X204030000Y-113500000D03*
%TO.P,BUCK1,2,GND*%
%TO.N,GND*%
X204030000Y-104500000D03*
%TO.P,BUCK1,3,VOUT*%
%TO.N,+3V3S*%
X220570000Y-113500000D03*
%TO.P,BUCK1,4,GND*%
%TO.N,GND*%
X220570000Y-104500000D03*
%TD*%
D15*
%TO.P,LS2,3,Pin_3*%
%TO.N,+3V3*%
X186200000Y-66190000D03*
%TO.P,LS2,2,Pin_2*%
%TO.N,LS2_3V3*%
X186200000Y-68690000D03*
D16*
%TO.P,LS2,1,Pin_1*%
%TO.N,GND*%
X186200000Y-71190000D03*
%TD*%
D11*
%TO.P,MotorB1,2,Pin_2*%
%TO.N,GND*%
X189082500Y-109600000D03*
D12*
%TO.P,MotorB1,1,Pin_1*%
%TO.N,+BATT*%
X189082500Y-112100000D03*
%TD*%
D15*
%TO.P,IR1,3,Pin_3*%
%TO.N,GND*%
X153475000Y-107100000D03*
%TO.P,IR1,2,Pin_2*%
%TO.N,IR1_3V3*%
X153475000Y-109600000D03*
D16*
%TO.P,IR1,1,Pin_1*%
%TO.N,+12V*%
X153475000Y-112100000D03*
%TD*%
D15*
%TO.P,KS1,3,Pin_3*%
%TO.N,+3V3*%
X177900000Y-66190000D03*
%TO.P,KS1,2,Pin_2*%
%TO.N,KILLSWITCH*%
X177900000Y-68690000D03*
D16*
%TO.P,KS1,1,Pin_1*%
%TO.N,GND*%
X177900000Y-71190000D03*
%TD*%
%TO.P,IR2,1,Pin_1*%
%TO.N,+12V*%
X160867500Y-112100000D03*
D15*
%TO.P,IR2,2,Pin_2*%
%TO.N,IR2_3V3*%
X160867500Y-109600000D03*
%TO.P,IR2,3,Pin_3*%
%TO.N,GND*%
X160867500Y-107100000D03*
%TD*%
D19*
%TO.P,,1*%
%TO.N,N/C*%
X146920000Y-68000000D03*
%TD*%
D20*
%TO.P,SW2,1,A*%
%TO.N,+BATT*%
X175797500Y-112100000D03*
D21*
%TO.P,SW2,2,B*%
%TO.N,+12V*%
X175797500Y-109600000D03*
%TO.P,SW2,3,C*%
%TO.N,unconnected-(SW2-C-Pad3)*%
X175797500Y-107100000D03*
%TD*%
D25*
%TO.P,R7,1*%
%TO.N,+3V3S*%
X170000000Y-95481250D03*
%TO.P,R7,2*%
%TO.N,IR3_3V3*%
X170000000Y-97306250D03*
%TD*%
%TO.P,R5,1*%
%TO.N,+3V3S*%
X162400000Y-95481250D03*
%TO.P,R5,2*%
%TO.N,IR2_3V3*%
X162400000Y-97306250D03*
%TD*%
D26*
%TO.P,R3,1*%
%TO.N,S2*%
X210100000Y-70112500D03*
%TO.P,R3,2*%
%TO.N,GND*%
X210100000Y-68287500D03*
%TD*%
%TO.P,R1,1*%
%TO.N,S4*%
X205000000Y-70112500D03*
%TO.P,R1,2*%
%TO.N,GND*%
X205000000Y-68287500D03*
%TD*%
%TO.P,R2,1*%
%TO.N,S3*%
X207500000Y-70112500D03*
%TO.P,R2,2*%
%TO.N,GND*%
X207500000Y-68287500D03*
%TD*%
%TO.P,R4,1*%
%TO.N,S1*%
X212600000Y-70112500D03*
%TO.P,R4,2*%
%TO.N,GND*%
X212600000Y-68287500D03*
%TD*%
D25*
%TO.P,R6,1*%
%TO.N,+3V3S*%
X157300000Y-95487500D03*
%TO.P,R6,2*%
%TO.N,IR1_3V3*%
X157300000Y-97312500D03*
%TD*%
D27*
%TO.N,+5V*%
X154820000Y-75380000D02*
X154820000Y-77600000D01*
X152630000Y-73190000D02*
X154820000Y-75380000D01*
X153680000Y-68800000D02*
X152630000Y-69850000D01*
X155300000Y-68800000D02*
X153680000Y-68800000D01*
X152630000Y-69850000D02*
X152630000Y-73190000D01*
%TO.N,+3V3*%
X200180000Y-66200000D02*
X178530000Y-66200000D01*
X201447500Y-64932500D02*
X200180000Y-66200000D01*
X212600000Y-64932500D02*
X201447500Y-64932500D01*
D28*
%TO.N,KILLSWITCH*%
X180560000Y-72670000D02*
X177680000Y-75550000D01*
X180560000Y-69660000D02*
X180560000Y-72670000D01*
X179590000Y-68690000D02*
X180560000Y-69660000D01*
X177680000Y-75550000D02*
X177680000Y-77600000D01*
X177900000Y-68690000D02*
X179590000Y-68690000D01*
%TO.N,LS2_3V3*%
X182800000Y-77560000D02*
X182760000Y-77600000D01*
X182800000Y-70630000D02*
X182800000Y-77560000D01*
X184740000Y-68690000D02*
X182800000Y-70630000D01*
X186200000Y-68690000D02*
X184740000Y-68690000D01*
%TO.N,LS1_3V3*%
X194190000Y-68690000D02*
X192960000Y-68690000D01*
X192960000Y-68690000D02*
X187840000Y-73810000D01*
X187840000Y-73810000D02*
X187840000Y-77000000D01*
%TO.N,S4*%
X194990000Y-72800000D02*
X190380000Y-77410000D01*
X204732500Y-72800000D02*
X194990000Y-72800000D01*
X204980000Y-72552500D02*
X204732500Y-72800000D01*
X190380000Y-77410000D02*
X190380000Y-77600000D01*
%TO.N,INT*%
X164980000Y-83790000D02*
X164980000Y-77600000D01*
X204860000Y-87990000D02*
X169180000Y-87990000D01*
X169180000Y-87990000D02*
X164980000Y-83790000D01*
X212280000Y-95410000D02*
X204860000Y-87990000D01*
X215960000Y-95410000D02*
X212280000Y-95410000D01*
%TO.N,SCL*%
X170060000Y-81460000D02*
X170060000Y-77600000D01*
X171310000Y-82710000D02*
X170060000Y-81460000D01*
X215960000Y-82710000D02*
X171310000Y-82710000D01*
%TO.N,SDA*%
X167520000Y-82940000D02*
X167520000Y-77600000D01*
X169830000Y-85250000D02*
X167520000Y-82940000D01*
X215960000Y-85250000D02*
X169830000Y-85250000D01*
D27*
%TO.N,+3V3*%
X214082500Y-64932500D02*
X212600000Y-64932500D01*
X215960000Y-66810000D02*
X214082500Y-64932500D01*
X215960000Y-77630000D02*
X215960000Y-66810000D01*
X215930000Y-77600000D02*
X215960000Y-77630000D01*
X205620000Y-77600000D02*
X215930000Y-77600000D01*
X203080000Y-77600000D02*
X205620000Y-77600000D01*
D29*
X215960000Y-77630000D02*
X215910000Y-77580000D01*
D28*
%TO.N,IR3_3V3*%
X171080000Y-104540000D02*
X170060000Y-103520000D01*
X170060000Y-103520000D02*
X170060000Y-100460000D01*
X171080000Y-108430000D02*
X171080000Y-104540000D01*
X168260000Y-109600000D02*
X169910000Y-109600000D01*
X169910000Y-109600000D02*
X171080000Y-108430000D01*
%TO.N,IR2_3V3*%
X162440000Y-102650000D02*
X162440000Y-100460000D01*
X163590000Y-108380000D02*
X163590000Y-103800000D01*
X163590000Y-103800000D02*
X162440000Y-102650000D01*
X162370000Y-109600000D02*
X163590000Y-108380000D01*
X160867500Y-109600000D02*
X162370000Y-109600000D01*
%TO.N,IR1_3V3*%
X157360000Y-106650000D02*
X157360000Y-100460000D01*
X154410000Y-109600000D02*
X157360000Y-106650000D01*
X153475000Y-109600000D02*
X154410000Y-109600000D01*
D27*
%TO.N,+3V3S*%
X210400000Y-106870000D02*
X217030000Y-113500000D01*
X217030000Y-113500000D02*
X219300000Y-113500000D01*
X205871250Y-95481250D02*
X210400000Y-100010000D01*
X173650000Y-95481250D02*
X205871250Y-95481250D01*
X210400000Y-100010000D02*
X210400000Y-106870000D01*
D29*
X173650000Y-95481250D02*
X170000000Y-95481250D01*
X162400000Y-95481250D02*
X170000000Y-95481250D01*
X162393750Y-95487500D02*
X162400000Y-95481250D01*
X157300000Y-95487500D02*
X162393750Y-95487500D01*
D27*
%TO.N,+BATT*%
X200510000Y-113500000D02*
X199110000Y-112100000D01*
X205300000Y-113500000D02*
X200510000Y-113500000D01*
X181690000Y-112100000D02*
X175797500Y-112100000D01*
X181690000Y-112100000D02*
X196475000Y-112100000D01*
X199110000Y-112100000D02*
X196475000Y-112100000D01*
D28*
%TO.N,S2*%
X210060000Y-72552500D02*
X210060000Y-74140000D01*
X199500000Y-74866666D02*
X198193334Y-74866666D01*
X210060000Y-72552500D02*
X210060000Y-70152500D01*
X210160000Y-72752500D02*
X210160000Y-72652500D01*
X210160000Y-72652500D02*
X210060000Y-72552500D01*
X209333334Y-74866666D02*
X199040000Y-74866666D01*
X198193334Y-74866666D02*
X195460000Y-77600000D01*
X210060000Y-70152500D02*
X210100000Y-70112500D01*
X210060000Y-74140000D02*
X209333334Y-74866666D01*
%TO.N,S1*%
X211500000Y-75900000D02*
X212700000Y-74700000D01*
X198000000Y-77600000D02*
X199700000Y-75900000D01*
X212700000Y-74700000D02*
X212700000Y-72752500D01*
X199700000Y-75900000D02*
X211500000Y-75900000D01*
X212600000Y-72552500D02*
X212600000Y-70112500D01*
%TO.N,S4*%
X204980000Y-70132500D02*
X205000000Y-70112500D01*
X204980000Y-72552500D02*
X204980000Y-70132500D01*
%TO.N,S3*%
X207520000Y-72552500D02*
X207520000Y-70132500D01*
X196686667Y-73833333D02*
X192920000Y-77600000D01*
X207520000Y-70132500D02*
X207500000Y-70112500D01*
X206072500Y-73833333D02*
X196686667Y-73833333D01*
X206966667Y-73833333D02*
X205800000Y-73833333D01*
X207520000Y-72552500D02*
X207520000Y-73280000D01*
X207520000Y-73280000D02*
X206966667Y-73833333D01*
D27*
%TO.N,+12V*%
X171018084Y-112100000D02*
X168260000Y-112100000D01*
X175797500Y-109600000D02*
X173518084Y-109600000D01*
X160867500Y-112100000D02*
X153300000Y-112100000D01*
X173518084Y-109600000D02*
X171018084Y-112100000D01*
X168260000Y-112100000D02*
X160867500Y-112100000D01*
D29*
%TO.N,IR1_3V3*%
X157300000Y-97312500D02*
X157300000Y-100500000D01*
%TO.N,IR2_3V3*%
X162400000Y-97306250D02*
X162400000Y-100493750D01*
%TO.N,IR3_3V3*%
X170000000Y-97306250D02*
X170000000Y-100493750D01*
D28*
%TO.N,Net-(MA1-Pin_2)*%
X160600000Y-69000000D02*
X158100000Y-71500000D01*
X154799999Y-71500000D02*
X154600000Y-71300001D01*
X158100000Y-71500000D02*
X154799999Y-71500000D01*
X161300000Y-69000000D02*
X160600000Y-69000000D01*
%TO.N,PWMA*%
X159900000Y-75400000D02*
X159900000Y-77600000D01*
X161300000Y-71500000D02*
X161300000Y-74000000D01*
X161300000Y-74000000D02*
X159900000Y-75400000D01*
%TO.N,Net-(MB1-Pin_2)*%
X156300001Y-64600000D02*
X155900001Y-65000000D01*
X155900001Y-65000000D02*
X154600000Y-66300001D01*
X169600000Y-69000000D02*
X165100000Y-64500000D01*
X156400001Y-64500000D02*
X155900001Y-65000000D01*
X165100000Y-64500000D02*
X156400001Y-64500000D01*
%TO.N,PWMB*%
X162440000Y-75760000D02*
X162440000Y-77000000D01*
X169600000Y-71500000D02*
X166700000Y-71500000D01*
X166700000Y-71500000D02*
X162440000Y-75760000D01*
%TD*%
%TA.AperFunction,Conductor*%
%TO.N,GND*%
G36*
X148091740Y-64495076D02*
G01*
X155037149Y-64502250D01*
X155104167Y-64522004D01*
X155149868Y-64574855D01*
X155159740Y-64644024D01*
X155130649Y-64707549D01*
X155124701Y-64713931D01*
X154825452Y-65013181D01*
X154764129Y-65046666D01*
X154737771Y-65049500D01*
X154701578Y-65049500D01*
X154507173Y-65080290D01*
X154319970Y-65141117D01*
X154144594Y-65230476D01*
X154067046Y-65286819D01*
X153985354Y-65346172D01*
X153985352Y-65346174D01*
X153985351Y-65346174D01*
X153846174Y-65485351D01*
X153846174Y-65485352D01*
X153846172Y-65485354D01*
X153841258Y-65492118D01*
X153730476Y-65644594D01*
X153641117Y-65819970D01*
X153580290Y-66007173D01*
X153549500Y-66201577D01*
X153549500Y-66398422D01*
X153580290Y-66592826D01*
X153641117Y-66780029D01*
X153701133Y-66897816D01*
X153730476Y-66955405D01*
X153846172Y-67114646D01*
X153985354Y-67253828D01*
X154083564Y-67325182D01*
X154126229Y-67380513D01*
X154132208Y-67450126D01*
X154099602Y-67511921D01*
X154038763Y-67546278D01*
X154010678Y-67549500D01*
X153581578Y-67549500D01*
X153387172Y-67580291D01*
X153326348Y-67600053D01*
X153326348Y-67600054D01*
X153288010Y-67612511D01*
X153199970Y-67641117D01*
X153055950Y-67714500D01*
X153024594Y-67730476D01*
X152933741Y-67796485D01*
X152865354Y-67846172D01*
X152865352Y-67846174D01*
X152865351Y-67846174D01*
X151676174Y-69035351D01*
X151676174Y-69035352D01*
X151676172Y-69035354D01*
X151645879Y-69077049D01*
X151560476Y-69194594D01*
X151470669Y-69370851D01*
X151469608Y-69374612D01*
X151410291Y-69557169D01*
X151410291Y-69557172D01*
X151379500Y-69751577D01*
X151379500Y-73288422D01*
X151410290Y-73482826D01*
X151471117Y-73670030D01*
X151516153Y-73758417D01*
X151560476Y-73845405D01*
X151676172Y-74004646D01*
X151676174Y-74004648D01*
X153533181Y-75861655D01*
X153566666Y-75922978D01*
X153569500Y-75949336D01*
X153569500Y-76839861D01*
X153565735Y-76866701D01*
X153566190Y-76866786D01*
X153565114Y-76872575D01*
X153554500Y-76991966D01*
X153554500Y-78208028D01*
X153554501Y-78208034D01*
X153565113Y-78327415D01*
X153621089Y-78523045D01*
X153621090Y-78523048D01*
X153621091Y-78523049D01*
X153715302Y-78703407D01*
X153730736Y-78722335D01*
X153843890Y-78861109D01*
X153920772Y-78923797D01*
X154001593Y-78989698D01*
X154181951Y-79083909D01*
X154377582Y-79139886D01*
X154496963Y-79150500D01*
X155143036Y-79150499D01*
X155262418Y-79139886D01*
X155458049Y-79083909D01*
X155638407Y-78989698D01*
X155796109Y-78861109D01*
X155924698Y-78703407D01*
X155980092Y-78597359D01*
X156028578Y-78547053D01*
X156096565Y-78530946D01*
X156162468Y-78554152D01*
X156199907Y-78597358D01*
X156255302Y-78703407D01*
X156383890Y-78861109D01*
X156460772Y-78923797D01*
X156541593Y-78989698D01*
X156721951Y-79083909D01*
X156917582Y-79139886D01*
X157036963Y-79150500D01*
X157683036Y-79150499D01*
X157802418Y-79139886D01*
X157998049Y-79083909D01*
X158178407Y-78989698D01*
X158336109Y-78861109D01*
X158464698Y-78703407D01*
X158520092Y-78597359D01*
X158568578Y-78547053D01*
X158636565Y-78530946D01*
X158702468Y-78554152D01*
X158739907Y-78597358D01*
X158795302Y-78703407D01*
X158923890Y-78861109D01*
X159000772Y-78923797D01*
X159081593Y-78989698D01*
X159261951Y-79083909D01*
X159457582Y-79139886D01*
X159576963Y-79150500D01*
X160223036Y-79150499D01*
X160342418Y-79139886D01*
X160538049Y-79083909D01*
X160718407Y-78989698D01*
X160876109Y-78861109D01*
X161004698Y-78703407D01*
X161060092Y-78597359D01*
X161108578Y-78547053D01*
X161176565Y-78530946D01*
X161242468Y-78554152D01*
X161279907Y-78597358D01*
X161335302Y-78703407D01*
X161463890Y-78861109D01*
X161540772Y-78923797D01*
X161621593Y-78989698D01*
X161801951Y-79083909D01*
X161997582Y-79139886D01*
X162116963Y-79150500D01*
X162763036Y-79150499D01*
X162882418Y-79139886D01*
X163078049Y-79083909D01*
X163258407Y-78989698D01*
X163416109Y-78861109D01*
X163544698Y-78703407D01*
X163600092Y-78597359D01*
X163648578Y-78547053D01*
X163716565Y-78530946D01*
X163782468Y-78554152D01*
X163819907Y-78597358D01*
X163875302Y-78703407D01*
X164003890Y-78861109D01*
X164025094Y-78878398D01*
X164161593Y-78989698D01*
X164161594Y-78989699D01*
X164162910Y-78990386D01*
X164163499Y-78990954D01*
X164166842Y-78993157D01*
X164166431Y-78993779D01*
X164213218Y-79038872D01*
X164229500Y-79100295D01*
X164229500Y-83863918D01*
X164229500Y-83863920D01*
X164229499Y-83863920D01*
X164258340Y-84008907D01*
X164258343Y-84008917D01*
X164314914Y-84145492D01*
X164347812Y-84194727D01*
X164347813Y-84194730D01*
X164397046Y-84268414D01*
X164397052Y-84268421D01*
X168701584Y-88572952D01*
X168701586Y-88572954D01*
X168731058Y-88592645D01*
X168775270Y-88622186D01*
X168824505Y-88655084D01*
X168824506Y-88655084D01*
X168824507Y-88655085D01*
X168824509Y-88655086D01*
X168961082Y-88711656D01*
X168961087Y-88711658D01*
X168961091Y-88711658D01*
X168961092Y-88711659D01*
X169106079Y-88740500D01*
X169106082Y-88740500D01*
X169106083Y-88740500D01*
X169253917Y-88740500D01*
X204497770Y-88740500D01*
X204564809Y-88760185D01*
X204585451Y-88776819D01*
X211697049Y-95888416D01*
X211801584Y-95992951D01*
X211801587Y-95992953D01*
X211801588Y-95992954D01*
X211924494Y-96075077D01*
X211924496Y-96075078D01*
X211924505Y-96075084D01*
X211955275Y-96087829D01*
X211955276Y-96087830D01*
X211955277Y-96087830D01*
X212061088Y-96131659D01*
X212177241Y-96154763D01*
X212196468Y-96158587D01*
X212206081Y-96160500D01*
X212206082Y-96160500D01*
X212206083Y-96160500D01*
X212353918Y-96160500D01*
X214772299Y-96160500D01*
X214839338Y-96180185D01*
X214873873Y-96213376D01*
X214921505Y-96281401D01*
X215088597Y-96448493D01*
X215088603Y-96448498D01*
X215274158Y-96578425D01*
X215317783Y-96633002D01*
X215324977Y-96702500D01*
X215293454Y-96764855D01*
X215274158Y-96781575D01*
X215088597Y-96911505D01*
X214921505Y-97078597D01*
X214785965Y-97272169D01*
X214785964Y-97272171D01*
X214686098Y-97486335D01*
X214686094Y-97486344D01*
X214624938Y-97714586D01*
X214624936Y-97714596D01*
X214604341Y-97949999D01*
X214604341Y-97950000D01*
X214624936Y-98185403D01*
X214624938Y-98185413D01*
X214686094Y-98413655D01*
X214686096Y-98413659D01*
X214686097Y-98413663D01*
X214785965Y-98627830D01*
X214785967Y-98627834D01*
X214921501Y-98821395D01*
X214921506Y-98821402D01*
X215088597Y-98988493D01*
X215088603Y-98988498D01*
X215274158Y-99118425D01*
X215317783Y-99173002D01*
X215324977Y-99242500D01*
X215293454Y-99304855D01*
X215274158Y-99321575D01*
X215088597Y-99451505D01*
X214921505Y-99618597D01*
X214785965Y-99812169D01*
X214785964Y-99812171D01*
X214686098Y-100026335D01*
X214686094Y-100026344D01*
X214624938Y-100254586D01*
X214624936Y-100254596D01*
X214604341Y-100489999D01*
X214604341Y-100490000D01*
X214624936Y-100725403D01*
X214624938Y-100725413D01*
X214686094Y-100953655D01*
X214686096Y-100953659D01*
X214686097Y-100953663D01*
X214739429Y-101068033D01*
X214785965Y-101167830D01*
X214785967Y-101167834D01*
X214894281Y-101322521D01*
X214921505Y-101361401D01*
X215088599Y-101528495D01*
X215185384Y-101596265D01*
X215282165Y-101664032D01*
X215282167Y-101664033D01*
X215282170Y-101664035D01*
X215496337Y-101763903D01*
X215724592Y-101825063D01*
X215912918Y-101841539D01*
X215959999Y-101845659D01*
X215960000Y-101845659D01*
X215960001Y-101845659D01*
X215999234Y-101842226D01*
X216195408Y-101825063D01*
X216423663Y-101763903D01*
X216637830Y-101664035D01*
X216831401Y-101528495D01*
X216998495Y-101361401D01*
X217134035Y-101167830D01*
X217233903Y-100953663D01*
X217295063Y-100725408D01*
X217315659Y-100490000D01*
X217295063Y-100254592D01*
X217233903Y-100026337D01*
X217134035Y-99812171D01*
X217078310Y-99732586D01*
X216998494Y-99618597D01*
X216831402Y-99451506D01*
X216831396Y-99451501D01*
X216645842Y-99321575D01*
X216602217Y-99266998D01*
X216595023Y-99197500D01*
X216626546Y-99135145D01*
X216645842Y-99118425D01*
X216714566Y-99070304D01*
X216831401Y-98988495D01*
X216998495Y-98821401D01*
X217134035Y-98627830D01*
X217233903Y-98413663D01*
X217295063Y-98185408D01*
X217315659Y-97950000D01*
X217295063Y-97714592D01*
X217233903Y-97486337D01*
X217134035Y-97272171D01*
X217088899Y-97207709D01*
X216998494Y-97078597D01*
X216831402Y-96911506D01*
X216831396Y-96911501D01*
X216645842Y-96781575D01*
X216602217Y-96726998D01*
X216595023Y-96657500D01*
X216626546Y-96595145D01*
X216645842Y-96578425D01*
X216746869Y-96507685D01*
X216831401Y-96448495D01*
X216998495Y-96281401D01*
X217134035Y-96087830D01*
X217233903Y-95873663D01*
X217295063Y-95645408D01*
X217315659Y-95410000D01*
X217295063Y-95174592D01*
X217233903Y-94946337D01*
X217134035Y-94732171D01*
X217083151Y-94659500D01*
X216998494Y-94538597D01*
X216831402Y-94371506D01*
X216831396Y-94371501D01*
X216645842Y-94241575D01*
X216602217Y-94186998D01*
X216595023Y-94117500D01*
X216626546Y-94055145D01*
X216645842Y-94038425D01*
X216668026Y-94022891D01*
X216831401Y-93908495D01*
X216998495Y-93741401D01*
X217134035Y-93547830D01*
X217233903Y-93333663D01*
X217295063Y-93105408D01*
X217315659Y-92870000D01*
X217295063Y-92634592D01*
X217233903Y-92406337D01*
X217134035Y-92192171D01*
X216998495Y-91998599D01*
X216998494Y-91998597D01*
X216831402Y-91831506D01*
X216831396Y-91831501D01*
X216645842Y-91701575D01*
X216602217Y-91646998D01*
X216595023Y-91577500D01*
X216626546Y-91515145D01*
X216645842Y-91498425D01*
X216668026Y-91482891D01*
X216831401Y-91368495D01*
X216998495Y-91201401D01*
X217134035Y-91007830D01*
X217233903Y-90793663D01*
X217295063Y-90565408D01*
X217315659Y-90330000D01*
X217295063Y-90094592D01*
X217233903Y-89866337D01*
X217134035Y-89652171D01*
X216998495Y-89458599D01*
X216998494Y-89458597D01*
X216831402Y-89291506D01*
X216831396Y-89291501D01*
X216645842Y-89161575D01*
X216602217Y-89106998D01*
X216595023Y-89037500D01*
X216626546Y-88975145D01*
X216645842Y-88958425D01*
X216668026Y-88942891D01*
X216831401Y-88828495D01*
X216998495Y-88661401D01*
X217134035Y-88467830D01*
X217233903Y-88253663D01*
X217295063Y-88025408D01*
X217315659Y-87790000D01*
X217295063Y-87554592D01*
X217233903Y-87326337D01*
X217134035Y-87112171D01*
X216998495Y-86918599D01*
X216998494Y-86918597D01*
X216831402Y-86751506D01*
X216831396Y-86751501D01*
X216645842Y-86621575D01*
X216602217Y-86566998D01*
X216595023Y-86497500D01*
X216626546Y-86435145D01*
X216645842Y-86418425D01*
X216668026Y-86402891D01*
X216831401Y-86288495D01*
X216998495Y-86121401D01*
X217134035Y-85927830D01*
X217233903Y-85713663D01*
X217295063Y-85485408D01*
X217315659Y-85250000D01*
X217295063Y-85014592D01*
X217233903Y-84786337D01*
X217134035Y-84572171D01*
X217083151Y-84499500D01*
X216998494Y-84378597D01*
X216831402Y-84211506D01*
X216831396Y-84211501D01*
X216645842Y-84081575D01*
X216602217Y-84026998D01*
X216595023Y-83957500D01*
X216626546Y-83895145D01*
X216645842Y-83878425D01*
X216668026Y-83862891D01*
X216831401Y-83748495D01*
X216998495Y-83581401D01*
X217134035Y-83387830D01*
X217233903Y-83173663D01*
X217295063Y-82945408D01*
X217315659Y-82710000D01*
X217295063Y-82474592D01*
X217233903Y-82246337D01*
X217134035Y-82032171D01*
X217083151Y-81959500D01*
X216998494Y-81838597D01*
X216831402Y-81671506D01*
X216831395Y-81671501D01*
X216637834Y-81535967D01*
X216637830Y-81535965D01*
X216633440Y-81533918D01*
X216423663Y-81436097D01*
X216423659Y-81436096D01*
X216423655Y-81436094D01*
X216195413Y-81374938D01*
X216195403Y-81374936D01*
X215960001Y-81354341D01*
X215959999Y-81354341D01*
X215724596Y-81374936D01*
X215724586Y-81374938D01*
X215496344Y-81436094D01*
X215496335Y-81436098D01*
X215282171Y-81535964D01*
X215282169Y-81535965D01*
X215088597Y-81671505D01*
X214921506Y-81838596D01*
X214873874Y-81906623D01*
X214819297Y-81950248D01*
X214772299Y-81959500D01*
X171672230Y-81959500D01*
X171605191Y-81939815D01*
X171584549Y-81923181D01*
X170846819Y-81185451D01*
X170813334Y-81124128D01*
X170810500Y-81097770D01*
X170810500Y-79100295D01*
X170830185Y-79033256D01*
X170873496Y-78993670D01*
X170873158Y-78993157D01*
X170876385Y-78991030D01*
X170877090Y-78990386D01*
X170878405Y-78989699D01*
X170878404Y-78989699D01*
X170878407Y-78989698D01*
X171036109Y-78861109D01*
X171164698Y-78703407D01*
X171220092Y-78597359D01*
X171268578Y-78547053D01*
X171336565Y-78530946D01*
X171402468Y-78554152D01*
X171439907Y-78597358D01*
X171495302Y-78703407D01*
X171623890Y-78861109D01*
X171700772Y-78923797D01*
X171781593Y-78989698D01*
X171961951Y-79083909D01*
X172157582Y-79139886D01*
X172276963Y-79150500D01*
X172923036Y-79150499D01*
X173042418Y-79139886D01*
X173238049Y-79083909D01*
X173418407Y-78989698D01*
X173576109Y-78861109D01*
X173704698Y-78703407D01*
X173760092Y-78597359D01*
X173808578Y-78547053D01*
X173876565Y-78530946D01*
X173942468Y-78554152D01*
X173979907Y-78597358D01*
X174035302Y-78703407D01*
X174163890Y-78861109D01*
X174240772Y-78923797D01*
X174321593Y-78989698D01*
X174501951Y-79083909D01*
X174697582Y-79139886D01*
X174816963Y-79150500D01*
X175463036Y-79150499D01*
X175582418Y-79139886D01*
X175778049Y-79083909D01*
X175958407Y-78989698D01*
X176116109Y-78861109D01*
X176244698Y-78703407D01*
X176300092Y-78597359D01*
X176348578Y-78547053D01*
X176416565Y-78530946D01*
X176482468Y-78554152D01*
X176519907Y-78597358D01*
X176575302Y-78703407D01*
X176703890Y-78861109D01*
X176780772Y-78923797D01*
X176861593Y-78989698D01*
X177041951Y-79083909D01*
X177237582Y-79139886D01*
X177356963Y-79150500D01*
X178003036Y-79150499D01*
X178122418Y-79139886D01*
X178318049Y-79083909D01*
X178498407Y-78989698D01*
X178656109Y-78861109D01*
X178784698Y-78703407D01*
X178840092Y-78597359D01*
X178888578Y-78547053D01*
X178956565Y-78530946D01*
X179022468Y-78554152D01*
X179059907Y-78597358D01*
X179115302Y-78703407D01*
X179243890Y-78861109D01*
X179320772Y-78923797D01*
X179401593Y-78989698D01*
X179581951Y-79083909D01*
X179777582Y-79139886D01*
X179896963Y-79150500D01*
X180543036Y-79150499D01*
X180662418Y-79139886D01*
X180858049Y-79083909D01*
X181038407Y-78989698D01*
X181196109Y-78861109D01*
X181324698Y-78703407D01*
X181380092Y-78597359D01*
X181428578Y-78547053D01*
X181496565Y-78530946D01*
X181562468Y-78554152D01*
X181599907Y-78597358D01*
X181655302Y-78703407D01*
X181783890Y-78861109D01*
X181860772Y-78923797D01*
X181941593Y-78989698D01*
X182121951Y-79083909D01*
X182317582Y-79139886D01*
X182436963Y-79150500D01*
X183083036Y-79150499D01*
X183202418Y-79139886D01*
X183398049Y-79083909D01*
X183578407Y-78989698D01*
X183736109Y-78861109D01*
X183864698Y-78703407D01*
X183920092Y-78597359D01*
X183968578Y-78547053D01*
X184036565Y-78530946D01*
X184102468Y-78554152D01*
X184139907Y-78597358D01*
X184195302Y-78703407D01*
X184323890Y-78861109D01*
X184400772Y-78923797D01*
X184481593Y-78989698D01*
X184661951Y-79083909D01*
X184857582Y-79139886D01*
X184976963Y-79150500D01*
X185623036Y-79150499D01*
X185742418Y-79139886D01*
X185938049Y-79083909D01*
X186118407Y-78989698D01*
X186276109Y-78861109D01*
X186404698Y-78703407D01*
X186460092Y-78597359D01*
X186508578Y-78547053D01*
X186576565Y-78530946D01*
X186642468Y-78554152D01*
X186679907Y-78597358D01*
X186735302Y-78703407D01*
X186863890Y-78861109D01*
X186940772Y-78923797D01*
X187021593Y-78989698D01*
X187201951Y-79083909D01*
X187397582Y-79139886D01*
X187516963Y-79150500D01*
X188163036Y-79150499D01*
X188282418Y-79139886D01*
X188478049Y-79083909D01*
X188658407Y-78989698D01*
X188816109Y-78861109D01*
X188944698Y-78703407D01*
X189000092Y-78597359D01*
X189048578Y-78547053D01*
X189116565Y-78530946D01*
X189182468Y-78554152D01*
X189219907Y-78597358D01*
X189275302Y-78703407D01*
X189403890Y-78861109D01*
X189480772Y-78923797D01*
X189561593Y-78989698D01*
X189741951Y-79083909D01*
X189937582Y-79139886D01*
X190056963Y-79150500D01*
X190703036Y-79150499D01*
X190822418Y-79139886D01*
X191018049Y-79083909D01*
X191198407Y-78989698D01*
X191356109Y-78861109D01*
X191484698Y-78703407D01*
X191540092Y-78597359D01*
X191588578Y-78547053D01*
X191656565Y-78530946D01*
X191722468Y-78554152D01*
X191759907Y-78597358D01*
X191815302Y-78703407D01*
X191943890Y-78861109D01*
X192020772Y-78923797D01*
X192101593Y-78989698D01*
X192281951Y-79083909D01*
X192477582Y-79139886D01*
X192596963Y-79150500D01*
X193243036Y-79150499D01*
X193362418Y-79139886D01*
X193558049Y-79083909D01*
X193738407Y-78989698D01*
X193896109Y-78861109D01*
X194024698Y-78703407D01*
X194080092Y-78597359D01*
X194128578Y-78547053D01*
X194196565Y-78530946D01*
X194262468Y-78554152D01*
X194299907Y-78597358D01*
X194355302Y-78703407D01*
X194483890Y-78861109D01*
X194560772Y-78923797D01*
X194641593Y-78989698D01*
X194821951Y-79083909D01*
X195017582Y-79139886D01*
X195136963Y-79150500D01*
X195783036Y-79150499D01*
X195902418Y-79139886D01*
X196098049Y-79083909D01*
X196278407Y-78989698D01*
X196436109Y-78861109D01*
X196564698Y-78703407D01*
X196620092Y-78597359D01*
X196668578Y-78547053D01*
X196736565Y-78530946D01*
X196802468Y-78554152D01*
X196839907Y-78597358D01*
X196895302Y-78703407D01*
X197023890Y-78861109D01*
X197100772Y-78923797D01*
X197181593Y-78989698D01*
X197361951Y-79083909D01*
X197557582Y-79139886D01*
X197676963Y-79150500D01*
X198323036Y-79150499D01*
X198442418Y-79139886D01*
X198638049Y-79083909D01*
X198818407Y-78989698D01*
X198976109Y-78861109D01*
X199104698Y-78703407D01*
X199160092Y-78597359D01*
X199208578Y-78547053D01*
X199276565Y-78530946D01*
X199342468Y-78554152D01*
X199379907Y-78597358D01*
X199435302Y-78703407D01*
X199563890Y-78861109D01*
X199640772Y-78923797D01*
X199721593Y-78989698D01*
X199901951Y-79083909D01*
X200097582Y-79139886D01*
X200216963Y-79150500D01*
X200863036Y-79150499D01*
X200982418Y-79139886D01*
X201178049Y-79083909D01*
X201358407Y-78989698D01*
X201516109Y-78861109D01*
X201644698Y-78703407D01*
X201700092Y-78597359D01*
X201748578Y-78547053D01*
X201816565Y-78530946D01*
X201882468Y-78554152D01*
X201919907Y-78597358D01*
X201975302Y-78703407D01*
X202103890Y-78861109D01*
X202180772Y-78923797D01*
X202261593Y-78989698D01*
X202441951Y-79083909D01*
X202637582Y-79139886D01*
X202756963Y-79150500D01*
X203403036Y-79150499D01*
X203522418Y-79139886D01*
X203718049Y-79083909D01*
X203898407Y-78989698D01*
X204034906Y-78878397D01*
X204099301Y-78851289D01*
X204113266Y-78850500D01*
X204586734Y-78850500D01*
X204653773Y-78870185D01*
X204665088Y-78878393D01*
X204801593Y-78989698D01*
X204981951Y-79083909D01*
X205177582Y-79139886D01*
X205296963Y-79150500D01*
X205943036Y-79150499D01*
X206062418Y-79139886D01*
X206258049Y-79083909D01*
X206438407Y-78989698D01*
X206574906Y-78878397D01*
X206639301Y-78851289D01*
X206653266Y-78850500D01*
X214728486Y-78850500D01*
X214795525Y-78870185D01*
X214802797Y-78875233D01*
X214867668Y-78923795D01*
X214867671Y-78923797D01*
X215002517Y-78974091D01*
X215002516Y-78974091D01*
X215009444Y-78974835D01*
X215062127Y-78980500D01*
X216857872Y-78980499D01*
X216917483Y-78974091D01*
X217052331Y-78923796D01*
X217167546Y-78837546D01*
X217253796Y-78722331D01*
X217304091Y-78587483D01*
X217310500Y-78527873D01*
X217310499Y-76732128D01*
X217304091Y-76672517D01*
X217296791Y-76652946D01*
X217253797Y-76537671D01*
X217253795Y-76537668D01*
X217235233Y-76512872D01*
X217210816Y-76447408D01*
X217210500Y-76438561D01*
X217210500Y-68049997D01*
X219214564Y-68049997D01*
X219234289Y-68376098D01*
X219293178Y-68697451D01*
X219390366Y-69009341D01*
X219390370Y-69009353D01*
X219390373Y-69009360D01*
X219524455Y-69307278D01*
X219670268Y-69548481D01*
X219693473Y-69586867D01*
X219894954Y-69844038D01*
X220125960Y-70075044D01*
X220383131Y-70276525D01*
X220383134Y-70276527D01*
X220383137Y-70276529D01*
X220662721Y-70445544D01*
X220960639Y-70579626D01*
X220960652Y-70579630D01*
X220960657Y-70579632D01*
X221271562Y-70676513D01*
X221272547Y-70676820D01*
X221593896Y-70735709D01*
X221920000Y-70755435D01*
X222246104Y-70735709D01*
X222567453Y-70676820D01*
X222879361Y-70579626D01*
X223177279Y-70445544D01*
X223456863Y-70276529D01*
X223714036Y-70075047D01*
X223945048Y-69844035D01*
X224146530Y-69586862D01*
X224315545Y-69307278D01*
X224449627Y-69009360D01*
X224465209Y-68959357D01*
X224469366Y-68946014D01*
X224546821Y-68697452D01*
X224605710Y-68376103D01*
X224625436Y-68049999D01*
X224623918Y-68024911D01*
X224613107Y-67846174D01*
X224605710Y-67723895D01*
X224546821Y-67402546D01*
X224539589Y-67379336D01*
X224449633Y-67090656D01*
X224449631Y-67090651D01*
X224449627Y-67090638D01*
X224315545Y-66792720D01*
X224146530Y-66513136D01*
X224146528Y-66513133D01*
X224146526Y-66513130D01*
X223945045Y-66255959D01*
X223714039Y-66024953D01*
X223456868Y-65823472D01*
X223449306Y-65818900D01*
X223177279Y-65654454D01*
X222879361Y-65520372D01*
X222879354Y-65520369D01*
X222879342Y-65520365D01*
X222567452Y-65423177D01*
X222246099Y-65364288D01*
X221920000Y-65344563D01*
X221593900Y-65364288D01*
X221272547Y-65423177D01*
X220960657Y-65520365D01*
X220960641Y-65520371D01*
X220960639Y-65520372D01*
X220773819Y-65604453D01*
X220662725Y-65654452D01*
X220662723Y-65654453D01*
X220383131Y-65823472D01*
X220125960Y-66024953D01*
X219894954Y-66255959D01*
X219693473Y-66513130D01*
X219575421Y-66708412D01*
X219524455Y-66792720D01*
X219412875Y-67040642D01*
X219390372Y-67090641D01*
X219390366Y-67090656D01*
X219293178Y-67402546D01*
X219234289Y-67723899D01*
X219214564Y-68049997D01*
X217210500Y-68049997D01*
X217210500Y-66711577D01*
X217185505Y-66553769D01*
X217179709Y-66517174D01*
X217179708Y-66517170D01*
X217179708Y-66517169D01*
X217120391Y-66334612D01*
X217119329Y-66330847D01*
X217086592Y-66266597D01*
X217029524Y-66154595D01*
X216913828Y-65995354D01*
X215695152Y-64776678D01*
X215661667Y-64715355D01*
X215666651Y-64645663D01*
X215708523Y-64589730D01*
X215773987Y-64565313D01*
X215782931Y-64564998D01*
X223467108Y-64572935D01*
X223475892Y-64573256D01*
X223672634Y-64587457D01*
X223745792Y-64592738D01*
X223763210Y-64595247D01*
X224023325Y-64651799D01*
X224040200Y-64656745D01*
X224289700Y-64749554D01*
X224305701Y-64756836D01*
X224472154Y-64847371D01*
X224539549Y-64884028D01*
X224554372Y-64893512D01*
X224767848Y-65052517D01*
X224781179Y-65064003D01*
X224970000Y-65251627D01*
X224981572Y-65264886D01*
X225141935Y-65477356D01*
X225151512Y-65492118D01*
X225280179Y-65725139D01*
X225287568Y-65741103D01*
X225381958Y-65990004D01*
X225387014Y-66006859D01*
X225445216Y-66266597D01*
X225447836Y-66283999D01*
X225469030Y-66553769D01*
X225469408Y-66562565D01*
X225814373Y-113266307D01*
X225795184Y-113333490D01*
X225794957Y-113333848D01*
X225608685Y-113626238D01*
X225602480Y-113635100D01*
X225370111Y-113937928D01*
X225363158Y-113946214D01*
X225105279Y-114227641D01*
X225097629Y-114235290D01*
X224816217Y-114493156D01*
X224807930Y-114500110D01*
X224674751Y-114602301D01*
X224626570Y-114624881D01*
X224443947Y-114666107D01*
X224425810Y-114668812D01*
X224144604Y-114689661D01*
X224135436Y-114690000D01*
X223530202Y-114690000D01*
X223463163Y-114670315D01*
X223417408Y-114617511D01*
X223407464Y-114548353D01*
X223427902Y-114495923D01*
X223429798Y-114493155D01*
X223464629Y-114442308D01*
X223553670Y-114240649D01*
X223604141Y-114026062D01*
X223610500Y-113934445D01*
X223610499Y-113065556D01*
X223607291Y-113019336D01*
X223604141Y-112973940D01*
X223604140Y-112973931D01*
X223553672Y-112759359D01*
X223553671Y-112759357D01*
X223553670Y-112759351D01*
X223549542Y-112750001D01*
X223464630Y-112557694D01*
X223464629Y-112557692D01*
X223340049Y-112375827D01*
X223184173Y-112219951D01*
X223002308Y-112095371D01*
X223002307Y-112095370D01*
X223002305Y-112095369D01*
X222800655Y-112006332D01*
X222800640Y-112006327D01*
X222586072Y-111955860D01*
X222586056Y-111955858D01*
X222494448Y-111949500D01*
X218645551Y-111949500D01*
X218553940Y-111955858D01*
X218553931Y-111955859D01*
X218339359Y-112006327D01*
X218339344Y-112006332D01*
X218137694Y-112095369D01*
X217955827Y-112219951D01*
X217954691Y-112220895D01*
X217954038Y-112221176D01*
X217951098Y-112223191D01*
X217950703Y-112222615D01*
X217890541Y-112248581D01*
X217875471Y-112249500D01*
X217599336Y-112249500D01*
X217532297Y-112229815D01*
X217511655Y-112213181D01*
X211686819Y-106388345D01*
X211653334Y-106327022D01*
X211650500Y-106300664D01*
X211650500Y-99911577D01*
X211632586Y-99798483D01*
X211619709Y-99717174D01*
X211619708Y-99717170D01*
X211619708Y-99717169D01*
X211560391Y-99534612D01*
X211559329Y-99530847D01*
X211524575Y-99462639D01*
X211469524Y-99354595D01*
X211353829Y-99195355D01*
X206685896Y-94527422D01*
X206526655Y-94411726D01*
X206351280Y-94322367D01*
X206164076Y-94261540D01*
X205969672Y-94230750D01*
X205969667Y-94230750D01*
X173551583Y-94230750D01*
X173551578Y-94230750D01*
X173357173Y-94261540D01*
X173169970Y-94322367D01*
X172994591Y-94411728D01*
X172932186Y-94457068D01*
X172866380Y-94480548D01*
X172859301Y-94480750D01*
X162301458Y-94480750D01*
X162282018Y-94484617D01*
X162257826Y-94487000D01*
X157201459Y-94487000D01*
X157150588Y-94497118D01*
X157126400Y-94499500D01*
X157013331Y-94499500D01*
X157013312Y-94499501D01*
X156912247Y-94509825D01*
X156748484Y-94564092D01*
X156748481Y-94564093D01*
X156601648Y-94654661D01*
X156479661Y-94776648D01*
X156389093Y-94923481D01*
X156389092Y-94923484D01*
X156334826Y-95087247D01*
X156334826Y-95087248D01*
X156334825Y-95087248D01*
X156324500Y-95188315D01*
X156324500Y-95251064D01*
X156322117Y-95275256D01*
X156299500Y-95388956D01*
X156299500Y-95586044D01*
X156322117Y-95699747D01*
X156324500Y-95723936D01*
X156324500Y-95786667D01*
X156324501Y-95786687D01*
X156334825Y-95887752D01*
X156389092Y-96051515D01*
X156389093Y-96051518D01*
X156403629Y-96075084D01*
X156452775Y-96154763D01*
X156479661Y-96198351D01*
X156593629Y-96312319D01*
X156627114Y-96373642D01*
X156622130Y-96443334D01*
X156593629Y-96487681D01*
X156479661Y-96601648D01*
X156389093Y-96748481D01*
X156389091Y-96748486D01*
X156361719Y-96831088D01*
X156334826Y-96912247D01*
X156334826Y-96912248D01*
X156334825Y-96912248D01*
X156324500Y-97013315D01*
X156324500Y-97076064D01*
X156322117Y-97100256D01*
X156299500Y-97213956D01*
X156299500Y-99258242D01*
X156279815Y-99325281D01*
X156271602Y-99336603D01*
X156255304Y-99356590D01*
X156161089Y-99536954D01*
X156116332Y-99693376D01*
X156109524Y-99717172D01*
X156105114Y-99732583D01*
X156105113Y-99732586D01*
X156094500Y-99851966D01*
X156094500Y-101068028D01*
X156094501Y-101068034D01*
X156105113Y-101187415D01*
X156161089Y-101383045D01*
X156161090Y-101383048D01*
X156161091Y-101383049D01*
X156255302Y-101563407D01*
X156255304Y-101563409D01*
X156383890Y-101721109D01*
X156436376Y-101763905D01*
X156541593Y-101849698D01*
X156541594Y-101849699D01*
X156542910Y-101850386D01*
X156543499Y-101850954D01*
X156546842Y-101853157D01*
X156546431Y-101853779D01*
X156593218Y-101898872D01*
X156609500Y-101960295D01*
X156609500Y-106287769D01*
X156589815Y-106354808D01*
X156573181Y-106375450D01*
X154655323Y-108293307D01*
X154594000Y-108326792D01*
X154529324Y-108323557D01*
X154403746Y-108282754D01*
X154246276Y-108257813D01*
X154193787Y-108249500D01*
X152756213Y-108249500D01*
X152707542Y-108257208D01*
X152546260Y-108282753D01*
X152546257Y-108282754D01*
X152355639Y-108344690D01*
X152344085Y-108348444D01*
X152154679Y-108444951D01*
X151982713Y-108569890D01*
X151832390Y-108720213D01*
X151707451Y-108892179D01*
X151610944Y-109081585D01*
X151545253Y-109283760D01*
X151541545Y-109307173D01*
X151512000Y-109493713D01*
X151512000Y-109706287D01*
X151545254Y-109916243D01*
X151601924Y-110090656D01*
X151610944Y-110118414D01*
X151707451Y-110307820D01*
X151832390Y-110479786D01*
X151971205Y-110618601D01*
X152004690Y-110679924D01*
X151999706Y-110749616D01*
X151957834Y-110805549D01*
X151948621Y-110811821D01*
X151793842Y-110907289D01*
X151669789Y-111031342D01*
X151577687Y-111180663D01*
X151577685Y-111180668D01*
X151549849Y-111264670D01*
X151522501Y-111347203D01*
X151522501Y-111347204D01*
X151522500Y-111347204D01*
X151512000Y-111449983D01*
X151512000Y-112750001D01*
X151512001Y-112750018D01*
X151522500Y-112852796D01*
X151522501Y-112852799D01*
X151562641Y-112973931D01*
X151577686Y-113019334D01*
X151669788Y-113168656D01*
X151793844Y-113292712D01*
X151943166Y-113384814D01*
X152109703Y-113439999D01*
X152212491Y-113450500D01*
X154737508Y-113450499D01*
X154840297Y-113439999D01*
X155006834Y-113384814D01*
X155032536Y-113368960D01*
X155097632Y-113350500D01*
X159244868Y-113350500D01*
X159309963Y-113368960D01*
X159335666Y-113384814D01*
X159502203Y-113439999D01*
X159604991Y-113450500D01*
X162130008Y-113450499D01*
X162232797Y-113439999D01*
X162399334Y-113384814D01*
X162425036Y-113368960D01*
X162490132Y-113350500D01*
X166637368Y-113350500D01*
X166702463Y-113368960D01*
X166728166Y-113384814D01*
X166894703Y-113439999D01*
X166997491Y-113450500D01*
X169522508Y-113450499D01*
X169625297Y-113439999D01*
X169791834Y-113384814D01*
X169817536Y-113368960D01*
X169882632Y-113350500D01*
X171116506Y-113350500D01*
X171310910Y-113319709D01*
X171498110Y-113258884D01*
X171673489Y-113169524D01*
X171832730Y-113053828D01*
X173893857Y-110992700D01*
X173955178Y-110959217D01*
X174024870Y-110964201D01*
X174080803Y-111006073D01*
X174105220Y-111071537D01*
X174097718Y-111123716D01*
X174053408Y-111242516D01*
X174047001Y-111302116D01*
X174047000Y-111302135D01*
X174047000Y-112897870D01*
X174047001Y-112897876D01*
X174053408Y-112957483D01*
X174103702Y-113092328D01*
X174103706Y-113092335D01*
X174189952Y-113207544D01*
X174189955Y-113207547D01*
X174305164Y-113293793D01*
X174305171Y-113293797D01*
X174440017Y-113344091D01*
X174440016Y-113344091D01*
X174446944Y-113344835D01*
X174499627Y-113350500D01*
X175689080Y-113350499D01*
X175689094Y-113350500D01*
X175699083Y-113350500D01*
X180529868Y-113350500D01*
X180594963Y-113368960D01*
X180620666Y-113384814D01*
X180787203Y-113439999D01*
X180889991Y-113450500D01*
X182490008Y-113450499D01*
X182592797Y-113439999D01*
X182759334Y-113384814D01*
X182785036Y-113368960D01*
X182850132Y-113350500D01*
X187922368Y-113350500D01*
X187987463Y-113368960D01*
X188013166Y-113384814D01*
X188179703Y-113439999D01*
X188282491Y-113450500D01*
X189882508Y-113450499D01*
X189985297Y-113439999D01*
X190151834Y-113384814D01*
X190177536Y-113368960D01*
X190242632Y-113350500D01*
X195314868Y-113350500D01*
X195379963Y-113368960D01*
X195405666Y-113384814D01*
X195572203Y-113439999D01*
X195674991Y-113450500D01*
X197275008Y-113450499D01*
X197377797Y-113439999D01*
X197544334Y-113384814D01*
X197570036Y-113368960D01*
X197635132Y-113350500D01*
X198540664Y-113350500D01*
X198607703Y-113370185D01*
X198628345Y-113386819D01*
X199695354Y-114453828D01*
X199711671Y-114465683D01*
X199754336Y-114521013D01*
X199760314Y-114590627D01*
X199727707Y-114652421D01*
X199666868Y-114686778D01*
X199638784Y-114690000D01*
X144321631Y-114690000D01*
X144254592Y-114670315D01*
X144246160Y-114664387D01*
X144032062Y-114500104D01*
X144023782Y-114493155D01*
X143742364Y-114235283D01*
X143734715Y-114227634D01*
X143476843Y-113946216D01*
X143469889Y-113937929D01*
X143237518Y-113635096D01*
X143231323Y-113626249D01*
X143029418Y-113309323D01*
X143010000Y-113242700D01*
X143010000Y-111049999D01*
X144214563Y-111049999D01*
X144234288Y-111376098D01*
X144293177Y-111697451D01*
X144390365Y-112009341D01*
X144390369Y-112009353D01*
X144390372Y-112009360D01*
X144524454Y-112307278D01*
X144675835Y-112557692D01*
X144693472Y-112586867D01*
X144894953Y-112844038D01*
X145125959Y-113075044D01*
X145383130Y-113276525D01*
X145383133Y-113276527D01*
X145383136Y-113276529D01*
X145662720Y-113445544D01*
X145960638Y-113579626D01*
X145960651Y-113579630D01*
X145960656Y-113579632D01*
X146124881Y-113630806D01*
X146272546Y-113676820D01*
X146593895Y-113735709D01*
X146919999Y-113755435D01*
X147246103Y-113735709D01*
X147567452Y-113676820D01*
X147879360Y-113579626D01*
X148177278Y-113445544D01*
X148456862Y-113276529D01*
X148714035Y-113075047D01*
X148945047Y-112844035D01*
X149146529Y-112586862D01*
X149315544Y-112307278D01*
X149449626Y-112009360D01*
X149546820Y-111697452D01*
X149605709Y-111376103D01*
X149625435Y-111049999D01*
X149605709Y-110723895D01*
X149546820Y-110402546D01*
X149523769Y-110328572D01*
X149449632Y-110090656D01*
X149449630Y-110090651D01*
X149449626Y-110090638D01*
X149315544Y-109792720D01*
X149146529Y-109513136D01*
X149146527Y-109513133D01*
X149146525Y-109513130D01*
X148945044Y-109255959D01*
X148714038Y-109024953D01*
X148456867Y-108823472D01*
X148447193Y-108817624D01*
X148177278Y-108654454D01*
X147879360Y-108520372D01*
X147879353Y-108520369D01*
X147879341Y-108520365D01*
X147567451Y-108423177D01*
X147246098Y-108364288D01*
X146919999Y-108344563D01*
X146593899Y-108364288D01*
X146272546Y-108423177D01*
X145960656Y-108520365D01*
X145960640Y-108520371D01*
X145960638Y-108520372D01*
X145786129Y-108598912D01*
X145662724Y-108654452D01*
X145662722Y-108654453D01*
X145383130Y-108823472D01*
X145125959Y-109024953D01*
X144894953Y-109255959D01*
X144693472Y-109513130D01*
X144524453Y-109792722D01*
X144524452Y-109792724D01*
X144390371Y-110090641D01*
X144390365Y-110090656D01*
X144293177Y-110402546D01*
X144234288Y-110723899D01*
X144214563Y-111049999D01*
X143010000Y-111049999D01*
X143010000Y-68000000D01*
X144214564Y-68000000D01*
X144234289Y-68326099D01*
X144293178Y-68647452D01*
X144390366Y-68959342D01*
X144390370Y-68959354D01*
X144390373Y-68959361D01*
X144524455Y-69257279D01*
X144611731Y-69401650D01*
X144693473Y-69536868D01*
X144894954Y-69794039D01*
X145125960Y-70025045D01*
X145383131Y-70226526D01*
X145383134Y-70226528D01*
X145383137Y-70226530D01*
X145662721Y-70395545D01*
X145960639Y-70529627D01*
X145960652Y-70529631D01*
X145960657Y-70529633D01*
X146045536Y-70556082D01*
X146272547Y-70626821D01*
X146593896Y-70685710D01*
X146920000Y-70705436D01*
X147246104Y-70685710D01*
X147567453Y-70626821D01*
X147846079Y-70539998D01*
X147879342Y-70529633D01*
X147879342Y-70529632D01*
X147879361Y-70529627D01*
X148177279Y-70395545D01*
X148456863Y-70226530D01*
X148714036Y-70025048D01*
X148945048Y-69794036D01*
X149146530Y-69536863D01*
X149315545Y-69257279D01*
X149449627Y-68959361D01*
X149546821Y-68647453D01*
X149605710Y-68326104D01*
X149625436Y-68000000D01*
X149605710Y-67673896D01*
X149546821Y-67352547D01*
X149516059Y-67253828D01*
X149449633Y-67040657D01*
X149449631Y-67040652D01*
X149449627Y-67040639D01*
X149315545Y-66742721D01*
X149146530Y-66463137D01*
X149146528Y-66463134D01*
X149146526Y-66463131D01*
X148945045Y-66205960D01*
X148714039Y-65974954D01*
X148456868Y-65773473D01*
X148449306Y-65768901D01*
X148177279Y-65604455D01*
X147879361Y-65470373D01*
X147879354Y-65470370D01*
X147879342Y-65470366D01*
X147567452Y-65373178D01*
X147246099Y-65314289D01*
X146920000Y-65294564D01*
X146593900Y-65314289D01*
X146272547Y-65373178D01*
X145960657Y-65470366D01*
X145960641Y-65470372D01*
X145960639Y-65470373D01*
X145849548Y-65520371D01*
X145662725Y-65604453D01*
X145662723Y-65604454D01*
X145383131Y-65773473D01*
X145125960Y-65974954D01*
X144894954Y-66205960D01*
X144693473Y-66463131D01*
X144660803Y-66517174D01*
X144524455Y-66742721D01*
X144444558Y-66920246D01*
X144390372Y-67040642D01*
X144390366Y-67040657D01*
X144293178Y-67352547D01*
X144234289Y-67673900D01*
X144214564Y-68000000D01*
X143010000Y-68000000D01*
X143010000Y-65857297D01*
X143029417Y-65790675D01*
X143231330Y-65473736D01*
X143237511Y-65464909D01*
X143469897Y-65162059D01*
X143476835Y-65153790D01*
X143734727Y-64872351D01*
X143742341Y-64864736D01*
X144023798Y-64606829D01*
X144032071Y-64599888D01*
X144140490Y-64516695D01*
X144205655Y-64491502D01*
X144216072Y-64491073D01*
X148091740Y-64495076D01*
G37*
%TD.AperFunction*%
%TA.AperFunction,Conductor*%
G36*
X172926340Y-96501435D02*
G01*
X172932186Y-96505432D01*
X172983950Y-96543040D01*
X172994595Y-96550774D01*
X173097986Y-96603454D01*
X173169970Y-96640132D01*
X173169972Y-96640132D01*
X173169975Y-96640134D01*
X173223422Y-96657500D01*
X173357173Y-96700959D01*
X173551578Y-96731750D01*
X173551583Y-96731750D01*
X205301914Y-96731750D01*
X205368953Y-96751435D01*
X205389595Y-96768069D01*
X209113181Y-100491655D01*
X209146666Y-100552978D01*
X209149500Y-100579336D01*
X209149500Y-106968422D01*
X209180290Y-107162826D01*
X209241117Y-107350030D01*
X209330476Y-107525405D01*
X209446172Y-107684646D01*
X209446174Y-107684648D01*
X216215354Y-114453828D01*
X216231671Y-114465683D01*
X216274336Y-114521013D01*
X216280314Y-114590627D01*
X216247707Y-114652421D01*
X216186868Y-114686778D01*
X216158784Y-114690000D01*
X206990202Y-114690000D01*
X206923163Y-114670315D01*
X206877408Y-114617511D01*
X206867464Y-114548353D01*
X206887902Y-114495923D01*
X206889798Y-114493155D01*
X206924629Y-114442308D01*
X207013670Y-114240649D01*
X207064141Y-114026062D01*
X207070500Y-113934445D01*
X207070499Y-113065556D01*
X207067291Y-113019336D01*
X207064141Y-112973940D01*
X207064140Y-112973931D01*
X207013672Y-112759359D01*
X207013671Y-112759357D01*
X207013670Y-112759351D01*
X207009542Y-112750001D01*
X206924630Y-112557694D01*
X206924629Y-112557692D01*
X206800049Y-112375827D01*
X206644173Y-112219951D01*
X206462308Y-112095371D01*
X206462307Y-112095370D01*
X206462305Y-112095369D01*
X206260655Y-112006332D01*
X206260640Y-112006327D01*
X206046072Y-111955860D01*
X206046056Y-111955858D01*
X205954448Y-111949500D01*
X202105551Y-111949500D01*
X202013940Y-111955858D01*
X202013931Y-111955859D01*
X201799359Y-112006327D01*
X201799344Y-112006332D01*
X201597694Y-112095369D01*
X201415827Y-112219951D01*
X201414691Y-112220895D01*
X201414038Y-112221176D01*
X201411098Y-112223191D01*
X201410703Y-112222615D01*
X201350541Y-112248581D01*
X201335471Y-112249500D01*
X201079336Y-112249500D01*
X201012297Y-112229815D01*
X200991655Y-112213181D01*
X199924648Y-111146174D01*
X199924646Y-111146172D01*
X199765405Y-111030476D01*
X199590030Y-110941117D01*
X199402826Y-110880290D01*
X199208422Y-110849500D01*
X199208417Y-110849500D01*
X197635132Y-110849500D01*
X197570036Y-110831039D01*
X197544334Y-110815186D01*
X197377797Y-110760001D01*
X197377795Y-110760000D01*
X197275010Y-110749500D01*
X195674998Y-110749500D01*
X195674981Y-110749501D01*
X195572203Y-110760000D01*
X195572200Y-110760001D01*
X195405668Y-110815185D01*
X195405663Y-110815187D01*
X195389933Y-110824889D01*
X195379963Y-110831039D01*
X195314868Y-110849500D01*
X190242632Y-110849500D01*
X190177536Y-110831039D01*
X190151834Y-110815186D01*
X189985297Y-110760001D01*
X189985295Y-110760000D01*
X189882510Y-110749500D01*
X188282498Y-110749500D01*
X188282481Y-110749501D01*
X188179703Y-110760000D01*
X188179700Y-110760001D01*
X188013168Y-110815185D01*
X188013163Y-110815187D01*
X187997433Y-110824889D01*
X187987463Y-110831039D01*
X187922368Y-110849500D01*
X182850132Y-110849500D01*
X182785036Y-110831039D01*
X182759334Y-110815186D01*
X182592797Y-110760001D01*
X182592795Y-110760000D01*
X182490010Y-110749500D01*
X180889998Y-110749500D01*
X180889981Y-110749501D01*
X180787203Y-110760000D01*
X180787200Y-110760001D01*
X180620668Y-110815185D01*
X180620663Y-110815187D01*
X180604933Y-110824889D01*
X180594963Y-110831039D01*
X180529868Y-110849500D01*
X177086822Y-110849500D01*
X177019783Y-110829815D01*
X176974028Y-110777011D01*
X176964084Y-110707853D01*
X176993109Y-110644297D01*
X177013936Y-110625182D01*
X177022995Y-110618600D01*
X177112146Y-110553828D01*
X177251328Y-110414646D01*
X177367024Y-110255405D01*
X177456384Y-110080025D01*
X177517209Y-109892826D01*
X177548000Y-109698422D01*
X177548000Y-109501577D01*
X177517209Y-109307173D01*
X177456382Y-109119970D01*
X177367023Y-108944594D01*
X177251328Y-108785354D01*
X177112146Y-108646172D01*
X176952905Y-108530476D01*
X176815538Y-108460484D01*
X176764743Y-108412511D01*
X176747948Y-108344690D01*
X176770485Y-108278555D01*
X176815539Y-108239515D01*
X176952905Y-108169524D01*
X177112146Y-108053828D01*
X177251328Y-107914646D01*
X177367024Y-107755405D01*
X177456384Y-107580025D01*
X177517209Y-107392826D01*
X177523988Y-107350026D01*
X177548000Y-107198422D01*
X177548000Y-107001577D01*
X177517209Y-106807173D01*
X177456382Y-106619970D01*
X177367023Y-106444594D01*
X177251328Y-106285354D01*
X177112146Y-106146172D01*
X176952905Y-106030476D01*
X176777529Y-105941117D01*
X176590326Y-105880290D01*
X176395922Y-105849500D01*
X176395917Y-105849500D01*
X175199083Y-105849500D01*
X175199078Y-105849500D01*
X175004673Y-105880290D01*
X174817470Y-105941117D01*
X174642094Y-106030476D01*
X174551241Y-106096485D01*
X174482854Y-106146172D01*
X174482852Y-106146174D01*
X174482851Y-106146174D01*
X174343674Y-106285351D01*
X174343674Y-106285352D01*
X174343672Y-106285354D01*
X174332549Y-106300664D01*
X174227976Y-106444594D01*
X174138617Y-106619970D01*
X174077790Y-106807173D01*
X174047000Y-107001577D01*
X174047000Y-107198422D01*
X174077790Y-107392826D01*
X174138617Y-107580029D01*
X174227976Y-107755405D01*
X174343672Y-107914646D01*
X174482854Y-108053828D01*
X174572737Y-108119132D01*
X174581064Y-108125182D01*
X174623729Y-108180513D01*
X174629708Y-108250126D01*
X174597102Y-108311921D01*
X174536263Y-108346278D01*
X174508178Y-108349500D01*
X173419663Y-108349500D01*
X173344967Y-108361331D01*
X173326292Y-108364289D01*
X173326291Y-108364289D01*
X173225258Y-108380290D01*
X173225257Y-108380290D01*
X173038053Y-108441117D01*
X172862678Y-108530476D01*
X172792173Y-108581702D01*
X172703438Y-108646172D01*
X172703436Y-108646174D01*
X172703435Y-108646174D01*
X170536429Y-110813181D01*
X170475106Y-110846666D01*
X170448748Y-110849500D01*
X169882632Y-110849500D01*
X169817535Y-110831038D01*
X169786378Y-110811820D01*
X169739653Y-110759872D01*
X169728432Y-110690910D01*
X169756275Y-110626828D01*
X169763772Y-110618623D01*
X169902604Y-110479792D01*
X169970145Y-110386828D01*
X170025474Y-110344162D01*
X170046259Y-110338099D01*
X170128913Y-110321658D01*
X170265495Y-110265084D01*
X170330207Y-110221845D01*
X170388416Y-110182952D01*
X171662952Y-108908416D01*
X171712186Y-108834729D01*
X171745084Y-108785495D01*
X171801658Y-108648913D01*
X171811605Y-108598905D01*
X171830500Y-108503920D01*
X171830500Y-104466079D01*
X171801659Y-104321092D01*
X171801658Y-104321091D01*
X171801658Y-104321087D01*
X171745084Y-104184505D01*
X171712186Y-104135270D01*
X171695881Y-104110867D01*
X171662956Y-104061589D01*
X171662952Y-104061584D01*
X170846819Y-103245451D01*
X170813334Y-103184128D01*
X170810500Y-103157770D01*
X170810500Y-101960295D01*
X170830185Y-101893256D01*
X170873496Y-101853670D01*
X170873158Y-101853157D01*
X170876385Y-101851030D01*
X170877090Y-101850386D01*
X170878405Y-101849699D01*
X170878404Y-101849699D01*
X170878407Y-101849698D01*
X171036109Y-101721109D01*
X171164698Y-101563407D01*
X171220092Y-101457359D01*
X171268578Y-101407053D01*
X171336565Y-101390946D01*
X171402468Y-101414152D01*
X171439907Y-101457358D01*
X171477066Y-101528495D01*
X171495302Y-101563407D01*
X171623890Y-101721109D01*
X171676376Y-101763905D01*
X171781593Y-101849698D01*
X171961951Y-101943909D01*
X172157582Y-101999886D01*
X172276963Y-102010500D01*
X172923036Y-102010499D01*
X173042418Y-101999886D01*
X173238049Y-101943909D01*
X173418407Y-101849698D01*
X173576109Y-101721109D01*
X173704698Y-101563407D01*
X173760092Y-101457359D01*
X173808578Y-101407053D01*
X173876565Y-101390946D01*
X173942468Y-101414152D01*
X173979907Y-101457358D01*
X174017066Y-101528495D01*
X174035302Y-101563407D01*
X174163890Y-101721109D01*
X174216376Y-101763905D01*
X174321593Y-101849698D01*
X174501951Y-101943909D01*
X174697582Y-101999886D01*
X174816963Y-102010500D01*
X175463036Y-102010499D01*
X175582418Y-101999886D01*
X175778049Y-101943909D01*
X175958407Y-101849698D01*
X176116109Y-101721109D01*
X176244698Y-101563407D01*
X176300092Y-101457359D01*
X176348578Y-101407053D01*
X176416565Y-101390946D01*
X176482468Y-101414152D01*
X176519907Y-101457358D01*
X176557066Y-101528495D01*
X176575302Y-101563407D01*
X176703890Y-101721109D01*
X176756376Y-101763905D01*
X176861593Y-101849698D01*
X177041951Y-101943909D01*
X177237582Y-101999886D01*
X177356963Y-102010500D01*
X178003036Y-102010499D01*
X178122418Y-101999886D01*
X178318049Y-101943909D01*
X178498407Y-101849698D01*
X178656109Y-101721109D01*
X178784698Y-101563407D01*
X178840092Y-101457359D01*
X178888578Y-101407053D01*
X178956565Y-101390946D01*
X179022468Y-101414152D01*
X179059907Y-101457358D01*
X179097066Y-101528495D01*
X179115302Y-101563407D01*
X179243890Y-101721109D01*
X179296376Y-101763905D01*
X179401593Y-101849698D01*
X179581951Y-101943909D01*
X179777582Y-101999886D01*
X179896963Y-102010500D01*
X180543036Y-102010499D01*
X180662418Y-101999886D01*
X180858049Y-101943909D01*
X181038407Y-101849698D01*
X181196109Y-101721109D01*
X181324698Y-101563407D01*
X181380092Y-101457359D01*
X181428578Y-101407053D01*
X181496565Y-101390946D01*
X181562468Y-101414152D01*
X181599907Y-101457358D01*
X181637066Y-101528495D01*
X181655302Y-101563407D01*
X181783890Y-101721109D01*
X181836376Y-101763905D01*
X181941593Y-101849698D01*
X182121951Y-101943909D01*
X182317582Y-101999886D01*
X182436963Y-102010500D01*
X183083036Y-102010499D01*
X183202418Y-101999886D01*
X183398049Y-101943909D01*
X183578407Y-101849698D01*
X183736109Y-101721109D01*
X183864698Y-101563407D01*
X183920092Y-101457359D01*
X183968578Y-101407053D01*
X184036565Y-101390946D01*
X184102468Y-101414152D01*
X184139907Y-101457358D01*
X184177066Y-101528495D01*
X184195302Y-101563407D01*
X184323890Y-101721109D01*
X184376376Y-101763905D01*
X184481593Y-101849698D01*
X184661951Y-101943909D01*
X184857582Y-101999886D01*
X184976963Y-102010500D01*
X185623036Y-102010499D01*
X185742418Y-101999886D01*
X185938049Y-101943909D01*
X186118407Y-101849698D01*
X186276109Y-101721109D01*
X186404698Y-101563407D01*
X186460092Y-101457359D01*
X186508578Y-101407053D01*
X186576565Y-101390946D01*
X186642468Y-101414152D01*
X186679907Y-101457358D01*
X186717066Y-101528495D01*
X186735302Y-101563407D01*
X186863890Y-101721109D01*
X186916376Y-101763905D01*
X187021593Y-101849698D01*
X187201951Y-101943909D01*
X187397582Y-101999886D01*
X187516963Y-102010500D01*
X188163036Y-102010499D01*
X188282418Y-101999886D01*
X188478049Y-101943909D01*
X188658407Y-101849698D01*
X188816109Y-101721109D01*
X188944698Y-101563407D01*
X189000092Y-101457359D01*
X189048578Y-101407053D01*
X189116565Y-101390946D01*
X189182468Y-101414152D01*
X189219907Y-101457358D01*
X189257066Y-101528495D01*
X189275302Y-101563407D01*
X189403890Y-101721109D01*
X189456376Y-101763905D01*
X189561593Y-101849698D01*
X189741951Y-101943909D01*
X189937582Y-101999886D01*
X190056963Y-102010500D01*
X190703036Y-102010499D01*
X190822418Y-101999886D01*
X191018049Y-101943909D01*
X191198407Y-101849698D01*
X191356109Y-101721109D01*
X191484698Y-101563407D01*
X191540092Y-101457359D01*
X191588578Y-101407053D01*
X191656565Y-101390946D01*
X191722468Y-101414152D01*
X191759907Y-101457358D01*
X191797066Y-101528495D01*
X191815302Y-101563407D01*
X191943890Y-101721109D01*
X191996376Y-101763905D01*
X192101593Y-101849698D01*
X192281951Y-101943909D01*
X192477582Y-101999886D01*
X192596963Y-102010500D01*
X193243036Y-102010499D01*
X193362418Y-101999886D01*
X193558049Y-101943909D01*
X193738407Y-101849698D01*
X193896109Y-101721109D01*
X194024698Y-101563407D01*
X194080092Y-101457359D01*
X194128578Y-101407053D01*
X194196565Y-101390946D01*
X194262468Y-101414152D01*
X194299907Y-101457358D01*
X194337066Y-101528495D01*
X194355302Y-101563407D01*
X194483890Y-101721109D01*
X194536376Y-101763905D01*
X194641593Y-101849698D01*
X194821951Y-101943909D01*
X195017582Y-101999886D01*
X195136963Y-102010500D01*
X195783036Y-102010499D01*
X195902418Y-101999886D01*
X196098049Y-101943909D01*
X196278407Y-101849698D01*
X196436109Y-101721109D01*
X196564698Y-101563407D01*
X196620092Y-101457359D01*
X196668578Y-101407053D01*
X196736565Y-101390946D01*
X196802468Y-101414152D01*
X196839907Y-101457358D01*
X196877066Y-101528495D01*
X196895302Y-101563407D01*
X197023890Y-101721109D01*
X197076376Y-101763905D01*
X197181593Y-101849698D01*
X197361951Y-101943909D01*
X197557582Y-101999886D01*
X197676963Y-102010500D01*
X198323036Y-102010499D01*
X198442418Y-101999886D01*
X198638049Y-101943909D01*
X198818407Y-101849698D01*
X198976109Y-101721109D01*
X199104698Y-101563407D01*
X199160092Y-101457359D01*
X199208578Y-101407053D01*
X199276565Y-101390946D01*
X199342468Y-101414152D01*
X199379907Y-101457358D01*
X199417066Y-101528495D01*
X199435302Y-101563407D01*
X199563890Y-101721109D01*
X199616376Y-101763905D01*
X199721593Y-101849698D01*
X199901951Y-101943909D01*
X200097582Y-101999886D01*
X200216963Y-102010500D01*
X200863036Y-102010499D01*
X200982418Y-101999886D01*
X201178049Y-101943909D01*
X201358407Y-101849698D01*
X201516109Y-101721109D01*
X201644698Y-101563407D01*
X201700092Y-101457359D01*
X201748578Y-101407053D01*
X201816565Y-101390946D01*
X201882468Y-101414152D01*
X201919907Y-101457358D01*
X201957066Y-101528495D01*
X201975302Y-101563407D01*
X202103890Y-101721109D01*
X202156376Y-101763905D01*
X202261593Y-101849698D01*
X202441951Y-101943909D01*
X202637582Y-101999886D01*
X202756963Y-102010500D01*
X203403036Y-102010499D01*
X203522418Y-101999886D01*
X203718049Y-101943909D01*
X203898407Y-101849698D01*
X204056109Y-101721109D01*
X204184698Y-101563407D01*
X204278909Y-101383049D01*
X204334886Y-101187418D01*
X204345500Y-101068037D01*
X204345499Y-99851964D01*
X204334886Y-99732582D01*
X204278909Y-99536951D01*
X204184698Y-99356593D01*
X204111643Y-99266998D01*
X204056109Y-99198890D01*
X203898409Y-99070304D01*
X203898410Y-99070304D01*
X203898407Y-99070302D01*
X203718049Y-98976091D01*
X203718048Y-98976090D01*
X203718045Y-98976089D01*
X203600829Y-98942550D01*
X203522418Y-98920114D01*
X203522415Y-98920113D01*
X203522413Y-98920113D01*
X203456102Y-98914217D01*
X203403037Y-98909500D01*
X203403032Y-98909500D01*
X202756971Y-98909500D01*
X202756965Y-98909500D01*
X202756964Y-98909501D01*
X202745316Y-98910536D01*
X202637584Y-98920113D01*
X202441954Y-98976089D01*
X202351772Y-99023196D01*
X202261593Y-99070302D01*
X202261591Y-99070303D01*
X202261590Y-99070304D01*
X202103890Y-99198890D01*
X201975304Y-99356590D01*
X201975303Y-99356591D01*
X201975302Y-99356593D01*
X201919907Y-99462640D01*
X201871422Y-99512946D01*
X201803434Y-99529053D01*
X201737531Y-99505846D01*
X201700092Y-99462641D01*
X201644698Y-99356593D01*
X201571643Y-99266998D01*
X201516109Y-99198890D01*
X201358409Y-99070304D01*
X201358410Y-99070304D01*
X201358407Y-99070302D01*
X201178049Y-98976091D01*
X201178048Y-98976090D01*
X201178045Y-98976089D01*
X201060829Y-98942550D01*
X200982418Y-98920114D01*
X200982415Y-98920113D01*
X200982413Y-98920113D01*
X200916102Y-98914217D01*
X200863037Y-98909500D01*
X200863032Y-98909500D01*
X200216971Y-98909500D01*
X200216965Y-98909500D01*
X200216964Y-98909501D01*
X200205316Y-98910536D01*
X200097584Y-98920113D01*
X199901954Y-98976089D01*
X199811772Y-99023196D01*
X199721593Y-99070302D01*
X199721591Y-99070303D01*
X199721590Y-99070304D01*
X199563890Y-99198890D01*
X199435304Y-99356590D01*
X199435303Y-99356591D01*
X199435302Y-99356593D01*
X199379907Y-99462640D01*
X199331422Y-99512946D01*
X199263434Y-99529053D01*
X199197531Y-99505846D01*
X199160092Y-99462641D01*
X199104698Y-99356593D01*
X199031643Y-99266998D01*
X198976109Y-99198890D01*
X198818409Y-99070304D01*
X198818410Y-99070304D01*
X198818407Y-99070302D01*
X198638049Y-98976091D01*
X198638048Y-98976090D01*
X198638045Y-98976089D01*
X198520829Y-98942550D01*
X198442418Y-98920114D01*
X198442415Y-98920113D01*
X198442413Y-98920113D01*
X198376102Y-98914217D01*
X198323037Y-98909500D01*
X198323032Y-98909500D01*
X197676971Y-98909500D01*
X197676965Y-98909500D01*
X197676964Y-98909501D01*
X197665316Y-98910536D01*
X197557584Y-98920113D01*
X197361954Y-98976089D01*
X197271772Y-99023196D01*
X197181593Y-99070302D01*
X197181591Y-99070303D01*
X197181590Y-99070304D01*
X197023890Y-99198890D01*
X196895304Y-99356590D01*
X196895303Y-99356591D01*
X196895302Y-99356593D01*
X196839907Y-99462640D01*
X196791422Y-99512946D01*
X196723434Y-99529053D01*
X196657531Y-99505846D01*
X196620092Y-99462641D01*
X196564698Y-99356593D01*
X196491643Y-99266998D01*
X196436109Y-99198890D01*
X196278409Y-99070304D01*
X196278410Y-99070304D01*
X196278407Y-99070302D01*
X196098049Y-98976091D01*
X196098048Y-98976090D01*
X196098045Y-98976089D01*
X195980829Y-98942550D01*
X195902418Y-98920114D01*
X195902415Y-98920113D01*
X195902413Y-98920113D01*
X195836102Y-98914217D01*
X195783037Y-98909500D01*
X195783032Y-98909500D01*
X195136971Y-98909500D01*
X195136965Y-98909500D01*
X195136964Y-98909501D01*
X195125316Y-98910536D01*
X195017584Y-98920113D01*
X194821954Y-98976089D01*
X194731772Y-99023196D01*
X194641593Y-99070302D01*
X194641591Y-99070303D01*
X194641590Y-99070304D01*
X194483890Y-99198890D01*
X194355304Y-99356590D01*
X194355303Y-99356591D01*
X194355302Y-99356593D01*
X194299907Y-99462640D01*
X194251422Y-99512946D01*
X194183434Y-99529053D01*
X194117531Y-99505846D01*
X194080092Y-99462641D01*
X194024698Y-99356593D01*
X193951643Y-99266998D01*
X193896109Y-99198890D01*
X193738409Y-99070304D01*
X193738410Y-99070304D01*
X193738407Y-99070302D01*
X193558049Y-98976091D01*
X193558048Y-98976090D01*
X193558045Y-98976089D01*
X193440829Y-98942550D01*
X193362418Y-98920114D01*
X193362415Y-98920113D01*
X193362413Y-98920113D01*
X193296102Y-98914217D01*
X193243037Y-98909500D01*
X193243032Y-98909500D01*
X192596971Y-98909500D01*
X192596965Y-98909500D01*
X192596964Y-98909501D01*
X192585316Y-98910536D01*
X192477584Y-98920113D01*
X192281954Y-98976089D01*
X192191772Y-99023196D01*
X192101593Y-99070302D01*
X192101591Y-99070303D01*
X192101590Y-99070304D01*
X191943890Y-99198890D01*
X191815304Y-99356590D01*
X191815303Y-99356591D01*
X191815302Y-99356593D01*
X191759907Y-99462640D01*
X191711422Y-99512946D01*
X191643434Y-99529053D01*
X191577531Y-99505846D01*
X191540092Y-99462641D01*
X191484698Y-99356593D01*
X191411643Y-99266998D01*
X191356109Y-99198890D01*
X191198409Y-99070304D01*
X191198410Y-99070304D01*
X191198407Y-99070302D01*
X191018049Y-98976091D01*
X191018048Y-98976090D01*
X191018045Y-98976089D01*
X190900829Y-98942550D01*
X190822418Y-98920114D01*
X190822415Y-98920113D01*
X190822413Y-98920113D01*
X190756102Y-98914217D01*
X190703037Y-98909500D01*
X190703032Y-98909500D01*
X190056971Y-98909500D01*
X190056965Y-98909500D01*
X190056964Y-98909501D01*
X190045316Y-98910536D01*
X189937584Y-98920113D01*
X189741954Y-98976089D01*
X189651772Y-99023196D01*
X189561593Y-99070302D01*
X189561591Y-99070303D01*
X189561590Y-99070304D01*
X189403890Y-99198890D01*
X189275304Y-99356590D01*
X189275303Y-99356591D01*
X189275302Y-99356593D01*
X189219907Y-99462640D01*
X189171422Y-99512946D01*
X189103434Y-99529053D01*
X189037531Y-99505846D01*
X189000092Y-99462641D01*
X188944698Y-99356593D01*
X188871643Y-99266998D01*
X188816109Y-99198890D01*
X188658409Y-99070304D01*
X188658410Y-99070304D01*
X188658407Y-99070302D01*
X188478049Y-98976091D01*
X188478048Y-98976090D01*
X188478045Y-98976089D01*
X188360829Y-98942550D01*
X188282418Y-98920114D01*
X188282415Y-98920113D01*
X188282413Y-98920113D01*
X188216102Y-98914217D01*
X188163037Y-98909500D01*
X188163032Y-98909500D01*
X187516971Y-98909500D01*
X187516965Y-98909500D01*
X187516964Y-98909501D01*
X187505316Y-98910536D01*
X187397584Y-98920113D01*
X187201954Y-98976089D01*
X187111772Y-99023196D01*
X187021593Y-99070302D01*
X187021591Y-99070303D01*
X187021590Y-99070304D01*
X186863890Y-99198890D01*
X186735304Y-99356590D01*
X186735303Y-99356591D01*
X186735302Y-99356593D01*
X186679907Y-99462640D01*
X186631422Y-99512946D01*
X186563434Y-99529053D01*
X186497531Y-99505846D01*
X186460092Y-99462641D01*
X186404698Y-99356593D01*
X186331643Y-99266998D01*
X186276109Y-99198890D01*
X186118409Y-99070304D01*
X186118410Y-99070304D01*
X186118407Y-99070302D01*
X185938049Y-98976091D01*
X185938048Y-98976090D01*
X185938045Y-98976089D01*
X185820829Y-98942550D01*
X185742418Y-98920114D01*
X185742415Y-98920113D01*
X185742413Y-98920113D01*
X185676102Y-98914217D01*
X185623037Y-98909500D01*
X185623032Y-98909500D01*
X184976971Y-98909500D01*
X184976965Y-98909500D01*
X184976964Y-98909501D01*
X184965316Y-98910536D01*
X184857584Y-98920113D01*
X184661954Y-98976089D01*
X184571772Y-99023196D01*
X184481593Y-99070302D01*
X184481591Y-99070303D01*
X184481590Y-99070304D01*
X184323890Y-99198890D01*
X184195304Y-99356590D01*
X184195303Y-99356591D01*
X184195302Y-99356593D01*
X184139907Y-99462640D01*
X184091422Y-99512946D01*
X184023434Y-99529053D01*
X183957531Y-99505846D01*
X183920092Y-99462641D01*
X183864698Y-99356593D01*
X183791643Y-99266998D01*
X183736109Y-99198890D01*
X183578409Y-99070304D01*
X183578410Y-99070304D01*
X183578407Y-99070302D01*
X183398049Y-98976091D01*
X183398048Y-98976090D01*
X183398045Y-98976089D01*
X183280829Y-98942550D01*
X183202418Y-98920114D01*
X183202415Y-98920113D01*
X183202413Y-98920113D01*
X183136102Y-98914217D01*
X183083037Y-98909500D01*
X183083032Y-98909500D01*
X182436971Y-98909500D01*
X182436965Y-98909500D01*
X182436964Y-98909501D01*
X182425316Y-98910536D01*
X182317584Y-98920113D01*
X182121954Y-98976089D01*
X182031772Y-99023196D01*
X181941593Y-99070302D01*
X181941591Y-99070303D01*
X181941590Y-99070304D01*
X181783890Y-99198890D01*
X181655304Y-99356590D01*
X181655303Y-99356591D01*
X181655302Y-99356593D01*
X181599907Y-99462640D01*
X181551422Y-99512946D01*
X181483434Y-99529053D01*
X181417531Y-99505846D01*
X181380092Y-99462641D01*
X181324698Y-99356593D01*
X181251643Y-99266998D01*
X181196109Y-99198890D01*
X181038409Y-99070304D01*
X181038410Y-99070304D01*
X181038407Y-99070302D01*
X180858049Y-98976091D01*
X180858048Y-98976090D01*
X180858045Y-98976089D01*
X180740829Y-98942550D01*
X180662418Y-98920114D01*
X180662415Y-98920113D01*
X180662413Y-98920113D01*
X180596102Y-98914217D01*
X180543037Y-98909500D01*
X180543032Y-98909500D01*
X179896971Y-98909500D01*
X179896965Y-98909500D01*
X179896964Y-98909501D01*
X179885316Y-98910536D01*
X179777584Y-98920113D01*
X179581954Y-98976089D01*
X179491772Y-99023196D01*
X179401593Y-99070302D01*
X179401591Y-99070303D01*
X179401590Y-99070304D01*
X179243890Y-99198890D01*
X179115304Y-99356590D01*
X179115303Y-99356591D01*
X179115302Y-99356593D01*
X179059907Y-99462640D01*
X179011422Y-99512946D01*
X178943434Y-99529053D01*
X178877531Y-99505846D01*
X178840092Y-99462641D01*
X178784698Y-99356593D01*
X178711643Y-99266998D01*
X178656109Y-99198890D01*
X178498409Y-99070304D01*
X178498410Y-99070304D01*
X178498407Y-99070302D01*
X178318049Y-98976091D01*
X178318048Y-98976090D01*
X178318045Y-98976089D01*
X178200829Y-98942550D01*
X178122418Y-98920114D01*
X178122415Y-98920113D01*
X178122413Y-98920113D01*
X178056102Y-98914217D01*
X178003037Y-98909500D01*
X178003032Y-98909500D01*
X177356971Y-98909500D01*
X177356965Y-98909500D01*
X177356964Y-98909501D01*
X177345316Y-98910536D01*
X177237584Y-98920113D01*
X177041954Y-98976089D01*
X176951772Y-99023196D01*
X176861593Y-99070302D01*
X176861591Y-99070303D01*
X176861590Y-99070304D01*
X176703890Y-99198890D01*
X176575304Y-99356590D01*
X176575303Y-99356591D01*
X176575302Y-99356593D01*
X176519907Y-99462640D01*
X176471422Y-99512946D01*
X176403434Y-99529053D01*
X176337531Y-99505846D01*
X176300092Y-99462641D01*
X176244698Y-99356593D01*
X176171643Y-99266998D01*
X176116109Y-99198890D01*
X175958409Y-99070304D01*
X175958410Y-99070304D01*
X175958407Y-99070302D01*
X175778049Y-98976091D01*
X175778048Y-98976090D01*
X175778045Y-98976089D01*
X175660829Y-98942550D01*
X175582418Y-98920114D01*
X175582415Y-98920113D01*
X175582413Y-98920113D01*
X175516102Y-98914217D01*
X175463037Y-98909500D01*
X175463032Y-98909500D01*
X174816971Y-98909500D01*
X174816965Y-98909500D01*
X174816964Y-98909501D01*
X174805316Y-98910536D01*
X174697584Y-98920113D01*
X174501954Y-98976089D01*
X174411772Y-99023196D01*
X174321593Y-99070302D01*
X174321591Y-99070303D01*
X174321590Y-99070304D01*
X174163890Y-99198890D01*
X174035304Y-99356590D01*
X174035303Y-99356591D01*
X174035302Y-99356593D01*
X173979907Y-99462640D01*
X173931422Y-99512946D01*
X173863434Y-99529053D01*
X173797531Y-99505846D01*
X173760092Y-99462641D01*
X173704698Y-99356593D01*
X173631643Y-99266998D01*
X173576109Y-99198890D01*
X173418409Y-99070304D01*
X173418410Y-99070304D01*
X173418407Y-99070302D01*
X173238049Y-98976091D01*
X173238048Y-98976090D01*
X173238045Y-98976089D01*
X173120829Y-98942550D01*
X173042418Y-98920114D01*
X173042415Y-98920113D01*
X173042413Y-98920113D01*
X172976102Y-98914217D01*
X172923037Y-98909500D01*
X172923032Y-98909500D01*
X172276971Y-98909500D01*
X172276965Y-98909500D01*
X172276964Y-98909501D01*
X172265316Y-98910536D01*
X172157584Y-98920113D01*
X171961954Y-98976089D01*
X171871772Y-99023196D01*
X171781593Y-99070302D01*
X171781591Y-99070303D01*
X171781590Y-99070304D01*
X171623890Y-99198890D01*
X171495304Y-99356590D01*
X171495303Y-99356591D01*
X171495302Y-99356593D01*
X171439907Y-99462640D01*
X171391422Y-99512946D01*
X171323434Y-99529053D01*
X171257531Y-99505846D01*
X171220092Y-99462641D01*
X171164698Y-99356593D01*
X171036109Y-99198891D01*
X171036107Y-99198889D01*
X171032135Y-99194018D01*
X171033266Y-99193095D01*
X171003334Y-99138278D01*
X171000500Y-99111920D01*
X171000500Y-97207706D01*
X170977882Y-97094002D01*
X170975499Y-97069810D01*
X170975499Y-97007080D01*
X170975498Y-97007063D01*
X170965174Y-96905997D01*
X170922085Y-96775965D01*
X170910908Y-96742234D01*
X170910904Y-96742227D01*
X170866876Y-96670846D01*
X170848436Y-96603454D01*
X170869359Y-96536790D01*
X170923001Y-96492021D01*
X170972415Y-96481750D01*
X172859301Y-96481750D01*
X172926340Y-96501435D01*
G37*
%TD.AperFunction*%
%TA.AperFunction,Conductor*%
G36*
X161242468Y-101414152D02*
G01*
X161279907Y-101457358D01*
X161317066Y-101528495D01*
X161335302Y-101563407D01*
X161463890Y-101721109D01*
X161516376Y-101763905D01*
X161621593Y-101849698D01*
X161621594Y-101849699D01*
X161622910Y-101850386D01*
X161623499Y-101850954D01*
X161626842Y-101853157D01*
X161626431Y-101853779D01*
X161673218Y-101898872D01*
X161689500Y-101960295D01*
X161689500Y-102723918D01*
X161689500Y-102723920D01*
X161689499Y-102723920D01*
X161718340Y-102868907D01*
X161718343Y-102868917D01*
X161774912Y-103005488D01*
X161774916Y-103005495D01*
X161799028Y-103041581D01*
X161799029Y-103041584D01*
X161799030Y-103041584D01*
X161857051Y-103128420D01*
X161857052Y-103128421D01*
X162803181Y-104074548D01*
X162836666Y-104135871D01*
X162839500Y-104162229D01*
X162839500Y-108017769D01*
X162819815Y-108084808D01*
X162803181Y-108105450D01*
X162422482Y-108486148D01*
X162361159Y-108519633D01*
X162291467Y-108514649D01*
X162261916Y-108498785D01*
X162187819Y-108444951D01*
X162187818Y-108444950D01*
X162187816Y-108444949D01*
X162001468Y-108350000D01*
X161998414Y-108348444D01*
X161998413Y-108348443D01*
X161998412Y-108348443D01*
X161796243Y-108282754D01*
X161796241Y-108282753D01*
X161796240Y-108282753D01*
X161634957Y-108257208D01*
X161586287Y-108249500D01*
X160148713Y-108249500D01*
X160100042Y-108257208D01*
X159938760Y-108282753D01*
X159938757Y-108282754D01*
X159748139Y-108344690D01*
X159736585Y-108348444D01*
X159547179Y-108444951D01*
X159375213Y-108569890D01*
X159224890Y-108720213D01*
X159099951Y-108892179D01*
X159003444Y-109081585D01*
X158937753Y-109283760D01*
X158934045Y-109307173D01*
X158904500Y-109493713D01*
X158904500Y-109706287D01*
X158937754Y-109916243D01*
X158994424Y-110090656D01*
X159003444Y-110118414D01*
X159099951Y-110307820D01*
X159224890Y-110479786D01*
X159363705Y-110618601D01*
X159397190Y-110679924D01*
X159392206Y-110749616D01*
X159350334Y-110805549D01*
X159341123Y-110811819D01*
X159309967Y-110831037D01*
X159244868Y-110849500D01*
X155097632Y-110849500D01*
X155032535Y-110831038D01*
X155001378Y-110811820D01*
X154954653Y-110759872D01*
X154943432Y-110690910D01*
X154971275Y-110626828D01*
X154978772Y-110618623D01*
X155117604Y-110479792D01*
X155242551Y-110307816D01*
X155339057Y-110118412D01*
X155404746Y-109916243D01*
X155438000Y-109706287D01*
X155438000Y-109684730D01*
X155457685Y-109617691D01*
X155474319Y-109597049D01*
X157942948Y-107128420D01*
X157942952Y-107128416D01*
X158021199Y-107011309D01*
X158025084Y-107005495D01*
X158081658Y-106868913D01*
X158110500Y-106723918D01*
X158110500Y-101960295D01*
X158130185Y-101893256D01*
X158173496Y-101853670D01*
X158173158Y-101853157D01*
X158176385Y-101851030D01*
X158177090Y-101850386D01*
X158178405Y-101849699D01*
X158178404Y-101849699D01*
X158178407Y-101849698D01*
X158336109Y-101721109D01*
X158464698Y-101563407D01*
X158520092Y-101457359D01*
X158568578Y-101407053D01*
X158636565Y-101390946D01*
X158702468Y-101414152D01*
X158739907Y-101457358D01*
X158777066Y-101528495D01*
X158795302Y-101563407D01*
X158923890Y-101721109D01*
X158976376Y-101763905D01*
X159081593Y-101849698D01*
X159261951Y-101943909D01*
X159457582Y-101999886D01*
X159576963Y-102010500D01*
X160223036Y-102010499D01*
X160342418Y-101999886D01*
X160538049Y-101943909D01*
X160718407Y-101849698D01*
X160876109Y-101721109D01*
X161004698Y-101563407D01*
X161060092Y-101457359D01*
X161108578Y-101407053D01*
X161176565Y-101390946D01*
X161242468Y-101414152D01*
G37*
%TD.AperFunction*%
%TA.AperFunction,Conductor*%
G36*
X168862468Y-101414152D02*
G01*
X168899907Y-101457358D01*
X168937066Y-101528495D01*
X168955302Y-101563407D01*
X169083890Y-101721109D01*
X169136376Y-101763905D01*
X169241593Y-101849698D01*
X169241594Y-101849699D01*
X169242910Y-101850386D01*
X169243499Y-101850954D01*
X169246842Y-101853157D01*
X169246431Y-101853779D01*
X169293218Y-101898872D01*
X169309500Y-101960295D01*
X169309500Y-103593918D01*
X169309500Y-103593920D01*
X169309499Y-103593920D01*
X169338340Y-103738907D01*
X169338343Y-103738917D01*
X169394914Y-103875492D01*
X169427812Y-103924727D01*
X169427813Y-103924730D01*
X169477046Y-103998414D01*
X169477052Y-103998421D01*
X170293181Y-104814549D01*
X170326666Y-104875872D01*
X170329500Y-104902230D01*
X170329500Y-108067770D01*
X170309815Y-108134809D01*
X170293181Y-108155451D01*
X169900414Y-108548217D01*
X169839091Y-108581702D01*
X169769399Y-108576718D01*
X169739848Y-108560854D01*
X169580320Y-108444951D01*
X169390914Y-108348444D01*
X169390913Y-108348443D01*
X169390912Y-108348443D01*
X169188743Y-108282754D01*
X169188741Y-108282753D01*
X169188740Y-108282753D01*
X169027457Y-108257208D01*
X168978787Y-108249500D01*
X167541213Y-108249500D01*
X167492542Y-108257208D01*
X167331260Y-108282753D01*
X167331257Y-108282754D01*
X167140639Y-108344690D01*
X167129085Y-108348444D01*
X166939679Y-108444951D01*
X166767713Y-108569890D01*
X166617390Y-108720213D01*
X166492451Y-108892179D01*
X166395944Y-109081585D01*
X166330253Y-109283760D01*
X166326545Y-109307173D01*
X166297000Y-109493713D01*
X166297000Y-109706287D01*
X166330254Y-109916243D01*
X166386924Y-110090656D01*
X166395944Y-110118414D01*
X166492451Y-110307820D01*
X166617390Y-110479786D01*
X166756205Y-110618601D01*
X166789690Y-110679924D01*
X166784706Y-110749616D01*
X166742834Y-110805549D01*
X166733623Y-110811819D01*
X166702467Y-110831037D01*
X166637368Y-110849500D01*
X162490132Y-110849500D01*
X162425035Y-110831038D01*
X162393878Y-110811820D01*
X162347153Y-110759872D01*
X162335932Y-110690910D01*
X162363775Y-110626828D01*
X162371272Y-110618623D01*
X162510104Y-110479792D01*
X162619972Y-110328570D01*
X162672836Y-110286895D01*
X162725495Y-110265084D01*
X162790207Y-110221845D01*
X162848416Y-110182952D01*
X164172952Y-108858415D01*
X164200205Y-108817627D01*
X164255084Y-108735495D01*
X164288652Y-108654454D01*
X164311659Y-108598912D01*
X164340500Y-108453917D01*
X164340500Y-108306082D01*
X164340500Y-103726082D01*
X164334763Y-103697241D01*
X164311659Y-103581088D01*
X164278518Y-103501080D01*
X164278518Y-103501079D01*
X164255085Y-103444506D01*
X164255083Y-103444503D01*
X164172954Y-103321588D01*
X164172953Y-103321587D01*
X164172951Y-103321584D01*
X164068416Y-103217049D01*
X163226819Y-102375451D01*
X163193334Y-102314128D01*
X163190500Y-102287770D01*
X163190500Y-101960295D01*
X163210185Y-101893256D01*
X163253496Y-101853670D01*
X163253158Y-101853157D01*
X163256385Y-101851030D01*
X163257090Y-101850386D01*
X163258405Y-101849699D01*
X163258404Y-101849699D01*
X163258407Y-101849698D01*
X163416109Y-101721109D01*
X163544698Y-101563407D01*
X163600092Y-101457359D01*
X163648578Y-101407053D01*
X163716565Y-101390946D01*
X163782468Y-101414152D01*
X163819907Y-101457358D01*
X163857066Y-101528495D01*
X163875302Y-101563407D01*
X164003890Y-101721109D01*
X164056376Y-101763905D01*
X164161593Y-101849698D01*
X164341951Y-101943909D01*
X164537582Y-101999886D01*
X164656963Y-102010500D01*
X165303036Y-102010499D01*
X165422418Y-101999886D01*
X165618049Y-101943909D01*
X165798407Y-101849698D01*
X165956109Y-101721109D01*
X166084698Y-101563407D01*
X166140092Y-101457359D01*
X166188578Y-101407053D01*
X166256565Y-101390946D01*
X166322468Y-101414152D01*
X166359907Y-101457358D01*
X166397066Y-101528495D01*
X166415302Y-101563407D01*
X166543890Y-101721109D01*
X166596376Y-101763905D01*
X166701593Y-101849698D01*
X166881951Y-101943909D01*
X167077582Y-101999886D01*
X167196963Y-102010500D01*
X167843036Y-102010499D01*
X167962418Y-101999886D01*
X168158049Y-101943909D01*
X168338407Y-101849698D01*
X168496109Y-101721109D01*
X168624698Y-101563407D01*
X168680092Y-101457359D01*
X168728578Y-101407053D01*
X168796565Y-101390946D01*
X168862468Y-101414152D01*
G37*
%TD.AperFunction*%
%TA.AperFunction,Conductor*%
G36*
X164804809Y-65270185D02*
G01*
X164825451Y-65286819D01*
X168088181Y-68549549D01*
X168121666Y-68610872D01*
X168124500Y-68637230D01*
X168124500Y-68796286D01*
X168150328Y-68959361D01*
X168157754Y-69006243D01*
X168218953Y-69194594D01*
X168223444Y-69208414D01*
X168319951Y-69397820D01*
X168444890Y-69569786D01*
X168583705Y-69708601D01*
X168617190Y-69769924D01*
X168612206Y-69839616D01*
X168570334Y-69895549D01*
X168561121Y-69901821D01*
X168406342Y-69997289D01*
X168282289Y-70121342D01*
X168190187Y-70270663D01*
X168190185Y-70270668D01*
X168188243Y-70276529D01*
X168135001Y-70437203D01*
X168135001Y-70437204D01*
X168135000Y-70437204D01*
X168124500Y-70539983D01*
X168124500Y-70625500D01*
X168104815Y-70692539D01*
X168052011Y-70738294D01*
X168000500Y-70749500D01*
X166626080Y-70749500D01*
X166481092Y-70778340D01*
X166481086Y-70778342D01*
X166344508Y-70834914D01*
X166344496Y-70834921D01*
X166295269Y-70867813D01*
X166221588Y-70917044D01*
X166221580Y-70917050D01*
X161857050Y-75281581D01*
X161857044Y-75281589D01*
X161814620Y-75345081D01*
X161814621Y-75345082D01*
X161774913Y-75404508D01*
X161718343Y-75541082D01*
X161718340Y-75541092D01*
X161689500Y-75686079D01*
X161689500Y-76099704D01*
X161669815Y-76166743D01*
X161626507Y-76206327D01*
X161626845Y-76206840D01*
X161623623Y-76208962D01*
X161622916Y-76209610D01*
X161621596Y-76210299D01*
X161463890Y-76338890D01*
X161338380Y-76492818D01*
X161335302Y-76496593D01*
X161279907Y-76602640D01*
X161231422Y-76652946D01*
X161163434Y-76669053D01*
X161097531Y-76645846D01*
X161060092Y-76602641D01*
X161004698Y-76496593D01*
X160952684Y-76432803D01*
X160876109Y-76338890D01*
X160718403Y-76210299D01*
X160717084Y-76209610D01*
X160716491Y-76209039D01*
X160713155Y-76206840D01*
X160713564Y-76206218D01*
X160666778Y-76161121D01*
X160650500Y-76099704D01*
X160650500Y-75762230D01*
X160670185Y-75695191D01*
X160686819Y-75674549D01*
X161882947Y-74478421D01*
X161882952Y-74478416D01*
X161903049Y-74448337D01*
X161962801Y-74358913D01*
X161962803Y-74358907D01*
X161965084Y-74355495D01*
X162021658Y-74218913D01*
X162050500Y-74073918D01*
X162050500Y-72654981D01*
X162070185Y-72587942D01*
X162122989Y-72542187D01*
X162161899Y-72531623D01*
X162162391Y-72531572D01*
X162177797Y-72529999D01*
X162344334Y-72474814D01*
X162493656Y-72382712D01*
X162617712Y-72258656D01*
X162709814Y-72109334D01*
X162764999Y-71942797D01*
X162775500Y-71840009D01*
X162775499Y-70539992D01*
X162764999Y-70437203D01*
X162709814Y-70270666D01*
X162617712Y-70121344D01*
X162493656Y-69997288D01*
X162344334Y-69905186D01*
X162344333Y-69905185D01*
X162338878Y-69901821D01*
X162292154Y-69849873D01*
X162280931Y-69780910D01*
X162308775Y-69716828D01*
X162316272Y-69708623D01*
X162455104Y-69569792D01*
X162464272Y-69557174D01*
X162580048Y-69397820D01*
X162580047Y-69397820D01*
X162580051Y-69397816D01*
X162676557Y-69208412D01*
X162742246Y-69006243D01*
X162775500Y-68796287D01*
X162775500Y-68583713D01*
X162742246Y-68373757D01*
X162676557Y-68171588D01*
X162580051Y-67982184D01*
X162580049Y-67982181D01*
X162580048Y-67982179D01*
X162455109Y-67810213D01*
X162304786Y-67659890D01*
X162132820Y-67534951D01*
X161943414Y-67438444D01*
X161943413Y-67438443D01*
X161943412Y-67438443D01*
X161741243Y-67372754D01*
X161741241Y-67372753D01*
X161741240Y-67372753D01*
X161566334Y-67345051D01*
X161531287Y-67339500D01*
X161068713Y-67339500D01*
X161033666Y-67345051D01*
X160858760Y-67372753D01*
X160656585Y-67438444D01*
X160467179Y-67534951D01*
X160295213Y-67659890D01*
X160144890Y-67810213D01*
X160019951Y-67982179D01*
X159923444Y-68171585D01*
X159857753Y-68373760D01*
X159824500Y-68583713D01*
X159824500Y-68662770D01*
X159804815Y-68729809D01*
X159788181Y-68750451D01*
X157825451Y-70713181D01*
X157764128Y-70746666D01*
X157737770Y-70749500D01*
X157174499Y-70749500D01*
X157107460Y-70729815D01*
X157061705Y-70677011D01*
X157050499Y-70625500D01*
X157050499Y-70502129D01*
X157050498Y-70502123D01*
X157044091Y-70442516D01*
X156993797Y-70307671D01*
X156993793Y-70307664D01*
X156907547Y-70192455D01*
X156907544Y-70192452D01*
X156792335Y-70106206D01*
X156792328Y-70106202D01*
X156657482Y-70055908D01*
X156657483Y-70055908D01*
X156597883Y-70049501D01*
X156597881Y-70049500D01*
X156597873Y-70049500D01*
X156597865Y-70049500D01*
X156589322Y-70049500D01*
X156522283Y-70029815D01*
X156476528Y-69977011D01*
X156466584Y-69907853D01*
X156495609Y-69844297D01*
X156516436Y-69825182D01*
X156532757Y-69813324D01*
X156614646Y-69753828D01*
X156753828Y-69614646D01*
X156869524Y-69455405D01*
X156958884Y-69280025D01*
X157019709Y-69092826D01*
X157032929Y-69009360D01*
X157050500Y-68898422D01*
X157050500Y-68701577D01*
X157019709Y-68507173D01*
X156977121Y-68376103D01*
X156958884Y-68319975D01*
X156958882Y-68319972D01*
X156958882Y-68319970D01*
X156911743Y-68227455D01*
X156869524Y-68144595D01*
X156753828Y-67985354D01*
X156614646Y-67846172D01*
X156455405Y-67730476D01*
X156318038Y-67660484D01*
X156267243Y-67612511D01*
X156250448Y-67544690D01*
X156272985Y-67478555D01*
X156318039Y-67439515D01*
X156320143Y-67438443D01*
X156455405Y-67369524D01*
X156614646Y-67253828D01*
X156753828Y-67114646D01*
X156869524Y-66955405D01*
X156958884Y-66780025D01*
X157019709Y-66592826D01*
X157031691Y-66517174D01*
X157050500Y-66398422D01*
X157050500Y-66201577D01*
X157019709Y-66007173D01*
X156976359Y-65873757D01*
X156958884Y-65819975D01*
X156958882Y-65819972D01*
X156958882Y-65819970D01*
X156910563Y-65725139D01*
X156869524Y-65644595D01*
X156753828Y-65485354D01*
X156730655Y-65462181D01*
X156697170Y-65400858D01*
X156702154Y-65331166D01*
X156744026Y-65275233D01*
X156809490Y-65250816D01*
X156818336Y-65250500D01*
X164737770Y-65250500D01*
X164804809Y-65270185D01*
G37*
%TD.AperFunction*%
%TA.AperFunction,Conductor*%
G36*
X199763844Y-64548451D02*
G01*
X199830860Y-64568204D01*
X199876561Y-64621055D01*
X199886433Y-64690224D01*
X199857342Y-64753749D01*
X199851395Y-64760131D01*
X199698343Y-64913182D01*
X199637022Y-64946666D01*
X199610664Y-64949500D01*
X195667271Y-64949500D01*
X195619810Y-64940058D01*
X195615903Y-64938439D01*
X195413740Y-64872753D01*
X195252457Y-64847208D01*
X195203787Y-64839500D01*
X193766213Y-64839500D01*
X193726702Y-64845757D01*
X193556259Y-64872753D01*
X193354096Y-64938439D01*
X193350190Y-64940058D01*
X193302729Y-64949500D01*
X187382271Y-64949500D01*
X187334810Y-64940058D01*
X187330903Y-64938439D01*
X187128740Y-64872753D01*
X186967457Y-64847208D01*
X186918787Y-64839500D01*
X185481213Y-64839500D01*
X185441702Y-64845757D01*
X185271259Y-64872753D01*
X185069096Y-64938439D01*
X185065190Y-64940058D01*
X185017729Y-64949500D01*
X179082271Y-64949500D01*
X179034810Y-64940058D01*
X179030903Y-64938439D01*
X178828740Y-64872753D01*
X178667457Y-64847208D01*
X178618787Y-64839500D01*
X177181213Y-64839500D01*
X177132542Y-64847208D01*
X176971260Y-64872753D01*
X176769085Y-64938444D01*
X176579679Y-65034951D01*
X176407713Y-65159890D01*
X176257390Y-65310213D01*
X176132451Y-65482179D01*
X176035944Y-65671585D01*
X175970253Y-65873760D01*
X175937000Y-66083713D01*
X175937000Y-66296286D01*
X175963426Y-66463137D01*
X175970254Y-66506243D01*
X175988554Y-66562565D01*
X176035944Y-66708414D01*
X176132451Y-66897820D01*
X176257390Y-67069786D01*
X176407709Y-67220105D01*
X176407714Y-67220109D01*
X176572293Y-67339682D01*
X176614959Y-67395011D01*
X176620938Y-67464625D01*
X176588333Y-67526420D01*
X176572293Y-67540318D01*
X176407714Y-67659890D01*
X176407709Y-67659894D01*
X176257390Y-67810213D01*
X176132451Y-67982179D01*
X176035944Y-68171585D01*
X175970253Y-68373760D01*
X175937000Y-68583713D01*
X175937000Y-68796286D01*
X175962828Y-68959361D01*
X175970254Y-69006243D01*
X176031453Y-69194594D01*
X176035944Y-69208414D01*
X176132451Y-69397820D01*
X176257390Y-69569786D01*
X176407713Y-69720109D01*
X176579679Y-69845048D01*
X176579681Y-69845049D01*
X176579684Y-69845051D01*
X176769088Y-69941557D01*
X176971257Y-70007246D01*
X177181213Y-70040500D01*
X177181214Y-70040500D01*
X178618786Y-70040500D01*
X178618787Y-70040500D01*
X178828743Y-70007246D01*
X179030912Y-69941557D01*
X179220316Y-69845051D01*
X179290056Y-69794382D01*
X179392284Y-69720110D01*
X179392285Y-69720108D01*
X179392292Y-69720104D01*
X179392297Y-69720098D01*
X179394898Y-69717878D01*
X179396096Y-69717340D01*
X179396234Y-69717241D01*
X179396254Y-69717269D01*
X179458658Y-69689304D01*
X179527744Y-69699737D01*
X179563116Y-69724483D01*
X179773181Y-69934548D01*
X179806666Y-69995871D01*
X179809500Y-70022229D01*
X179809500Y-72307769D01*
X179789815Y-72374808D01*
X179773181Y-72395450D01*
X177097050Y-75071580D01*
X177097044Y-75071588D01*
X177047812Y-75145268D01*
X177047813Y-75145269D01*
X177014921Y-75194496D01*
X177014914Y-75194508D01*
X176958342Y-75331086D01*
X176958340Y-75331092D01*
X176929500Y-75476079D01*
X176929500Y-76099704D01*
X176909815Y-76166743D01*
X176866507Y-76206327D01*
X176866845Y-76206840D01*
X176863623Y-76208962D01*
X176862916Y-76209610D01*
X176861596Y-76210299D01*
X176703890Y-76338890D01*
X176578380Y-76492818D01*
X176575302Y-76496593D01*
X176519907Y-76602640D01*
X176471422Y-76652946D01*
X176403434Y-76669053D01*
X176337531Y-76645846D01*
X176300092Y-76602641D01*
X176244698Y-76496593D01*
X176192684Y-76432803D01*
X176116109Y-76338890D01*
X175958409Y-76210304D01*
X175958410Y-76210304D01*
X175958407Y-76210302D01*
X175778049Y-76116091D01*
X175778048Y-76116090D01*
X175778045Y-76116089D01*
X175647754Y-76078809D01*
X175582418Y-76060114D01*
X175582415Y-76060113D01*
X175582413Y-76060113D01*
X175516102Y-76054217D01*
X175463037Y-76049500D01*
X175463032Y-76049500D01*
X174816971Y-76049500D01*
X174816965Y-76049500D01*
X174816964Y-76049501D01*
X174805316Y-76050536D01*
X174697584Y-76060113D01*
X174501954Y-76116089D01*
X174447953Y-76144297D01*
X174321593Y-76210302D01*
X174321591Y-76210303D01*
X174321590Y-76210304D01*
X174163890Y-76338890D01*
X174038380Y-76492818D01*
X174035302Y-76496593D01*
X173979907Y-76602640D01*
X173931422Y-76652946D01*
X173863434Y-76669053D01*
X173797531Y-76645846D01*
X173760092Y-76602641D01*
X173704698Y-76496593D01*
X173652684Y-76432803D01*
X173576109Y-76338890D01*
X173418409Y-76210304D01*
X173418410Y-76210304D01*
X173418407Y-76210302D01*
X173238049Y-76116091D01*
X173238048Y-76116090D01*
X173238045Y-76116089D01*
X173107754Y-76078809D01*
X173042418Y-76060114D01*
X173042415Y-76060113D01*
X173042413Y-76060113D01*
X172976102Y-76054217D01*
X172923037Y-76049500D01*
X172923032Y-76049500D01*
X172276971Y-76049500D01*
X172276965Y-76049500D01*
X172276964Y-76049501D01*
X172265316Y-76050536D01*
X172157584Y-76060113D01*
X171961954Y-76116089D01*
X171907953Y-76144297D01*
X171781593Y-76210302D01*
X171781591Y-76210303D01*
X171781590Y-76210304D01*
X171623890Y-76338890D01*
X171498380Y-76492818D01*
X171495302Y-76496593D01*
X171439907Y-76602640D01*
X171391422Y-76652946D01*
X171323434Y-76669053D01*
X171257531Y-76645846D01*
X171220092Y-76602641D01*
X171164698Y-76496593D01*
X171112684Y-76432803D01*
X171036109Y-76338890D01*
X170878409Y-76210304D01*
X170878410Y-76210304D01*
X170878407Y-76210302D01*
X170698049Y-76116091D01*
X170698048Y-76116090D01*
X170698045Y-76116089D01*
X170567754Y-76078809D01*
X170502418Y-76060114D01*
X170502415Y-76060113D01*
X170502413Y-76060113D01*
X170436102Y-76054217D01*
X170383037Y-76049500D01*
X170383032Y-76049500D01*
X169736971Y-76049500D01*
X169736965Y-76049500D01*
X169736964Y-76049501D01*
X169725316Y-76050536D01*
X169617584Y-76060113D01*
X169421954Y-76116089D01*
X169367953Y-76144297D01*
X169241593Y-76210302D01*
X169241591Y-76210303D01*
X169241590Y-76210304D01*
X169083890Y-76338890D01*
X168958380Y-76492818D01*
X168955302Y-76496593D01*
X168899907Y-76602640D01*
X168851422Y-76652946D01*
X168783434Y-76669053D01*
X168717531Y-76645846D01*
X168680092Y-76602641D01*
X168624698Y-76496593D01*
X168572684Y-76432803D01*
X168496109Y-76338890D01*
X168338409Y-76210304D01*
X168338410Y-76210304D01*
X168338407Y-76210302D01*
X168158049Y-76116091D01*
X168158048Y-76116090D01*
X168158045Y-76116089D01*
X168027754Y-76078809D01*
X167962418Y-76060114D01*
X167962415Y-76060113D01*
X167962413Y-76060113D01*
X167896102Y-76054217D01*
X167843037Y-76049500D01*
X167843032Y-76049500D01*
X167196971Y-76049500D01*
X167196965Y-76049500D01*
X167196964Y-76049501D01*
X167185316Y-76050536D01*
X167077584Y-76060113D01*
X166881954Y-76116089D01*
X166827953Y-76144297D01*
X166701593Y-76210302D01*
X166701591Y-76210303D01*
X166701590Y-76210304D01*
X166543890Y-76338890D01*
X166418380Y-76492818D01*
X166415302Y-76496593D01*
X166359907Y-76602640D01*
X166311422Y-76652946D01*
X166243434Y-76669053D01*
X166177531Y-76645846D01*
X166140092Y-76602641D01*
X166084698Y-76496593D01*
X166032684Y-76432803D01*
X165956109Y-76338890D01*
X165798409Y-76210304D01*
X165798410Y-76210304D01*
X165798407Y-76210302D01*
X165618049Y-76116091D01*
X165618048Y-76116090D01*
X165618045Y-76116089D01*
X165487754Y-76078809D01*
X165422418Y-76060114D01*
X165422415Y-76060113D01*
X165422413Y-76060113D01*
X165356102Y-76054217D01*
X165303037Y-76049500D01*
X165303032Y-76049500D01*
X164656971Y-76049500D01*
X164656965Y-76049500D01*
X164656964Y-76049501D01*
X164645316Y-76050536D01*
X164537584Y-76060113D01*
X164341954Y-76116089D01*
X164287953Y-76144297D01*
X164161593Y-76210302D01*
X164161591Y-76210303D01*
X164161590Y-76210304D01*
X164003890Y-76338890D01*
X163878380Y-76492818D01*
X163875302Y-76496593D01*
X163819907Y-76602640D01*
X163771422Y-76652946D01*
X163703434Y-76669053D01*
X163637531Y-76645846D01*
X163600092Y-76602641D01*
X163544698Y-76496593D01*
X163492684Y-76432803D01*
X163416109Y-76338890D01*
X163253533Y-76206328D01*
X163254705Y-76204889D01*
X163215257Y-76158275D01*
X163206121Y-76089006D01*
X163235886Y-76025793D01*
X163240947Y-76020420D01*
X166974549Y-72286819D01*
X167035872Y-72253334D01*
X167062230Y-72250500D01*
X168222770Y-72250500D01*
X168289809Y-72270185D01*
X168310451Y-72286819D01*
X168406344Y-72382712D01*
X168555666Y-72474814D01*
X168722203Y-72529999D01*
X168824991Y-72540500D01*
X170375008Y-72540499D01*
X170477797Y-72529999D01*
X170644334Y-72474814D01*
X170793656Y-72382712D01*
X170917712Y-72258656D01*
X171009814Y-72109334D01*
X171064999Y-71942797D01*
X171075500Y-71840009D01*
X171075499Y-70539992D01*
X171064999Y-70437203D01*
X171009814Y-70270666D01*
X170917712Y-70121344D01*
X170793656Y-69997288D01*
X170644334Y-69905186D01*
X170644333Y-69905185D01*
X170638878Y-69901821D01*
X170592154Y-69849873D01*
X170580931Y-69780910D01*
X170608775Y-69716828D01*
X170616272Y-69708623D01*
X170755104Y-69569792D01*
X170764272Y-69557174D01*
X170880048Y-69397820D01*
X170880047Y-69397820D01*
X170880051Y-69397816D01*
X170976557Y-69208412D01*
X171042246Y-69006243D01*
X171075500Y-68796287D01*
X171075500Y-68583713D01*
X171042246Y-68373757D01*
X170976557Y-68171588D01*
X170880051Y-67982184D01*
X170880049Y-67982181D01*
X170880048Y-67982179D01*
X170755109Y-67810213D01*
X170604786Y-67659890D01*
X170432820Y-67534951D01*
X170243414Y-67438444D01*
X170243413Y-67438443D01*
X170243412Y-67438443D01*
X170041243Y-67372754D01*
X170041241Y-67372753D01*
X170041240Y-67372753D01*
X169866334Y-67345051D01*
X169831287Y-67339500D01*
X169368713Y-67339500D01*
X169333666Y-67345051D01*
X169158753Y-67372754D01*
X169158752Y-67372754D01*
X169136950Y-67379838D01*
X169067109Y-67381831D01*
X169010955Y-67349587D01*
X166387113Y-64725745D01*
X166353628Y-64664422D01*
X166358612Y-64594730D01*
X166400484Y-64538797D01*
X166465948Y-64514380D01*
X166474893Y-64514064D01*
X199763844Y-64548451D01*
G37*
%TD.AperFunction*%
%TA.AperFunction,Conductor*%
G36*
X192969781Y-67470185D02*
G01*
X193015536Y-67522989D01*
X193025480Y-67592147D01*
X192996455Y-67655703D01*
X192990423Y-67662181D01*
X192842394Y-67810209D01*
X192842390Y-67810214D01*
X192742214Y-67948095D01*
X192689350Y-67989770D01*
X192604513Y-68024911D01*
X192604498Y-68024919D01*
X192481584Y-68107048D01*
X192481580Y-68107051D01*
X187257048Y-73331583D01*
X187236912Y-73361720D01*
X187216909Y-73391658D01*
X187174919Y-73454499D01*
X187174912Y-73454511D01*
X187118343Y-73591082D01*
X187118340Y-73591092D01*
X187089500Y-73736079D01*
X187089500Y-76099704D01*
X187069815Y-76166743D01*
X187026507Y-76206327D01*
X187026845Y-76206840D01*
X187023623Y-76208962D01*
X187022916Y-76209610D01*
X187021596Y-76210299D01*
X186863890Y-76338890D01*
X186738380Y-76492818D01*
X186735302Y-76496593D01*
X186679907Y-76602640D01*
X186631422Y-76652946D01*
X186563434Y-76669053D01*
X186497531Y-76645846D01*
X186460092Y-76602641D01*
X186404698Y-76496593D01*
X186352684Y-76432803D01*
X186276109Y-76338890D01*
X186118409Y-76210304D01*
X186118410Y-76210304D01*
X186118407Y-76210302D01*
X185938049Y-76116091D01*
X185938048Y-76116090D01*
X185938045Y-76116089D01*
X185807754Y-76078809D01*
X185742418Y-76060114D01*
X185742415Y-76060113D01*
X185742413Y-76060113D01*
X185676102Y-76054217D01*
X185623037Y-76049500D01*
X185623032Y-76049500D01*
X184976971Y-76049500D01*
X184976965Y-76049500D01*
X184976964Y-76049501D01*
X184965316Y-76050536D01*
X184857584Y-76060113D01*
X184661954Y-76116089D01*
X184607953Y-76144297D01*
X184481593Y-76210302D01*
X184481591Y-76210303D01*
X184481590Y-76210304D01*
X184323890Y-76338890D01*
X184198380Y-76492818D01*
X184195302Y-76496593D01*
X184139907Y-76602640D01*
X184091422Y-76652946D01*
X184023434Y-76669053D01*
X183957531Y-76645846D01*
X183920092Y-76602641D01*
X183864698Y-76496593D01*
X183812684Y-76432803D01*
X183736109Y-76338890D01*
X183596139Y-76224760D01*
X183556622Y-76167139D01*
X183550500Y-76128658D01*
X183550500Y-70992228D01*
X183570185Y-70925189D01*
X183586814Y-70904551D01*
X184669633Y-69821732D01*
X184730954Y-69788249D01*
X184800646Y-69793233D01*
X184830194Y-69809095D01*
X184879684Y-69845051D01*
X185069088Y-69941557D01*
X185271257Y-70007246D01*
X185481213Y-70040500D01*
X185481214Y-70040500D01*
X186918786Y-70040500D01*
X186918787Y-70040500D01*
X187128743Y-70007246D01*
X187330912Y-69941557D01*
X187520316Y-69845051D01*
X187569803Y-69809097D01*
X187692286Y-69720109D01*
X187692288Y-69720106D01*
X187692292Y-69720104D01*
X187842604Y-69569792D01*
X187842606Y-69569788D01*
X187842609Y-69569786D01*
X187967548Y-69397820D01*
X187967547Y-69397820D01*
X187967551Y-69397816D01*
X188064057Y-69208412D01*
X188129746Y-69006243D01*
X188163000Y-68796287D01*
X188163000Y-68583713D01*
X188129746Y-68373757D01*
X188064057Y-68171588D01*
X187967551Y-67982184D01*
X187967549Y-67982181D01*
X187967548Y-67982179D01*
X187842609Y-67810213D01*
X187694577Y-67662181D01*
X187661092Y-67600858D01*
X187666076Y-67531166D01*
X187707948Y-67475233D01*
X187773412Y-67450816D01*
X187782258Y-67450500D01*
X192902742Y-67450500D01*
X192969781Y-67470185D01*
G37*
%TD.AperFunction*%
%TA.AperFunction,Conductor*%
G36*
X204637949Y-66187224D02*
G01*
X204753308Y-66218135D01*
X204915230Y-66232301D01*
X204979998Y-66237968D01*
X204980000Y-66237968D01*
X204980002Y-66237968D01*
X205036807Y-66232998D01*
X205206692Y-66218135D01*
X205322050Y-66187224D01*
X205354143Y-66183000D01*
X207145857Y-66183000D01*
X207177949Y-66187224D01*
X207293308Y-66218135D01*
X207455230Y-66232301D01*
X207519998Y-66237968D01*
X207520000Y-66237968D01*
X207520002Y-66237968D01*
X207576807Y-66232998D01*
X207746692Y-66218135D01*
X207862050Y-66187224D01*
X207894143Y-66183000D01*
X209685857Y-66183000D01*
X209717949Y-66187224D01*
X209833308Y-66218135D01*
X209995230Y-66232301D01*
X210059998Y-66237968D01*
X210060000Y-66237968D01*
X210060002Y-66237968D01*
X210116807Y-66232998D01*
X210286692Y-66218135D01*
X210402050Y-66187224D01*
X210434143Y-66183000D01*
X211553271Y-66183000D01*
X211596604Y-66190818D01*
X211692517Y-66226591D01*
X211692516Y-66226591D01*
X211699444Y-66227335D01*
X211752127Y-66233000D01*
X213447872Y-66232999D01*
X213507483Y-66226591D01*
X213507485Y-66226590D01*
X213507487Y-66226590D01*
X213515031Y-66224808D01*
X213515416Y-66226438D01*
X213575791Y-66222114D01*
X213637115Y-66255589D01*
X213637128Y-66255602D01*
X214673181Y-67291655D01*
X214706666Y-67352978D01*
X214709500Y-67379336D01*
X214709500Y-76225500D01*
X214689815Y-76292539D01*
X214637011Y-76338294D01*
X214585500Y-76349500D01*
X212411230Y-76349500D01*
X212344191Y-76329815D01*
X212298436Y-76277011D01*
X212288492Y-76207853D01*
X212317517Y-76144297D01*
X212323549Y-76137819D01*
X213282948Y-75178419D01*
X213282947Y-75178419D01*
X213282951Y-75178416D01*
X213365084Y-75055495D01*
X213421658Y-74918913D01*
X213450500Y-74773918D01*
X213450500Y-74626083D01*
X213450500Y-73592548D01*
X213470185Y-73525509D01*
X213486814Y-73504871D01*
X213600047Y-73391639D01*
X213730568Y-73205234D01*
X213826739Y-72998996D01*
X213885635Y-72779192D01*
X213905468Y-72552500D01*
X213903641Y-72531623D01*
X213885635Y-72325813D01*
X213885635Y-72325808D01*
X213827631Y-72109334D01*
X213826741Y-72106011D01*
X213826738Y-72106002D01*
X213815990Y-72082953D01*
X213730568Y-71899766D01*
X213600047Y-71713361D01*
X213439139Y-71552453D01*
X213434373Y-71549115D01*
X213403375Y-71527410D01*
X213359751Y-71472832D01*
X213350500Y-71425836D01*
X213350500Y-70944552D01*
X213370185Y-70877513D01*
X213386819Y-70856871D01*
X213390500Y-70853190D01*
X213420340Y-70823350D01*
X213510908Y-70676516D01*
X213565174Y-70512753D01*
X213575500Y-70411677D01*
X213575499Y-69813324D01*
X213569421Y-69753828D01*
X213565174Y-69712247D01*
X213563965Y-69708600D01*
X213510908Y-69548484D01*
X213420340Y-69401650D01*
X213298350Y-69279660D01*
X213151516Y-69189092D01*
X212987753Y-69134826D01*
X212987751Y-69134825D01*
X212886678Y-69124500D01*
X212313330Y-69124500D01*
X212313312Y-69124501D01*
X212212247Y-69134825D01*
X212048484Y-69189092D01*
X212048481Y-69189093D01*
X211901648Y-69279661D01*
X211779661Y-69401648D01*
X211689093Y-69548481D01*
X211689092Y-69548484D01*
X211634826Y-69712247D01*
X211634826Y-69712248D01*
X211634825Y-69712248D01*
X211624500Y-69813315D01*
X211624500Y-70411669D01*
X211624501Y-70411687D01*
X211634825Y-70512752D01*
X211689092Y-70676515D01*
X211689093Y-70676518D01*
X211779661Y-70823351D01*
X211813181Y-70856871D01*
X211846666Y-70918194D01*
X211849500Y-70944552D01*
X211849500Y-71425836D01*
X211829815Y-71492875D01*
X211796625Y-71527410D01*
X211760863Y-71552451D01*
X211599951Y-71713362D01*
X211469432Y-71899765D01*
X211469431Y-71899767D01*
X211442382Y-71957775D01*
X211396209Y-72010214D01*
X211329016Y-72029366D01*
X211262135Y-72009150D01*
X211217618Y-71957775D01*
X211190568Y-71899766D01*
X211060047Y-71713361D01*
X210899139Y-71552453D01*
X210894373Y-71549115D01*
X210863375Y-71527410D01*
X210819751Y-71472832D01*
X210810500Y-71425836D01*
X210810500Y-70984552D01*
X210830185Y-70917513D01*
X210846819Y-70896871D01*
X210875877Y-70867813D01*
X210920340Y-70823350D01*
X211010908Y-70676516D01*
X211065174Y-70512753D01*
X211075500Y-70411677D01*
X211075499Y-69813324D01*
X211069421Y-69753828D01*
X211065174Y-69712247D01*
X211063965Y-69708600D01*
X211010908Y-69548484D01*
X210920340Y-69401650D01*
X210798350Y-69279660D01*
X210651516Y-69189092D01*
X210487753Y-69134826D01*
X210487751Y-69134825D01*
X210386678Y-69124500D01*
X209813330Y-69124500D01*
X209813312Y-69124501D01*
X209712247Y-69134825D01*
X209548484Y-69189092D01*
X209548481Y-69189093D01*
X209401648Y-69279661D01*
X209279661Y-69401648D01*
X209189093Y-69548481D01*
X209189092Y-69548484D01*
X209134826Y-69712247D01*
X209134826Y-69712248D01*
X209134825Y-69712248D01*
X209124500Y-69813315D01*
X209124500Y-70411669D01*
X209124501Y-70411687D01*
X209134825Y-70512752D01*
X209189092Y-70676515D01*
X209189093Y-70676518D01*
X209279660Y-70823350D01*
X209282762Y-70827272D01*
X209308906Y-70892066D01*
X209309500Y-70904188D01*
X209309500Y-71425836D01*
X209289815Y-71492875D01*
X209256625Y-71527410D01*
X209220863Y-71552451D01*
X209059951Y-71713362D01*
X208929432Y-71899765D01*
X208929431Y-71899767D01*
X208902382Y-71957775D01*
X208856209Y-72010214D01*
X208789016Y-72029366D01*
X208722135Y-72009150D01*
X208677618Y-71957775D01*
X208650568Y-71899766D01*
X208520047Y-71713361D01*
X208359139Y-71552453D01*
X208354373Y-71549115D01*
X208323375Y-71527410D01*
X208279751Y-71472832D01*
X208270500Y-71425836D01*
X208270500Y-70924552D01*
X208290185Y-70857513D01*
X208306819Y-70836871D01*
X208308776Y-70834914D01*
X208320340Y-70823350D01*
X208410908Y-70676516D01*
X208465174Y-70512753D01*
X208475500Y-70411677D01*
X208475499Y-69813324D01*
X208469421Y-69753828D01*
X208465174Y-69712247D01*
X208463965Y-69708600D01*
X208410908Y-69548484D01*
X208320340Y-69401650D01*
X208198350Y-69279660D01*
X208051516Y-69189092D01*
X207887753Y-69134826D01*
X207887751Y-69134825D01*
X207786678Y-69124500D01*
X207213330Y-69124500D01*
X207213312Y-69124501D01*
X207112247Y-69134825D01*
X206948484Y-69189092D01*
X206948481Y-69189093D01*
X206801648Y-69279661D01*
X206679661Y-69401648D01*
X206589093Y-69548481D01*
X206589092Y-69548484D01*
X206534826Y-69712247D01*
X206534826Y-69712248D01*
X206534825Y-69712248D01*
X206524500Y-69813315D01*
X206524500Y-70411669D01*
X206524501Y-70411687D01*
X206534825Y-70512752D01*
X206589092Y-70676515D01*
X206589093Y-70676518D01*
X206679661Y-70823351D01*
X206733181Y-70876871D01*
X206766666Y-70938194D01*
X206769500Y-70964552D01*
X206769500Y-71425836D01*
X206749815Y-71492875D01*
X206716625Y-71527410D01*
X206680863Y-71552451D01*
X206519951Y-71713362D01*
X206389432Y-71899765D01*
X206389431Y-71899767D01*
X206362382Y-71957775D01*
X206316209Y-72010214D01*
X206249016Y-72029366D01*
X206182135Y-72009150D01*
X206137618Y-71957775D01*
X206110568Y-71899766D01*
X205980047Y-71713361D01*
X205819139Y-71552453D01*
X205814373Y-71549115D01*
X205783375Y-71527410D01*
X205739751Y-71472832D01*
X205730500Y-71425836D01*
X205730500Y-70964552D01*
X205750185Y-70897513D01*
X205766819Y-70876871D01*
X205790500Y-70853190D01*
X205820340Y-70823350D01*
X205910908Y-70676516D01*
X205965174Y-70512753D01*
X205975500Y-70411677D01*
X205975499Y-69813324D01*
X205969421Y-69753828D01*
X205965174Y-69712247D01*
X205963965Y-69708600D01*
X205910908Y-69548484D01*
X205820340Y-69401650D01*
X205698350Y-69279660D01*
X205551516Y-69189092D01*
X205387753Y-69134826D01*
X205387751Y-69134825D01*
X205286678Y-69124500D01*
X204713330Y-69124500D01*
X204713312Y-69124501D01*
X204612247Y-69134825D01*
X204448484Y-69189092D01*
X204448481Y-69189093D01*
X204301648Y-69279661D01*
X204179661Y-69401648D01*
X204089093Y-69548481D01*
X204089092Y-69548484D01*
X204034826Y-69712247D01*
X204034826Y-69712248D01*
X204034825Y-69712248D01*
X204024500Y-69813315D01*
X204024500Y-70411669D01*
X204024501Y-70411687D01*
X204034825Y-70512752D01*
X204089092Y-70676515D01*
X204089093Y-70676518D01*
X204179661Y-70823351D01*
X204193181Y-70836871D01*
X204226666Y-70898194D01*
X204229500Y-70924552D01*
X204229500Y-71425836D01*
X204209815Y-71492875D01*
X204176625Y-71527410D01*
X204140863Y-71552451D01*
X203979951Y-71713362D01*
X203849430Y-71899768D01*
X203812995Y-71977905D01*
X203766823Y-72030344D01*
X203700613Y-72049500D01*
X194916082Y-72049500D01*
X194891062Y-72054477D01*
X194891061Y-72054477D01*
X194771095Y-72078339D01*
X194771092Y-72078340D01*
X194771088Y-72078341D01*
X194691080Y-72111481D01*
X194691078Y-72111481D01*
X194634506Y-72134915D01*
X194588733Y-72165500D01*
X194511582Y-72217049D01*
X190715450Y-76013181D01*
X190654127Y-76046666D01*
X190627769Y-76049500D01*
X190056971Y-76049500D01*
X190056965Y-76049500D01*
X190056964Y-76049501D01*
X190045316Y-76050536D01*
X189937584Y-76060113D01*
X189741954Y-76116089D01*
X189687953Y-76144297D01*
X189561593Y-76210302D01*
X189561591Y-76210303D01*
X189561590Y-76210304D01*
X189403890Y-76338890D01*
X189278380Y-76492818D01*
X189275302Y-76496593D01*
X189219907Y-76602640D01*
X189171422Y-76652946D01*
X189103434Y-76669053D01*
X189037531Y-76645846D01*
X189000092Y-76602641D01*
X188944698Y-76496593D01*
X188892684Y-76432803D01*
X188816109Y-76338890D01*
X188658403Y-76210299D01*
X188657084Y-76209610D01*
X188656491Y-76209039D01*
X188653155Y-76206840D01*
X188653564Y-76206218D01*
X188606778Y-76161121D01*
X188590500Y-76099704D01*
X188590500Y-74172228D01*
X188610185Y-74105189D01*
X188626814Y-74084552D01*
X192916985Y-69794380D01*
X192978306Y-69760897D01*
X193047998Y-69765881D01*
X193077549Y-69781745D01*
X193164679Y-69845048D01*
X193164681Y-69845049D01*
X193164684Y-69845051D01*
X193354088Y-69941557D01*
X193556257Y-70007246D01*
X193766213Y-70040500D01*
X193766214Y-70040500D01*
X195203786Y-70040500D01*
X195203787Y-70040500D01*
X195413743Y-70007246D01*
X195615912Y-69941557D01*
X195805316Y-69845051D01*
X195854803Y-69809097D01*
X195977286Y-69720109D01*
X195977288Y-69720106D01*
X195977292Y-69720104D01*
X196127604Y-69569792D01*
X196127606Y-69569788D01*
X196127609Y-69569786D01*
X196252548Y-69397820D01*
X196252547Y-69397820D01*
X196252551Y-69397816D01*
X196349057Y-69208412D01*
X196414746Y-69006243D01*
X196448000Y-68796287D01*
X196448000Y-68583713D01*
X196414746Y-68373757D01*
X196349057Y-68171588D01*
X196252551Y-67982184D01*
X196252549Y-67982181D01*
X196252548Y-67982179D01*
X196127609Y-67810213D01*
X195979577Y-67662181D01*
X195946092Y-67600858D01*
X195951076Y-67531166D01*
X195992948Y-67475233D01*
X196058412Y-67450816D01*
X196067258Y-67450500D01*
X200278422Y-67450500D01*
X200472826Y-67419709D01*
X200525648Y-67402546D01*
X200660026Y-67358884D01*
X200835405Y-67269524D01*
X200994646Y-67153828D01*
X201929155Y-66219319D01*
X201990478Y-66185834D01*
X202016836Y-66183000D01*
X204605857Y-66183000D01*
X204637949Y-66187224D01*
G37*
%TD.AperFunction*%
%TD*%
M02*
